<?xml version="1.0" encoding="utf-8"?>
<!-- Generator: Adobe Illustrator 27.9.0, SVG Export Plug-In . SVG Version: 6.00 Build 0)  -->
<svg version="1.1" id="Layer_1" xmlns="http://www.w3.org/2000/svg" xmlns:xlink="http://www.w3.org/1999/xlink" x="0px" y="0px"
	 viewBox="0 0 40 68" style="enable-background:new 0 0 40 68;" xml:space="preserve">
<style type="text/css">
	.st0{fill:url(#SVGID_1_);}
</style>
<linearGradient id="SVGID_1_" gradientUnits="userSpaceOnUse" x1="20" y1="70" x2="20" y2="24.5577" gradientTransform="matrix(1 0 0 -1 0 70)">
	<stop  offset="0" style="stop-color:#76BF43"/>
	<stop  offset="0.9939" style="stop-color:#CAE1A3"/>
</linearGradient>
<path class="st0" d="M36.5,68h-33C1.6,68,0,66.5,0,64.6V3.4C0,1.5,1.6,0,3.5,0h33C38.4,0,40,1.5,40,3.4v61.1
	C40,66.5,38.4,68,36.5,68z M5.3,57.5h29.4c0.8,0,1.5-0.7,1.5-1.5V5.2c0-0.8-0.7-1.5-1.5-1.5H5.3c-0.8,0-1.5,0.7-1.5,1.5V56
	C3.8,56.9,4.4,57.5,5.3,57.5z M20,60.1c-1.7,0-3.2,1.4-3.2,3.1c0,1.7,1.4,3.1,3.2,3.1s3.2-1.4,3.2-3.1C23.2,61.5,21.7,60.1,20,60.1z
	"/>
</svg>
