<?xml version="1.0" encoding="utf-8"?>
<!-- Generator: Adobe Illustrator 27.9.0, SVG Export Plug-In . SVG Version: 6.00 Build 0)  -->
<svg version="1.1" id="Layer_1" xmlns="http://www.w3.org/2000/svg" xmlns:xlink="http://www.w3.org/1999/xlink" x="0px" y="0px"
	 viewBox="0 0 30 50" style="enable-background:new 0 0 30 50;" xml:space="preserve">
<style type="text/css">
	.st0{fill:none;stroke:#676967;stroke-linecap:round;stroke-linejoin:round;stroke-miterlimit:10;}
	.st1{fill:#414241;}
	.st2{fill:#D1DF98;}
	.st3{fill:none;stroke:#414241;stroke-linecap:round;stroke-linejoin:round;stroke-miterlimit:10;}
	.st4{font-family:'Verdana-Bold';}
	.st5{font-size:3.146px;}
	.st6{fill:none;}
	.st7{fill:#7C7D7B;}
	.st8{font-family:'Courier';}
	.st9{font-size:1.5px;}
	.st10{fill:url(#SVGID_1_);}
	.st11{fill:#FFFFFF;}
</style>
<g>
	<line class="st0" x1="12.6" y1="29.4" x2="8.9" y2="29.4"/>
	<line class="st0" x1="12.6" y1="48.5" x2="5.4" y2="48.5"/>
	<path class="st1" d="M24.6,29.5c0,2.3-1.9,4.2-4.2,4.2h-3.6c-2.3,0-4.2-1.9-4.2-4.2v-0.1c0-2.3,1.9-4.2,4.2-4.2h3.6
		C22.7,25.2,24.6,27.1,24.6,29.5L24.6,29.5z M20.4,30.9c0.8,0,1.5-0.7,1.5-1.4v-0.1c0-0.8-0.7-1.4-1.5-1.4h-3.6
		c-0.8,0-1.5,0.7-1.5,1.4v0.1c0,0.8,0.7,1.4,1.5,1.4H20.4z"/>
	<path class="st2" d="M23.6,27.4c-2.4-1.7-7.4-0.2-7.5,0.2c0.5,0.1,0.9,0,0.9,0h3.4c1,0,1.9,0.8,1.9,1.8v0.1c0,1-0.9,1.8-1.9,1.8
		h-3.6c-1,0-1.9-0.8-1.9-1.8l0-0.1c0-0.5-0.4-0.8-0.9-0.8c-0.9,0-0.9,0.8-0.9,0.8c0,0,0,0.1,0,0.1c0,2.1,1.7,3.8,3.8,3.8h3.6
		c2.1,0,3.8-1.7,3.8-3.8v-0.1C24.2,28.7,24,28,23.6,27.4"/>
	<path class="st3" d="M8.9,19.3c0,0,0,2.4,0,5.9c0,8.6,0,23.5,0,23.3"/>
</g>
<text transform="matrix(1 0 0 1 9.4055 12.9296)" class="st1 st4 st5">Inglês</text>
<rect x="3.3" y="14.3" class="st6" width="23.4" height="5.1"/>
<text transform="matrix(1 0 0 1 6.8989 15.4611)"><tspan x="0" y="0" class="st7 st8 st9">I can talk, not so </tspan><tspan x="-0.5" y="2.4" class="st7 st8 st9">easilly, but I can!</tspan></text>
<linearGradient id="SVGID_1_" gradientUnits="userSpaceOnUse" x1="3.291" y1="3.6598" x2="26.709" y2="3.6598">
	<stop  offset="0" style="stop-color:#77C043"/>
	<stop  offset="0.9939" style="stop-color:#CBE2A4"/>
</linearGradient>
<rect x="3.3" class="st10" width="23.4" height="7.3"/>
<rect x="11.6" y="1.3" class="st11" width="8.4" height="0.4"/>
<rect x="11.6" y="2" class="st11" width="8.4" height="0.4"/>
<rect x="11.6" y="2.7" class="st11" width="8.4" height="0.4"/>
<rect x="11.6" y="3.5" class="st11" width="8.4" height="0.4"/>
<rect x="11.6" y="4.2" class="st11" width="8.4" height="0.4"/>
<rect x="11.6" y="5" class="st11" width="8.4" height="0.4"/>
<rect x="11.6" y="5.7" class="st11" width="8.4" height="0.4"/>
<rect x="11.6" y="1.3" class="st11" width="3.9" height="2.6"/>
</svg>
