<?xml version="1.0" encoding="utf-8"?>
<!-- Generator: Adobe Illustrator 27.9.0, SVG Export Plug-In . SVG Version: 6.00 Build 0)  -->
<svg version="1.1" id="Layer_1" xmlns="http://www.w3.org/2000/svg" xmlns:xlink="http://www.w3.org/1999/xlink" x="0px" y="0px"
	 viewBox="0 0 30 50" style="enable-background:new 0 0 30 50;" xml:space="preserve">
<style type="text/css">
	.st0{fill:none;stroke:#676967;stroke-linecap:round;stroke-linejoin:round;stroke-miterlimit:10;}
	.st1{fill:#414241;}
	.st2{fill:#D1DF98;}
	.st3{fill:none;stroke:#414241;stroke-linecap:round;stroke-linejoin:round;stroke-miterlimit:10;}
	.st4{font-family:'Verdana-Bold';}
	.st5{font-size:3.146px;}
	.st6{fill:url(#SVGID_1_);}
	.st7{fill:none;}
	.st8{fill:#7C7D7B;}
	.st9{font-family:'Courier';}
	.st10{font-size:1.5px;}
</style>
<g>
	<line class="st0" x1="12.6" y1="21.1" x2="8.9" y2="21.1"/>
	<line class="st0" x1="12.6" y1="48.5" x2="5.4" y2="48.5"/>
	<path class="st1" d="M24.6,21.1c0,2.3-1.9,4.2-4.2,4.2h-3.6c-2.3,0-4.2-1.9-4.2-4.2V21c0-2.3,1.9-4.2,4.2-4.2h3.6
		C22.7,16.8,24.6,18.7,24.6,21.1L24.6,21.1z M20.4,22.5c0.8,0,1.5-0.7,1.5-1.4V21c0-0.8-0.7-1.4-1.5-1.4h-3.6
		c-0.8,0-1.5,0.7-1.5,1.4v0.1c0,0.8,0.7,1.4,1.5,1.4H20.4z"/>
	<path class="st2" d="M23.6,19c-2.4-1.7-7.4-0.2-7.5,0.2c0.5,0.1,0.9,0,0.9,0h3.4c1,0,1.9,0.8,1.9,1.8v0.1c0,1-0.9,1.8-1.9,1.8h-3.6
		c-1,0-1.9-0.8-1.9-1.8l0-0.1c0-0.5-0.4-0.8-0.9-0.8c-0.9,0-0.9,0.8-0.9,0.8c0,0,0,0.1,0,0.1c0,2.1,1.7,3.8,3.8,3.8h3.6
		c2.1,0,3.8-1.7,3.8-3.8V21C24.2,20.3,24,19.6,23.6,19"/>
	<path class="st3" d="M8.9,19.3c0,0,0,2.4,0,5.9c0,8.6,0,23.5,0,23.3"/>
</g>
<text transform="matrix(1 0 0 1 6.2271 10.6407)" class="st1 st4 st5">Português</text>
<linearGradient id="SVGID_1_" gradientUnits="userSpaceOnUse" x1="3.291" y1="3.6598" x2="26.709" y2="3.6598">
	<stop  offset="0" style="stop-color:#77C043"/>
	<stop  offset="0.9939" style="stop-color:#CBE2A4"/>
</linearGradient>
<path class="st6" d="M19.6,3.7L15,6.5l-4.6-2.9L15,0.8L19.6,3.7z M16.9,3.8c0,0,0-0.1,0-0.1c0-1-0.8-1.9-1.9-1.9
	c-0.7,0-1.3,0.4-1.7,1C14.2,2.6,15.6,2.7,16.9,3.8z M13.2,3.2c0,0.2-0.1,0.3-0.1,0.5c0,1,0.8,1.9,1.9,1.9c0.8,0,1.5-0.6,1.8-1.3
	C15.5,3,14,3,13.2,3.2z M26.7,0H3.3v7.3h23.4V0z"/>
<rect x="2.1" y="12" class="st7" width="25.7" height="5.1"/>
<text transform="matrix(1 0 0 1 3.748 13.1724)"><tspan x="0" y="0" class="st8 st9 st10">Português quase perfeito. </tspan><tspan x="3.2" y="2.4" class="st8 st9 st10">Falta um pouquinho</tspan></text>
</svg>
