<?xml version="1.0" encoding="utf-8"?>
<!-- Generator: Adobe Illustrator 27.9.0, SVG Export Plug-In . SVG Version: 6.00 Build 0)  -->
<svg version="1.1" id="Layer_1" xmlns="http://www.w3.org/2000/svg" xmlns:xlink="http://www.w3.org/1999/xlink" x="0px" y="0px"
	 viewBox="0 0 30 50" style="enable-background:new 0 0 30 50;" xml:space="preserve">
<style type="text/css">
	.st0{fill:none;stroke:#676967;stroke-linecap:round;stroke-linejoin:round;stroke-miterlimit:10;}
	.st1{fill:#414241;}
	.st2{fill:#D1DF98;}
	.st3{fill:none;stroke:#414241;stroke-linecap:round;stroke-linejoin:round;stroke-miterlimit:10;}
	.st4{font-family:'Verdana-Bold';}
	.st5{font-size:3.146px;}
	.st6{fill:url(#SVGID_1_);}
	.st7{fill:#FFFFFF;}
	.st8{fill:none;}
	.st9{fill:#7C7D7B;}
	.st10{font-family:'Courier';}
	.st11{font-size:1.5px;}
</style>
<g>
	<line class="st0" x1="12.6" y1="36.4" x2="9" y2="36.4"/>
	<line class="st0" x1="12.6" y1="48.5" x2="5.4" y2="48.5"/>
	<path class="st1" d="M24.6,36.5c0,2.3-1.9,4.2-4.2,4.2h-3.6c-2.3,0-4.2-1.9-4.2-4.2v-0.1c0-2.3,1.9-4.2,4.2-4.2h3.6
		C22.7,32.2,24.6,34.1,24.6,36.5L24.6,36.5z M20.4,37.9c0.8,0,1.5-0.7,1.5-1.4v-0.1c0-0.8-0.7-1.4-1.5-1.4h-3.6
		c-0.8,0-1.5,0.7-1.5,1.4v0.1c0,0.8,0.7,1.4,1.5,1.4H20.4z"/>
	<path class="st2" d="M23.7,34.4c-2.4-1.7-7.4-0.2-7.5,0.2c0.5,0.1,0.9,0,0.9,0h3.4c1,0,1.9,0.8,1.9,1.8v0.1c0,1-0.9,1.8-1.9,1.8
		h-3.6c-1,0-1.9-0.8-1.9-1.8l0-0.1c0-0.5-0.4-0.8-0.9-0.8c-0.9,0-0.9,0.8-0.9,0.8c0,0,0,0.1,0,0.1c0,2.1,1.7,3.8,3.8,3.8h3.6
		c2.1,0,3.8-1.7,3.8-3.8v-0.1C24.2,35.7,24,35,23.7,34.4"/>
	<path class="st3" d="M8.9,19.3c0,0,0,2.4,0,5.9c0,8.6,0,23.5,0,23.3"/>
</g>
<text transform="matrix(1 0 0 1 8.1206 11.7296)" class="st1 st4 st5">Francês</text>
<linearGradient id="SVGID_1_" gradientUnits="userSpaceOnUse" x1="3.1671" y1="3.6345" x2="26.5851" y2="3.6345">
	<stop  offset="0" style="stop-color:#77C043"/>
	<stop  offset="0.9939" style="stop-color:#CBE2A4"/>
</linearGradient>
<path class="st6" d="M26.6,0H3.2v7.3h23.4V0z"/>
<rect x="10.6" y="0.9" class="st7" width="2.8" height="5.5"/>
<rect x="16.1" y="0.9" class="st7" width="2.8" height="5.5"/>
<rect x="2.1" y="13.1" class="st8" width="25.7" height="5.1"/>
<text transform="matrix(1 0 0 1 3.2983 14.2611)"><tspan x="0" y="0" class="st9 st10 st11">Je peux parler, lentement, </tspan><tspan x="0" y="2.4" class="st9 st10 st11">avec une persone française </tspan></text>
</svg>
