<?xml version="1.0" encoding="utf-8"?>
<!-- Generator: Adobe Illustrator 27.9.0, SVG Export Plug-In . SVG Version: 6.00 Build 0)  -->
<svg version="1.1" id="Layer_1" xmlns="http://www.w3.org/2000/svg" xmlns:xlink="http://www.w3.org/1999/xlink" x="0px" y="0px"
	 viewBox="0 0 30 50" style="enable-background:new 0 0 30 50;" xml:space="preserve">
<style type="text/css">
	.st0{fill:none;stroke:#676967;stroke-linecap:round;stroke-linejoin:round;stroke-miterlimit:10;}
	.st1{fill:#414241;}
	.st2{fill:#D1DF98;}
	.st3{fill:none;stroke:#414241;stroke-linecap:round;stroke-linejoin:round;stroke-miterlimit:10;}
	.st4{fill:none;}
	.st5{font-family:'Verdana-Bold';}
	.st6{font-size:2px;}
	.st7{font-family:'Courier';}
	.st8{font-size:1.5px;}
	.st9{fill:url(#SVGID_1_);}
	.st10{fill:#FFFFFF;}
</style>
<g>
	<line class="st0" x1="12.6" y1="21.4" x2="9" y2="21.4"/>
	<line class="st0" x1="12.6" y1="48.5" x2="5.4" y2="48.5"/>
	<path class="st1" d="M24.6,21.5c0,2.3-1.9,4.2-4.2,4.2h-3.6c-2.3,0-4.2-1.9-4.2-4.2v-0.1c0-2.3,1.9-4.2,4.2-4.2h3.6
		C22.7,17.2,24.6,19.1,24.6,21.5L24.6,21.5z M20.4,22.9c0.8,0,1.5-0.7,1.5-1.4v-0.1c0-0.8-0.7-1.4-1.5-1.4h-3.6
		c-0.8,0-1.5,0.7-1.5,1.4v0.1c0,0.8,0.7,1.4,1.5,1.4H20.4z"/>
	<path class="st2" d="M23.7,19.4c-2.4-1.7-7.4-0.2-7.5,0.2c0.5,0.1,0.9,0,0.9,0h3.4c1,0,1.9,0.8,1.9,1.8v0.1c0,1-0.9,1.8-1.9,1.8
		h-3.6c-1,0-1.9-0.8-1.9-1.8l0-0.1c0-0.5-0.4-0.8-0.9-0.8c-0.9,0-0.9,0.8-0.9,0.8c0,0,0,0.1,0,0.1c0,2.1,1.7,3.8,3.8,3.8h3.6
		c2.1,0,3.8-1.7,3.8-3.8v-0.1C24.2,20.7,24,20,23.7,19.4"/>
	<path class="st3" d="M8.9,19.3c0,0,0,2.4,0,5.9c0,8.6,0,23.5,0,23.3"/>
</g>
<rect x="3.7" y="8.7" class="st4" width="23.2" height="5"/>
<text transform="matrix(1 0 0 1 5.0433 10.3854)"><tspan x="0" y="0" class="st1 st5 st6">O que precisar, eu </tspan><tspan x="4.6" y="2.4" class="st1 st5 st6">vou atrás!</tspan></text>
<rect x="4.2" y="13.8" class="st4" width="21.7" height="5"/>
<text transform="matrix(1 0 0 1 4.6482 15.0209)"><tspan x="0" y="0" class="st1 st7 st8">If necessary, I&apos;ll look </tspan><tspan x="1.4" y="1.8" class="st1 st7 st8">into how to find out</tspan></text>
<linearGradient id="SVGID_1_" gradientUnits="userSpaceOnUse" x1="3.1671" y1="3.6345" x2="26.5851" y2="3.6345">
	<stop  offset="0" style="stop-color:#77C043"/>
	<stop  offset="0.9939" style="stop-color:#CBE2A4"/>
</linearGradient>
<path class="st9" d="M26.6,0H3.2v7.3h23.4V0z"/>
<g id="AelmCH_00000157289844157400464480000008403165426569629593_">
	<g>
		<path class="st10" d="M15.5,6.6l-0.1,0h0l0,0l-0.1,0l-0.1,0h0l0,0l-0.1-0.1L15,6.6l0,0l-0.1,0l0,0.1l-0.1,0l-0.1,0l0,0
			c0,0,0,0,0,0l0-0.1c0,0,0-0.1,0-0.1c0-0.1,0-0.1,0-0.2c0,0,0.1-0.1,0-0.2l0,0c0,0,0.1,0,0.1-0.1c0.1,0,0.2-0.1,0.2-0.3
			C15,5.5,15,5.5,15,5.4c0.1,0,0.2-0.1,0.2-0.2c0.1,0,0.2-0.1,0.2-0.3l0.1-0.2c0.1-0.1,0.1-0.2,0.1-0.3c0-0.1-0.1-0.2-0.1-0.2
			c0-0.1-0.1-0.2-0.1-0.2C15.2,4.1,15.1,4,15,4l0,0l-0.1,0c0,0-0.1,0-0.1,0c0,0,0-0.1,0-0.2c0-0.1-0.1-0.1-0.2-0.1
			c-0.1-0.1-0.2-0.1-0.2-0.1l-0.1,0l-0.2,0c0,0-0.1,0-0.1,0l0,0l-0.1,0l-0.2-0.1c0-0.1-0.1-0.1-0.1-0.1c0,0-0.1,0-0.1-0.1
			c0,0-0.1-0.1-0.2-0.1c0,0,0,0-0.1,0c0,0-0.1,0-0.1,0l0-0.1L13.1,3c0,0,0.1,0,0.1,0c0.1,0,0.1,0,0.1,0l0.1,0l0,0l0,0.1l0,0.1h0
			l0.1,0L13.8,3l0-0.2c0,0,0.1-0.1,0.2-0.2l0,0l0-0.1l0.1-0.1c0.1-0.1,0.1-0.1,0.1-0.2c0,0,0,0,0,0c0,0,0,0,0.1,0c0,0,0.1,0,0.1,0
			c0,0,0,0,0,0c0.1,0,0.2-0.1,0.2-0.1c0,0,0,0.1,0.1,0.1c0.1,0.1,0.1,0.1,0.1,0.1c0,0,0.1,0,0.1,0c0.1,0,0.1,0,0.2-0.1
			c0-0.1,0-0.2,0-0.2l0,0l0,0l0-0.1l0-0.1L15,1.7c0,0,0,0,0-0.1l0,0c0,0,0.1,0,0.1-0.1l0.1-0.1l0,0l0-0.1c0-0.1-0.1-0.1-0.1-0.1
			l0-0.1C15,1,14.9,1,14.8,1l-0.2,0l-0.1,0h0L14.3,1c0,0,0,0.1-0.1,0.1l0-0.1L14.1,1l0,0l-0.1,0c0,0,0,0,0,0c-0.1,0-0.2,0-0.3,0.1
			c0,0-0.1-0.1-0.1-0.1c0,0,0,0,0,0h0.1l0.1-0.1l0.2,0c0.1,0,0.1,0,0.2,0l0,0.1l0.2-0.1h0.1l0.1-0.1l0.1,0l0,0h0.1l0,0l0,0l0.2,0
			l0,0l0,0l0.1,0l0.1,0l0.1,0l0-0.1l0,0.2l0.2,0l0.1,0l0,0l0.2,0l0,0l0.1,0l0,0l0.1,0l0,0l0.1,0h0l0,0l0.1,0v0l0.1,0.1l0.1,0.1l0,0
			l0.1,0l0,0.1l0.1,0l0.1,0.1l0,0l0,0l0,0l0,0.1c0,0,0,0.1,0.1,0.1l0,0l-0.1,0c-0.1,0-0.1,0.1-0.1,0.2c0,0-0.1,0-0.1,0
			c0,0,0,0-0.1,0c0,0-0.1,0-0.1,0c-0.1,0-0.1,0-0.1,0c0,0-0.1,0.1-0.1,0.2l0,0l0,0.1c-0.1,0.1-0.1,0.2-0.1,0.3l0,0.1L16,2.6
			c0,0,0,0.1,0,0.1l0,0l0,0c-0.2,0.1-0.3,0.3-0.3,0.4l0,0.1l0,0.1c0,0.1,0,0.1,0,0.2c0,0,0,0.1,0,0.2c0,0.2,0.1,0.2,0.1,0.2
			c0,0,0.1,0,0.1,0h0l0.2,0l0,0.1l0,0l0.1,0c0.2,0,0.2,0,0.3-0.2l0,0.1l0.1,0.1l0.1,0c0,0.1,0,0.2,0,0.3l0.1,0.1
			c0.1,0.1,0,0.2,0,0.2c0,0-0.1,0.1-0.1,0.1l0,0l0,0.1c0,0,0,0,0.1,0.1c0,0.1,0,0.2,0,0.2l0,0.1l0.1,0l0,0.1c0,0,0,0,0,0l0,0l0,0.2
			l0,0.1l-0.1,0l-0.1,0c0,0,0,0-0.1,0.1L16.7,6l0,0l0,0l0,0l-0.1,0.1l-0.1,0.1l-0.1,0.1l0,0l-0.1,0l-0.1-0.1l0,0.1l0,0.1l-0.1-0.3
			l-0.1,0.2h0l0-0.1l-0.1,0c-0.1,0-0.1,0.1-0.1,0.1l0,0l-0.1,0L15.5,6.6L15.5,6.6L15.5,6.6z M15.1,6.6L15.1,6.6L15.1,6.6z M14.1,6.5
			C14.1,6.5,14.1,6.5,14.1,6.5C14.1,6.5,14.1,6.5,14.1,6.5l-0.2-0.1l-0.1,0l0,0l-0.1,0l0,0l0,0l0,0l-0.1,0l0,0l0,0h0l0,0l-0.1,0l0,0
			l0,0l0,0l0,0l-0.1-0.1L13.2,6l0,0L13.1,6L13,6l0,0l-0.1,0c0.1,0,0,0,0-0.1l0.1-0.3l-0.3,0.2c0,0,0,0,0,0l0-0.1l-0.1,0
			c0,0-0.1-0.1-0.1-0.1l-0.1-0.2l-0.1-0.2l-0.1-0.1l-0.1-0.1L12.1,5l-0.1-0.1c0,0,0,0,0-0.1c0-0.1-0.1-0.1-0.1-0.2l0-0.1l0,0
			c0,0,0-0.1,0-0.1l0-0.1l0-0.1l0-0.1l0-0.1c0-0.1,0-0.1,0-0.1l0-0.1c0-0.1,0-0.1,0-0.2c0-0.1,0-0.2,0-0.3l0,0l0-0.2
			c0,0,0.1-0.2,0.1-0.2c0,0,0,0,0.1,0c0,0,0,0.1,0,0.1c0,0.2,0.1,0.2,0.2,0.3l0.1,0.1l0.1,0l0.1,0c0,0,0,0,0,0c0,0,0,0.1,0,0.1
			c0,0.1,0,0.2,0.1,0.2l0.1,0l0.1,0.1c0.1,0.1,0.1,0.1,0.2,0.1l0,0l0.1,0l0.1,0l0,0.1l0.1,0.1c0,0,0,0,0,0c-0.1,0.1-0.1,0.1-0.1,0.2
			c0,0,0,0.1,0.1,0.1c-0.1,0.1,0,0.2,0,0.2l0.2,0.2l0.1,0.1c0.1,0,0.1,0.1,0.2,0.1c0,0.1,0,0.1,0.1,0.2c0,0.1,0,0.1,0,0.2
			c0,0,0,0.1,0,0.1c0,0.1,0,0.2,0.1,0.3l0,0l0,0.1L13.9,6c0,0.1,0,0.1,0,0.2c0,0.1,0,0.2,0.1,0.3L14.1,6.5
			C14.1,6.5,14.2,6.5,14.1,6.5L14.1,6.5z M14.3,6.3c0-0.1,0-0.1-0.1-0.1c0-0.1,0-0.1,0-0.2c0-0.1,0-0.1-0.1-0.2c0-0.2,0-0.3-0.1-0.3
			l0,0l0-0.2c0-0.1,0-0.2,0-0.2c0-0.1,0-0.2-0.1-0.2c0-0.1,0-0.1-0.1-0.2l-0.1-0.1c-0.1,0-0.1-0.1-0.2-0.1c-0.1-0.1-0.1-0.1-0.2-0.2
			c0.1-0.1,0-0.2,0-0.2c0,0,0,0,0,0c0,0,0.1,0,0.1,0l0,0l0-0.1l-0.1-0.1c0,0-0.1-0.1-0.1-0.1v0l0,0c0,0,0.2,0.1,0.2,0.1l0,0l0.2,0.1
			l0,0l0.2,0l0.1,0c0.1,0,0.2,0,0.2,0c0.1,0.1,0.1,0.1,0.2,0.1l0,0l0.1,0.2c0.1,0,0.1,0.1,0.2,0.1c0,0,0.1,0.1,0.1,0.1c0,0,0,0,0,0
			c0.1,0,0.1,0,0.1,0c0.1,0.1,0.1,0.2,0.1,0.2c-0.1,0.1-0.2,0.3-0.2,0.4L15,5c0,0-0.1,0.1-0.1,0.1c0,0,0,0,0,0
			c-0.1,0-0.1,0.1-0.1,0.2c-0.1,0.1-0.2,0.2-0.2,0.3l-0.1,0.1c-0.2,0-0.2,0.1-0.2,0.2l0,0l0,0.1l0,0L14.3,6.3
			C14.3,6.3,14.3,6.3,14.3,6.3z M17,5.8L17,5.8L17,5.8L17,5.8L17,5.8z M17.2,5.4L17.2,5.4c0-0.2,0-0.2-0.1-0.2c0,0,0,0,0,0
			c0.1,0,0.1-0.1,0.1-0.1l0,0l0-0.1c0,0,0-0.1-0.1-0.1c0,0,0-0.1,0-0.1c0-0.1,0-0.1,0-0.2v0l0-0.1l-0.1-0.1c0,0-0.1-0.1-0.1-0.1
			c0-0.1,0-0.1,0-0.2c0-0.1-0.1-0.1-0.2-0.2l0,0l-0.1-0.1l0,0l0,0c0-0.1-0.1-0.1-0.2-0.1h0l-0.1,0c0,0-0.1,0.1-0.1,0.1l0,0l0,0
			l-0.1,0l-0.1,0h0l-0.1,0c0,0,0-0.1,0-0.1c0,0,0-0.1,0-0.2l0-0.1l0,0l0-0.1C16,3.1,16,3,16,3c0,0,0.1,0,0.1-0.1l0.1,0l0-0.1l0-0.1
			c0,0,0.1,0,0.1,0c0,0,0,0,0.1,0c0.1,0,0.1,0,0.2-0.1c0,0,0,0,0,0c0,0,0.1,0,0.1,0v0c0,0.1,0.1,0.2,0.2,0.2l0.2,0.1L17.3,3h0.1
			l0.1-0.1c0,0,0-0.1,0-0.1c0,0,0,0,0.1,0c0,0,0,0,0,0C17.6,3,17.7,3,17.8,3l0,0c0,0,0,0.2,0.1,0.2c0,0.1,0,0.1,0,0.2
			c0,0.1,0,0.1,0,0.2l0,0.1l0,0.1c0,0,0,0.1,0,0.2l0,0.1l0,0l0,0l0,0c0,0,0,0.1,0,0.1l-0.1,0.2l0,0l0,0.1l-0.1,0.2l0,0.1
			c0,0.1-0.1,0.3-0.1,0.3s-0.1,0.1-0.1,0.1C17.3,5.4,17.2,5.4,17.2,5.4L17.2,5.4z M13.3,3.6C13.3,3.6,13.4,3.6,13.3,3.6
			C13.4,3.6,13.4,3.6,13.3,3.6C13.4,3.6,13.3,3.6,13.3,3.6z M12.8,3.3c0,0-0.1,0-0.1,0L12.8,3.3l-0.1-0.2c-0.1-0.2-0.1-0.3-0.1-0.4
			c0-0.1-0.1-0.1-0.1-0.1l-0.1,0c-0.1,0-0.1,0-0.1,0.1c0,0,0,0-0.1,0l0,0l-0.1,0c0,0,0-0.1,0-0.1l0.1-0.1c0,0,0.1-0.1,0.1-0.1
			c0,0,0.1-0.1,0.1-0.2L12.3,2l0.1-0.2c0-0.1,0.1-0.1,0.1-0.1h0l0.1,0l0,0c0,0,0,0,0.1-0.1c0,0,0,0,0,0c0,0,0.1,0,0.1,0
			c0,0,0.1-0.1,0.1-0.1l0,0l0,0l0,0l0.1,0l0.2-0.1l0,0l0,0c0.1,0.1,0.1,0.1,0.2,0.1l0.2,0c-0.1,0-0.1,0.1-0.1,0.2
			c0,0.1,0.1,0.2,0.2,0.2h0l0.1,0c0,0,0,0.1,0.1,0.1l0.1,0l0,0L14,1.8l0.2,0.1h0l0.1,0h0c0,0,0,0,0,0.1l0,0l-0.1,0.1L14,2.2l0,0.1
			l-0.3,0.2l0,0.1l-0.1,0c0,0-0.1,0.1-0.1,0.1l-0.1,0l0,0l-0.2,0l-0.1,0L13,2.8l-0.1,0.1c-0.1,0.1-0.1,0.1-0.1,0.2l0,0.1l0,0
			L12.8,3.3C12.8,3.3,12.8,3.3,12.8,3.3z M17.2,2.7L17.2,2.7C17.2,2.7,17.2,2.6,17.2,2.7L17.2,2.7C17.2,2.7,17.2,2.7,17.2,2.7
			C17.2,2.7,17.2,2.7,17.2,2.7z M16.2,2.4c0.1,0,0.1,0,0.2,0c0,0,0,0.1,0,0.1L16.2,2.4L16.2,2.4z M17.5,2.2c0,0-0.1,0-0.1,0
			c0,0,0,0-0.1,0l-0.1-0.1l0,0c0,0,0.1-0.1,0.1-0.1c0-0.1,0-0.2-0.1-0.2c0,0,0,0,0,0l0,0c0.1,0.1,0.1,0.1,0.1,0.2l0,0L17.4,2
			L17.5,2.2L17.5,2.2z M16.7,2.2L16.7,2.2c0.1,0,0.1-0.1,0.1-0.1c0,0,0-0.1,0.1-0.1l0.1,0l-0.1,0.1c0,0,0,0,0,0.1l0,0L16.7,2.2
			L16.7,2.2z M14.5,1.8L14.5,1.8L14.5,1.8L14.5,1.8z M13.3,1.1L13.3,1.1L13.3,1.1z"/>
		<path class="st10" d="M17.2,2.3C17.2,2.3,17.2,2.3,17.2,2.3c0-0.1,0-0.2-0.1-0.2c0,0,0,0,0,0c0,0,0,0,0,0C17,2.2,17,2.2,17.2,2.3
			C17.1,2.3,17.1,2.3,17.2,2.3z"/>
		<path class="st10" d="M17.2,2.3C17.2,2.3,17.2,2.3,17.2,2.3c0-0.1,0-0.2-0.1-0.2c0,0,0,0,0,0c0,0,0,0,0,0C17,2.2,17,2.2,17.2,2.3
			C17.1,2.3,17.1,2.3,17.2,2.3z"/>
		<path class="st10" d="M17.4,5.6L17.4,5.6C17.4,5.6,17.4,5.6,17.4,5.6C17.3,5.6,17.4,5.6,17.4,5.6C17.3,5.6,17.3,5.5,17.4,5.6
			C17.3,5.5,17.3,5.5,17.4,5.6C17.3,5.6,17.3,5.6,17.4,5.6C17.3,5.6,17.3,5.6,17.4,5.6C17.3,5.6,17.3,5.6,17.4,5.6
			C17.3,5.6,17.3,5.6,17.4,5.6C17.3,5.6,17.3,5.6,17.4,5.6C17.3,5.6,17.3,5.6,17.4,5.6C17.3,5.6,17.4,5.6,17.4,5.6z"/>
		<path class="st10" d="M17.4,5.6L17.4,5.6C17.4,5.6,17.4,5.6,17.4,5.6C17.3,5.6,17.4,5.6,17.4,5.6C17.3,5.6,17.3,5.5,17.4,5.6
			C17.3,5.5,17.3,5.5,17.4,5.6C17.3,5.6,17.3,5.6,17.4,5.6C17.3,5.6,17.3,5.6,17.4,5.6C17.3,5.6,17.3,5.6,17.4,5.6
			C17.3,5.6,17.3,5.6,17.4,5.6C17.3,5.6,17.3,5.6,17.4,5.6C17.3,5.6,17.3,5.6,17.4,5.6C17.3,5.6,17.4,5.6,17.4,5.6z"/>
		<path class="st10" d="M17.4,5.5C17.4,5.5,17.4,5.6,17.4,5.5C17.4,5.5,17.4,5.5,17.4,5.5C17.5,5.5,17.5,5.5,17.4,5.5
			C17.5,5.5,17.4,5.5,17.4,5.5C17.4,5.5,17.4,5.5,17.4,5.5C17.4,5.5,17.4,5.5,17.4,5.5z"/>
		<path class="st10" d="M17.4,5.5C17.4,5.5,17.4,5.6,17.4,5.5C17.4,5.5,17.4,5.5,17.4,5.5C17.5,5.5,17.5,5.5,17.4,5.5
			C17.5,5.5,17.4,5.5,17.4,5.5C17.4,5.5,17.4,5.5,17.4,5.5C17.4,5.5,17.4,5.5,17.4,5.5z"/>
		<path class="st10" d="M16.3,2.1C16.3,2.1,16.3,2.1,16.3,2.1C16.3,2.1,16.3,2.1,16.3,2.1C16.3,2.1,16.3,2.1,16.3,2.1
			C16.3,2.1,16.3,2.1,16.3,2.1C16.3,2.1,16.3,2.1,16.3,2.1z"/>
		<path class="st10" d="M16.3,2.1C16.3,2.1,16.3,2.1,16.3,2.1C16.3,2.1,16.3,2.1,16.3,2.1C16.3,2.1,16.3,2.1,16.3,2.1
			C16.3,2.1,16.3,2.1,16.3,2.1C16.3,2.1,16.3,2.1,16.3,2.1z"/>
		<path class="st10" d="M13.4,1C13.3,1,13.3,1,13.4,1C13.3,1,13.3,1,13.4,1C13.3,1,13.3,1,13.4,1C13.4,1,13.4,1,13.4,1z"/>
		<path class="st10" d="M13.4,1C13.3,1,13.3,1,13.4,1C13.3,1,13.3,1,13.4,1C13.3,1,13.3,1,13.4,1C13.4,1,13.4,1,13.4,1z"/>
		<path class="st10" d="M17,6L17,6C16.9,6,16.9,6,17,6C16.9,6,16.9,6,17,6C16.9,6,16.9,6,17,6C17,6,17,6,17,6z"/>
		<path class="st10" d="M17,6L17,6C16.9,6,16.9,6,17,6C16.9,6,16.9,6,17,6C16.9,6,16.9,6,17,6C17,6,17,6,17,6z"/>
		<path class="st10" d="M13,1.1C13,1.1,13,1.1,13,1.1C13,1.2,13,1.2,13,1.1C13,1.2,13,1.2,13,1.1C13,1.1,13,1.1,13,1.1
			C13.1,1.1,13.1,1.1,13,1.1C13.1,1.1,13,1.1,13,1.1z"/>
		<path class="st10" d="M13,1.1C13,1.1,13,1.1,13,1.1C13,1.2,13,1.2,13,1.1C13,1.2,13,1.2,13,1.1C13,1.1,13,1.1,13,1.1
			C13.1,1.1,13.1,1.1,13,1.1C13.1,1.1,13,1.1,13,1.1z"/>
		<path class="st10" d="M17.3,5.7C17.3,5.7,17.3,5.7,17.3,5.7C17.3,5.7,17.3,5.7,17.3,5.7C17.3,5.7,17.3,5.7,17.3,5.7z"/>
		<path class="st10" d="M17.3,5.7C17.3,5.7,17.3,5.7,17.3,5.7C17.3,5.7,17.3,5.7,17.3,5.7C17.3,5.7,17.3,5.7,17.3,5.7z"/>
		<path class="st10" d="M17.4,5.6L17.4,5.6C17.4,5.6,17.4,5.6,17.4,5.6C17.4,5.7,17.4,5.7,17.4,5.6C17.4,5.6,17.4,5.6,17.4,5.6
			C17.4,5.6,17.4,5.6,17.4,5.6z"/>
		<path class="st10" d="M17.4,5.6L17.4,5.6C17.4,5.6,17.4,5.6,17.4,5.6C17.4,5.7,17.4,5.7,17.4,5.6C17.4,5.6,17.4,5.6,17.4,5.6
			C17.4,5.6,17.4,5.6,17.4,5.6z"/>
		<path class="st10" d="M14.9,2.1C14.9,2.1,14.9,2.1,14.9,2.1C14.9,2.2,14.9,2.2,14.9,2.1C15,2.1,14.9,2.1,14.9,2.1z"/>
		<path class="st10" d="M14.9,2.1C14.9,2.1,14.9,2.1,14.9,2.1C14.9,2.2,14.9,2.2,14.9,2.1C15,2.1,14.9,2.1,14.9,2.1z"/>
	</g>
</g>
</svg>
