<?xml version="1.0" encoding="utf-8"?>
<!-- Generator: Adobe Illustrator 27.8.1, SVG Export Plug-In . SVG Version: 6.00 Build 0)  -->
<svg version="1.1" id="Layer_1" xmlns="http://www.w3.org/2000/svg" xmlns:xlink="http://www.w3.org/1999/xlink" x="0px" y="0px"
	 viewBox="0 0 105.6 87.1" style="enable-background:new 0 0 105.6 87.1;" xml:space="preserve">
<style type="text/css">
	.st0{fill:url(#SVGID_1_);}
	.st1{fill:#404140;}
	.st2{fill:#D0DF98;}
	.st3{fill:none;}
</style>
<g>
	<linearGradient id="SVGID_1_" gradientUnits="userSpaceOnUse" x1="0.6832" y1="76.831" x2="105.7791" y2="76.831">
		<stop  offset="6.984489e-03" style="stop-color:#2A2627;stop-opacity:5.000000e-02"/>
		<stop  offset="0.5181" style="stop-color:#2A2627;stop-opacity:0.5"/>
		<stop  offset="1" style="stop-color:#231F20;stop-opacity:5.000000e-02"/>
	</linearGradient>
	<path class="st0" d="M72.9,67.4c-1.5-0.1-3-0.2-4.4-0.2c-2.8-0.1-5.2,2-5.3,4.8c0,1.4,0.4,2.5,1.2,3.3C63.5,76,63,77.1,63,78.3
		c0,0,0,0.1,0,0.1c0,0.6,0.1,1.3,0.3,1.8c-0.6,0-1.1,0-1.7,0c0-0.6,0-1.3,0-1.9c0.1-2.5-2-4.6-4.6-4.7c-1.5,0-3.1,0-4.6,0
		c-2.6,0-4.7,2.1-4.7,4.6c0,0.7,0.2,1.3,0.5,1.9c-0.5,0-1.1,0-1.6,0c0-0.6,0-1.3,0-1.9c0-2.5-2.2-4.5-4.8-4.4
		c-1.5,0.1-3.1,0.1-4.6,0.2c-2.6,0.1-4.6,2.3-4.4,4.8c0,0.6,0.1,1.3,0.1,1.9c-3.5,0.2-7.1,0.5-10.6,0.8c0,0,0,0,0,0c0,0,0,0,0,0
		c-1,0.1-2-0.7-2.1-1.7c-0.1-1,0.7-2,1.7-2.1c1.5-0.1,3.1-0.3,4.6-0.4c0.5,0,1,0.1,1.4,0.4c-2,0.2-3.9,0.3-5.9,0.5
		c-0.8,0.1-1.3,0.7-1.2,1.5c0.1,0.7,0.7,1.3,1.5,1.2c2.6-0.2,5.2-0.5,7.8-0.6c0.8-0.1,1.3-0.7,1.3-1.4c-0.2-2.5-2.4-4.4-5-4.2
		c-1.5,0.1-3.1,0.3-4.6,0.4c-2.6,0.2-4.5,2.5-4.2,5c0.1,0.7,0.3,1.3,0.6,1.8C17,82,16.2,82,15.4,82c0.1-0.5,0.1-0.9,0.1-1.4
		c-0.2-2-0.5-4-0.7-6c-0.3-2.4-2.5-4.1-5.1-3.8C8,71,6.3,71.2,4.6,71.5c-2.5,0.4-4.2,2.6-3.8,5c0.1,0.7,0.8,1.2,1.6,1.1
		c0.8-0.1,1.3-0.8,1.2-1.5C3.4,75.1,4,74.3,5,74.1c1.7-0.2,3.4-0.5,5.1-0.7c1-0.1,1.8,0.5,1.9,1.4c0.2,2,0.5,4,0.7,6
		c0,0.2,0,0.5-0.1,0.7c-1.8-0.4-3.2-1.1-4.4-1.8c-0.9-0.4-1.7-0.8-2.5-1c-1.6-0.4-2.6,0-3.2,0.4c-1.1,0.9-1,2.4-1,2.6
		C1.8,83,2,84.2,2.2,85.4c0.1,0.7,0.8,1.2,1.5,1.1c2.6-0.4,5.3-0.8,7.9-1.1c0.8-0.1,1.6-0.4,2.2-0.9c1.4,0.2,3.1,0.3,4.9,0.1
		c1.2-0.1,2.5-0.3,3.7-0.4c0,0,0,0,0,0c3.9-0.4,7.9-0.7,11.9-0.9c0.7,0,1.3-0.7,1.3-1.4c-0.1-1.1-0.1-2.1-0.2-3.2
		c-0.1-1,0.8-1.9,1.8-2c1.5-0.1,3.1-0.1,4.6-0.2c1.1,0,1.9,0.8,2,1.8c0,1.1,0.1,2.2,0.1,3.2c0,0.7,0.6,1.3,1.4,1.3
		c3.9-0.1,7.7-0.1,11.6-0.1c0.7,0,1.4-0.6,1.4-1.3c0-0.7-0.6-1.4-1.3-1.4c-1.5,0-3,0-4.5,0c0,0,0,0,0,0c-1,0-1.9-0.8-1.9-1.9
		c0-1,0.8-1.9,1.9-1.9c1.5,0,3.1,0,4.6,0c1.1,0,1.9,0.9,1.9,1.9c0,1.1,0,2.2-0.1,3.2c0,0.7,0.6,1.4,1.3,1.4c1.9,0,3.8,0.1,5.7,0.2
		c0,0,0.1,0,0.1,0c0.5,0.2,1.1,0.4,1.7,0.4c1.4,0.1,2.8,0.1,4.2,0.2c2.7,0.2,5-1.9,5.2-4.5c0,0,0-0.1,0-0.1c0.2-2.6-1.9-5-4.6-5.1
		c-1.4-0.1-2.9-0.2-4.3-0.2c-0.1,0-0.2,0-0.4,0c-0.8-0.2-1.4-0.9-1.3-1.7c0-0.9,0.9-1.6,1.8-1.5c1.5,0.1,2.9,0.1,4.4,0.2
		c0.9,0.1,1.7,0.8,1.7,1.7c0,0,0,0.1,0,0.1c0,0.9,0.7,1.6,1.5,1.6c0.9,0.1,1.7-0.6,1.8-1.4c0,0,0-0.1,0-0.1
		C77.9,69.9,75.7,67.5,72.9,67.4z M4.6,83.6c-0.1-0.7-0.2-1.4-0.3-2.2c0-0.1,0-0.2,0-0.2c0.1,0,0.3,0,0.7,0.1c0.6,0.2,1.2,0.5,2,0.9
		c0.5,0.3,1.1,0.6,1.8,0.9C7.4,83.2,6,83.4,4.6,83.6z M68,76.8c1.4,0.1,2.9,0.1,4.3,0.2c1,0.1,1.7,0.9,1.7,1.8c0,0,0,0.1,0,0.1
		c-0.1,0.9-0.9,1.6-1.9,1.6c-1.4-0.1-2.8-0.2-4.3-0.2c-1,0-1.7-0.8-1.7-1.7c0,0,0-0.1,0-0.1C66.2,77.5,67,76.8,68,76.8z M105.8,75.6
		c0-0.1,0-0.1,0-0.2c-1.1-0.2-2.1-0.3-3.2-0.5c0,0.1,0,0.1,0,0.2c0,0,0,0.1,0,0.1c-0.1,0.9-1.1,1.5-2,1.4c0,0,0,0,0,0
		c-1.4-0.2-2.9-0.4-4.3-0.6c0,0,0,0,0,0c-1-0.1-1.7-1-1.6-1.9c0,0,0-0.1,0-0.1c0.1-0.9,1-1.6,2-1.4c0.2,0,0.5,0.1,0.7,0.1
		c0.1-1,0.3-2.1,0.4-3.1c-0.2,0-0.5-0.1-0.7-0.1c-2.8-0.4-5.3,1.5-5.6,4.2c0,0,0,0.1,0,0.1c-0.1,1.2,0.2,2.4,0.9,3.4
		c-0.9,0.8-1.5,1.8-1.7,3.1c0,0,0,0.1,0,0.1c-0.3,2.6,1.6,5,4.3,5.4c1.4,0.2,2.8,0.4,4.2,0.6c2.6,0.4,5.1-1.4,5.5-4.1
		c0,0,0-0.1,0-0.1c0.2-1.2-0.1-2.4-0.8-3.4C104.9,78,105.6,77,105.8,75.6C105.8,75.7,105.8,75.7,105.8,75.6z M99.6,83.2
		c-1.4-0.2-2.8-0.4-4.2-0.6c-1-0.1-1.7-1-1.6-1.9c0,0,0-0.1,0-0.1c0.1-0.9,1-1.6,2-1.4c1.4,0.2,2.8,0.4,4.3,0.6c1,0.1,1.7,1,1.5,1.9
		c0,0,0,0.1,0,0.1C101.5,82.7,100.6,83.3,99.6,83.2z M90.4,82.6c0.5,0.5,0.5,1.4,0,1.9c-0.3,0.3-0.7,0.4-1.1,0.4
		c-0.3,0-0.6-0.2-0.8-0.4c-2.1-2.1-4.2-4.2-6.4-6.3c-0.3-0.3-0.9-0.1-1,0.3c-0.1,1.3-0.2,2.7-0.3,4c-0.1,0.7-0.7,1.3-1.5,1.2
		c-0.7-0.1-1.3-0.7-1.2-1.5c0.4-4.9,0.7-9.7,1.1-14.6c0.9,0.1,1.9,0.1,2.8,0.2c-0.2,2-0.3,4-0.5,6c0,0.2,0.2,0.3,0.4,0.2
		c1.9-1.2,4.9-3.1,6.3-3.9c0.7-0.4,1.5-0.2,1.9,0.4c0.4,0.6,0.2,1.5-0.4,1.9c-1.3,0.8-4,2.4-5.9,3.6C86.1,78.3,88.3,80.5,90.4,82.6z
		"/>
</g>
<g>
	<path class="st1" d="M22.5,82.5h-3.7c-1.9,0-3.5-0.2-4.9-0.6c-0.7,0.4-1.4,0.6-2.3,0.6H3.7c-0.7,0-1.4-0.6-1.4-1.3v-3.6
		c0-0.2,0.1-1.7,1.3-2.4c0.6-0.4,1.6-0.6,3.1,0c0.7,0.3,1.5,0.8,2.3,1.4c1.1,0.8,2.4,1.7,4.1,2.3c0.1-0.2,0.1-0.4,0.1-0.7v-6
		c0-0.9-0.8-1.7-1.7-1.7H6.8c-0.9,0-1.7,0.8-1.7,1.7c0,0.7-0.6,1.3-1.4,1.3s-1.4-0.6-1.4-1.3c0-2.4,2-4.4,4.4-4.4h4.9
		c2.4,0,4.4,2,4.4,4.4v6c0,0.5-0.1,1-0.2,1.4c0.9,0.2,1.9,0.3,3,0.3h3.7c0.7,0,1.3,0.6,1.3,1.3S23.3,82.5,22.5,82.5z M5.1,79.8h4.2
		c-0.6-0.4-1.2-0.8-1.7-1.1c-0.7-0.5-1.3-0.9-1.9-1.1c-0.4-0.2-0.6-0.2-0.7-0.2c0,0,0,0.1,0,0.2L5.1,79.8z"/>
</g>
<g>
	<path class="st1" d="M65.8,82.5h-5.7c-0.7,0-1.3-0.6-1.3-1.3V78c0-1-0.8-1.9-1.9-1.9h-4.5c-1,0-1.9,0.8-1.9,1.9s0.8,1.9,1.9,1.9
		c0.7,0,1.3,0.6,1.3,1.3s-0.6,1.3-1.3,1.3c-2.5,0-4.6-2.1-4.6-4.6s2.1-4.6,4.6-4.6h4.5c2.5,0,4.6,2.1,4.6,4.6v1.9h4.3
		c0.7,0,1.3,0.6,1.3,1.3S66.6,82.5,65.8,82.5z"/>
</g>
<g>
	<path class="st1" d="M56.8,82.5H45.3c-0.7,0-1.3-0.6-1.3-1.3V78c0-1-0.8-1.9-1.9-1.9h-4.5c-1,0-1.9,0.8-1.9,1.9v3.2
		c0,0.7-0.6,1.3-1.3,1.3H22.5c-2.5,0-4.6-2.1-4.6-4.6s2.1-4.6,4.6-4.6H27c2.5,0,4.6,2.1,4.6,4.6c0,0.7-0.6,1.3-1.3,1.3h-7.7
		c-0.7,0-1.3-0.6-1.3-1.3s0.6-1.3,1.3-1.3h5.8c-0.3-0.3-0.8-0.5-1.3-0.5h-4.5c-1,0-1.9,0.8-1.9,1.9s0.8,1.9,1.9,1.9H33V78
		c0-2.5,2.1-4.6,4.6-4.6h4.5c2.5,0,4.6,2.1,4.6,4.6v1.9h10.2c0.7,0,1.3,0.6,1.3,1.3S57.6,82.5,56.8,82.5z"/>
</g>
<path class="st1" d="M74,71.6C74,71.6,74,71.6,74,71.6C74,71.5,74,71.5,74,71.6C74,71.5,74,71.5,74,71.6C74,71.5,74,71.5,74,71.6z"
	/>
<path class="st1" d="M76.2,71.5C76.2,71.5,76.2,71.5,76.2,71.5C76.2,71.5,76.3,71.5,76.2,71.5C76.3,71.5,76.2,71.5,76.2,71.5z"/>
<path class="st1" d="M66.9,75.8c-2.7,0-4.1-1.5-4.1-4.2c0-2.7,2.2-5,4.9-5h4.2c2.7,0,4.9,2.2,4.9,4.9l0,0.1c0,0.8-0.7,1.5-1.6,1.5
	c-0.8,0-1.5-0.7-1.6-1.5l0-0.1c-0.1-0.9-0.8-1.6-1.7-1.6h-4.2c-0.9,0-1.7,0.7-1.7,1.6c0,0.9,0.8,1.7,1.7,1.7h1.5L69,75.5L66.9,75.8z
	"/>
<path class="st2" d="M71.8,67.1h-4.2c-2.4,0-4.4,2-4.4,4.5c0,2.4,2,4.4,4.4,4.4h1v-2.3h-1c-1.2,0-2.2-1-2.2-2.2c0-1.1,1-2.1,2.2-2.1
	h4.2c1.2,0,2.1,0.9,2.2,2.1c0,0,0,0,0,0.1c0,0,0,0,0,0c0,0.6,0.5,1.1,1.1,1.1c0.6,0,1.1-0.5,1.1-1.1c0,0,0,0,0-0.1c0,0,0,0,0,0
	C76.3,69,74.3,67.1,71.8,67.1z"/>
<path class="st2" d="M67.6,75.5c-2.2,0-4-1.8-4-4c0-2.3,1.7-4.1,4-4.1h4.2c2.2,0,4,1.8,4,4c0,0.4-0.3,0.7-0.7,0.7
	c-0.4,0-0.7-0.3-0.7-0.6l0-0.1c0-1.4-1.2-2.5-2.6-2.5h-4.2c-1.4,0-2.6,1.2-2.6,2.5c0,1.4,1.2,2.6,2.6,2.6h0.6v1.5H67.6z"/>
<path class="st1" d="M76.7,78c0,2.7-2.2,4.8-4.8,4.8h-4.2c-2.7,0-4.8-2.2-4.8-4.8v-0.1c0-2.7,2.2-4.8,4.8-4.8h4.2
	C74.5,73.1,76.7,75.3,76.7,78L76.7,78z M71.9,79.7c1,0,1.8-0.8,1.8-1.7v-0.1c0-0.9-0.8-1.7-1.8-1.7h-4.2c-1,0-1.8,0.8-1.8,1.7V78
	c0,0.9,0.8,1.7,1.8,1.7H71.9z"/>
<path class="st2" d="M75.6,75.6c-2.8-1.9-8.6-0.2-8.7,0.2c0.6,0.1,1,0,1,0h4c1.2,0,2.2,1,2.2,2.1V78c0,1.1-1,2.1-2.2,2.1h-4.2
	c-1.2,0-2.2-1-2.2-2.1l0-0.1c0-0.6-0.5-1-1.1-1c-1.1,0-1.1,1-1.1,1c0,0,0,0.1,0,0.1c0,2.4,2,4.4,4.4,4.4h4.2c2.4,0,4.4-2,4.4-4.4
	v-0.1C76.3,77.1,76,76.3,75.6,75.6z"/>
<path class="st3" d="M71.9,69.4h-4.2c-1.2,0-2.2,1-2.2,2.1c0,1.2,1,2.2,2.2,2.2h4.2c1.2,0,2.2-1,2.2-2.1c0,0,0,0,0-0.1c0,0,0,0,0,0
	C74,70.3,73,69.4,71.9,69.4z"/>
<path class="st1" d="M104,71.3c0-0.1,0-0.1,0-0.2h-3.1c0,0.1,0,0.1,0,0.2v0.1c0,0.9-0.8,1.7-1.8,1.7c0,0,0,0,0,0H95c0,0,0,0,0,0
	c-0.9,0-1.8-0.8-1.8-1.7v-0.1c0-0.9,0.8-1.7,1.8-1.7h0.7v-3.2H95c-2.7,0-4.8,2.2-4.8,4.8v0.1c0,1.3,0.5,2.4,1.3,3.2
	c-0.8,0.9-1.3,2-1.3,3.2V78c0,2.7,2.2,4.8,4.8,4.8h4.2c2.7,0,4.8-2.2,4.8-4.8v-0.1c0-1.3-0.5-2.4-1.3-3.2
	C103.5,73.8,104,72.7,104,71.3L104,71.3z M100.9,78c0,0.9-0.8,1.7-1.8,1.7H95c-1,0-1.8-0.8-1.8-1.7v-0.1c0-0.9,0.8-1.7,1.8-1.7h4.2
	C100.1,76.2,100.9,77,100.9,78L100.9,78z"/>
<path class="st2" d="M95,82.4c-2.4,0-4.3-2-4.3-4.3c0-1.2,0.4-2.2,1.2-3l0.3-0.3l-0.3-0.3c-0.7-0.8-1.2-1.9-1.2-2.9
	c0-2.5,2-4.4,4.3-4.4h0.2v2.2H95c-1.2,0-2.2,1-2.2,2.1c0,1.3,1,2.2,2.2,2.2h4.2c1.1,0,2.1-0.9,2.2-1.9h2.1c0,1-0.5,2-1.2,2.7
	l-0.3,0.3l0.3,0.3c0.7,0.8,1.2,1.8,1.2,2.9c0,2.5-2,4.4-4.3,4.4H95z M95,75.8c-1.2,0-2.2,1-2.2,2.1c0,1.3,1,2.2,2.2,2.2h4.2
	c1.2,0,2.2-1,2.2-2.1c0-1.3-1-2.2-2.2-2.2H95z"/>
<g>
	<path class="st1" d="M90.1,80.3L83,74.6c1.8-1.4,4.1-3.3,5.3-4.2c0.6-0.5,0.7-1.3,0.2-1.9c-0.5-0.6-1.3-0.7-1.9-0.2
		c-1.3,1-3.9,3.1-5.7,4.5c-0.1,0.1-0.4,0-0.4-0.2v-6h-2.7v14.6c0,0.7,0.6,1.3,1.3,1.3s1.3-0.6,1.3-1.3l0-4c0-0.5,0.5-0.7,0.9-0.4
		l6.9,5.6c0.2,0.2,0.6,0.3,0.8,0.3c0.4,0,0.8-0.2,1-0.5C90.8,81.6,90.7,80.8,90.1,80.3z"/>
	<path class="st2" d="M89.2,82.2c-0.2,0-0.4-0.1-0.5-0.2l-6.9-5.6c-0.2-0.2-0.4-0.2-0.7-0.2c-0.6,0-1,0.5-1,1v4
		c0,0.5-0.4,0.9-0.9,0.9s-0.9-0.4-0.9-0.9V67.1h1.7v5.5c0,0.2,0.1,0.4,0.2,0.5c0.1,0.1,0.3,0.2,0.5,0.2c0.2,0,0.3-0.1,0.4-0.2
		c1.8-1.4,4.4-3.5,5.7-4.5c0.2-0.1,0.3-0.2,0.5-0.2c0.3,0,0.5,0.1,0.7,0.3c0.3,0.4,0.2,0.9-0.1,1.2c-1.2,0.9-3.6,2.8-5.3,4.2
		l-0.5,0.4l7.6,6.1c0.2,0.1,0.3,0.4,0.3,0.6c0,0.2,0,0.5-0.2,0.6C89.7,82.1,89.5,82.2,89.2,82.2z"/>
</g>
<path class="st1" d="M96.1,32.3c0,17.1-14,31.2-31.2,31.2H37.8c-17.1,0-31.2-14-31.2-31.2v-0.6c0-17.1,14-31.2,31.2-31.2H65
	c17.1,0,31.2,14,31.2,31.2V32.3z M65,43c6.1,0,11.3-4.9,11.3-10.8v-0.6c0-5.8-5.2-10.8-11.3-10.8H37.8c-6.1,0-11.3,4.9-11.3,10.8
	v0.6c0,5.8,5.2,10.8,11.3,10.8H65z"/>
<path class="st2" d="M89,16.6c-17.9-12.3-55.5-1.1-56.1,1.1c3.8,0.5,6.5,0.3,6.5,0.3H65c7.7,0,14.2,6.2,14.2,13.6v0.6
	c0,7.4-6.5,13.6-14.2,13.6H37.8c-7.7,0-14.2-6.2-14.2-13.6l0-1c0-3.9-3.2-6.2-7.1-6.2c-7.1,0-7.1,6.2-7.1,6.2c0,0.1,0,1,0,1
	c0,15.6,12.7,28.3,28.3,28.3H65c15.6,0,28.3-12.7,28.3-28.3v-0.6C93.3,26.1,91.7,21,89,16.6z"/>
</svg>
