<?xml version="1.0" encoding="utf-8"?>
<!-- Generator: Adobe Illustrator 27.9.0, SVG Export Plug-In . SVG Version: 6.00 Build 0)  -->
<svg version="1.1" id="Layer_1" xmlns="http://www.w3.org/2000/svg" xmlns:xlink="http://www.w3.org/1999/xlink" x="0px" y="0px"
	 viewBox="0 0 62.9 46.8" style="enable-background:new 0 0 62.9 46.8;" xml:space="preserve">
<style type="text/css">
	.st0{fill:url(#SVGID_1_);}
</style>
<g>
	<linearGradient id="SVGID_1_" gradientUnits="userSpaceOnUse" x1="31.446" y1="46.8021" x2="31.446" y2="-9.094947e-13">
		<stop  offset="0" style="stop-color:#76BF43"/>
		<stop  offset="0.9939" style="stop-color:#CAE1A3"/>
	</linearGradient>
	<path class="st0" d="M62.9,40.8c0,3.3-2.7,6-6,6H6c-3.3,0-6-2.7-6-6V6c0-3.3,2.7-6,6-6h50.9c3.3,0,6,2.7,6,6V40.8z M11,16.4
		c-2.6-2-5-3.5-5.2-3.4s-0.9,3.2-0.9,6.5c0,0,0,7.9,0,14.9c0,5.9,1.4,7.3,7.4,7.4c13,0.1,25.9,0.1,38.9,0c5,0,6.4-1.5,6.6-6.7
		c0.1-6.5,0-13,0-19.5c0-0.9,0-0.9,0-0.9c-0.5-1.4-3-0.9-5.6,1.1c0,0-4.8,3.9-9.3,7.5c-10.3,8.5-12.7,8.4-23.1,0
		C15.3,19.7,11,16.4,11,16.4z M14.7,5.5c-3.3,0-5.9,0.7-5.8,1.5c0,0,0,0,0.2,0.2c6.8,5.6,13.6,11.2,20.6,16.5
		c0.9,0.7,3.3,0.2,4.4-0.6c3.4-2.3,6.6-5.1,9.8-7.7c3.5-2.9,5.9-4.9,5.9-4.9c2.5-2.1,4.5-4,4.4-4.2c-0.1-0.2-3-0.8-6.3-0.8H14.7z"/>
</g>
</svg>
