<?xml version="1.0" encoding="utf-8"?>
<!-- Generator: Adobe Illustrator 27.9.0, SVG Export Plug-In . SVG Version: 6.00 Build 0)  -->
<svg version="1.1" id="Layer_1" xmlns="http://www.w3.org/2000/svg" xmlns:xlink="http://www.w3.org/1999/xlink" x="0px" y="0px"
	 viewBox="0 0 12 8.5" style="enable-background:new 0 0 12 8.5;" xml:space="preserve">
<style type="text/css">
	.st0{fill:#414241;}
	.st1{fill:#D1DF98;}
</style>
<path class="st0" d="M12,4.3c0,2.3-1.9,4.2-4.2,4.2H4.2C1.9,8.5,0,6.6,0,4.3V4.2C0,1.9,1.9,0,4.2,0h3.6C10.1,0,12,1.9,12,4.3L12,4.3
	z M7.8,5.7c0.8,0,1.5-0.7,1.5-1.4V4.2c0-0.8-0.7-1.4-1.5-1.4H4.2c-0.8,0-1.5,0.7-1.5,1.4v0.1c0,0.8,0.7,1.4,1.5,1.4H7.8z"/>
<path class="st1" d="M11,2.2C8.6,0.5,3.6,2,3.5,2.4c0.5,0.1,0.9,0,0.9,0h3.4c1,0,1.9,0.8,1.9,1.8v0.1c0,1-0.9,1.8-1.9,1.8H4.2
	c-1,0-1.9-0.8-1.9-1.8V4.2c0-0.5-0.4-0.8-0.9-0.8c-0.9,0-0.9,0.8-0.9,0.8v0.1c0,2.1,1.7,3.8,3.8,3.8h3.6c2.1,0,3.8-1.7,3.8-3.8V4.2
	C11.6,3.5,11.4,2.8,11,2.2"/>
</svg>
