<?xml version="1.0" encoding="utf-8"?>
<!-- Generator: Adobe Illustrator 27.8.1, SVG Export Plug-In . SVG Version: 6.00 Build 0)  -->
<svg version="1.1" id="Layer_1" xmlns="http://www.w3.org/2000/svg" xmlns:xlink="http://www.w3.org/1999/xlink" x="0px" y="0px"
	 viewBox="0 0 42 49" style="enable-background:new 0 0 42 49;" xml:space="preserve">
<style type="text/css">
	.st0{fill-rule:evenodd;clip-rule:evenodd;fill:url(#SVGID_1_);}
	.st1{fill-rule:evenodd;clip-rule:evenodd;fill:url(#SVGID_00000170967644198994782100000012271935010278192820_);}
	.st2{fill-rule:evenodd;clip-rule:evenodd;fill:url(#SVGID_00000163791549299683181630000015130293942108649866_);}
</style>
<linearGradient id="SVGID_1_" gradientUnits="userSpaceOnUse" x1="20.9929" y1="-1.818989e-12" x2="20.9929" y2="32.3776">
	<stop  offset="0" style="stop-color:#67DD0A"/>
	<stop  offset="0.9937" style="stop-color:#CAEAA4"/>
</linearGradient>
<path class="st0" d="M37.6,0C26.5,0,15.5,0,4.4,0C1.4,0,0,1.4,0,4.4C0,11,0,17.6,0,24.2c0,6.7,0,13.4,0,20c0,2.8,1.4,4.3,4.3,4.3
	c11.1,0,22.3,0,33.4,0c2.8,0,4.3-1.4,4.3-4.2c0-13.3,0-26.6,0-39.8C42,1.4,40.6,0,37.6,0z M8.6,9.4c0.3-0.2,0.7-0.1,1.1-0.1
	c6.6,0,13.2,0,19.9,0c0.3,0,0.7-0.1,0.9,0.1c0.3,0.2,0.6,0.5,0.7,0.7c0,0.1,0.1,0.2,0.1,0.3c0,0.3-0.5,0.8-0.9,0.9
	c-0.6,0.1-1.3,0.1-2,0.1c-2.9,0-5.9,0-8.8,0c-3.3,0-6.6,0-9.9,0c-0.3,0-0.7,0.1-1-0.1c-0.1,0-0.2-0.1-0.3-0.2
	C8.2,10.7,8,10.5,8,10.2C7.9,10,8.3,9.5,8.6,9.4z M7.9,15.4c0,0,0-0.1,0-0.1c0-0.1,0-0.1,0-0.2c0.1-0.6,0.8-0.7,1.4-0.7
	c3.4,0,6.9,0,10.3,0c3.4,0,6.8,0,10.2,0c0.7,0,1.4,0.1,1.4,1v0c0,0,0,0,0,0c0,0.9-0.8,1-1.4,1c-6.8,0-13.6,0-20.4,0
	C8.7,16.4,7.9,16.2,7.9,15.4C7.9,15.4,7.9,15.4,7.9,15.4C7.9,15.4,7.9,15.4,7.9,15.4z M8.2,19.8C8.2,19.8,8.2,19.8,8.2,19.8
	c0.1-0.1,0.1-0.1,0.2-0.1c0.3-0.1,0.6-0.2,1-0.2c6.8,0,13.7,0,20.5,0c0.7,0,1.4,0.1,1.3,1c0,0.2-0.1,0.4-0.1,0.5
	c-0.2,0.4-0.7,0.4-1.2,0.4c-3.4,0-6.9,0-10.3,0c-3.4,0-6.8,0-10.2,0c-0.7,0-1.4-0.1-1.4-1C7.9,20.2,8,20,8.2,19.8z M17.3,34
	c-0.4,0.3-0.7,0.8-1.2,0.9c-0.5,0.1-1,0.1-1.6,0.1c-0.7,0-1.4,0-2,0c-0.8,0-1.5,0-2.3,0c-0.4,0-0.7,0-1.1,0c-0.7,0-1.3-0.2-1.2-1
	c0,0,0,0,0,0v0c0.1-0.4,0.7-0.9,1.1-0.9c2.4-0.1,4.8-0.1,7.1,0C16.6,33.1,16.9,33.7,17.3,34C17.3,34,17.3,34,17.3,34
	C17.3,34,17.3,34,17.3,34z M20.5,25.6c0,0.8-0.6,1-1.3,1c-1.7,0-3.4,0-5,0c-1.6,0-3.3,0-4.9,0c-0.7,0-1.3-0.1-1.3-0.9v0l0,0
	c0-0.8,0.6-1,1.3-1c3.3,0,6.7,0,10,0C19.9,24.6,20.5,24.8,20.5,25.6L20.5,25.6L20.5,25.6z M37.8,29.7c-3.2,3.5-6.4,7-9.7,10.5
	c-0.4,0.4-0.9,0.7-1.4,1c-1.8,0.7-3.7,1.4-5.8,2.2c0.7-2.4,1.3-4.6,2-6.8c0.1-0.2,0.3-0.4,0.4-0.5c3.3-3.6,6.6-7.2,9.9-10.8
	c1.4-1.5,3.3-1.7,4.6-0.5C39.2,26.2,39.3,28.1,37.8,29.7z"/>
<linearGradient id="SVGID_00000044176962264104217920000004918272053237431708_" gradientUnits="userSpaceOnUse" x1="24.699" y1="12.9937" x2="24.699" y2="9.783" gradientTransform="matrix(1 0 0 -1 0 50)">
	<stop  offset="0" style="stop-color:#67DD0A"/>
	<stop  offset="0.9937" style="stop-color:#CAEAA4"/>
</linearGradient>
<path style="fill-rule:evenodd;clip-rule:evenodd;fill:url(#SVGID_00000044176962264104217920000004918272053237431708_);" d="
	M23.4,37c1.3,1.2,2.4,2.3,3.7,3.4c-1.3,0.5-2.4,0.9-3.5,1.3c-0.6,0.2-1.4-0.5-1.2-1.1C22.7,39.5,23,38.4,23.4,37z"/>
<linearGradient id="SVGID_00000147220099595479905330000015158727523142230673_" gradientUnits="userSpaceOnUse" x1="34.8657" y1="24.05" x2="34.8657" y2="21.0878" gradientTransform="matrix(1 0 0 -1 0 50)">
	<stop  offset="0" style="stop-color:#67DD0A"/>
	<stop  offset="0.9937" style="stop-color:#CAEAA4"/>
</linearGradient>
<path style="fill-rule:evenodd;clip-rule:evenodd;fill:url(#SVGID_00000147220099595479905330000015158727523142230673_);" d="
	M32.5,26.8c0.3-0.3,0.6-0.5,1-0.9c1.2,1.1,2.5,2.3,3.7,3.5c-0.3,0.3-0.5,0.6-0.9,1C35.1,29.2,33.9,28.1,32.5,26.8z"/>
</svg>
