<?xml version="1.0" encoding="utf-8"?>
<!-- Generator: Adobe Illustrator 27.8.1, SVG Export Plug-In . SVG Version: 6.00 Build 0)  -->
<svg version="1.1" id="Layer_1" xmlns="http://www.w3.org/2000/svg" xmlns:xlink="http://www.w3.org/1999/xlink" x="0px" y="0px"
	 viewBox="0 0 63 49" style="enable-background:new 0 0 63 49;" xml:space="preserve">
<style type="text/css">
	.st0{fill:url(#SVGID_1_);}
	.st1{fill:url(#SVGID_00000122693894006899697730000009201273468920002985_);}
	.st2{fill:url(#SVGID_00000054987499645893672830000009122566398301031844_);}
	.st3{fill:url(#SVGID_00000069389924421603378890000016743140802685990584_);}
	.st4{fill:url(#SVGID_00000003091012916468713450000001754632845239719047_);}
	.st5{fill:url(#SVGID_00000008107408454722657420000014341204331725593252_);}
	.st6{fill:url(#SVGID_00000023969345674621262910000015599939068191280036_);}
</style>
<linearGradient id="SVGID_1_" gradientUnits="userSpaceOnUse" x1="54.9658" y1="42.4454" x2="54.9658" y2="44.142">
	<stop  offset="0" style="stop-color:#67DD0A"/>
	<stop  offset="0.9937" style="stop-color:#CAEAA4"/>
</linearGradient>
<path class="st0" d="M54,42.5c-0.5,0-0.8,0.4-0.8,0.8c0,0.5,0.3,0.8,0.8,0.8c0.3,0,0.6,0,0.9,0c0.3,0,0.7,0,1,0
	c0.5,0,0.8-0.4,0.8-0.8c0-0.5-0.3-0.8-0.8-0.8C55.3,42.4,54.7,42.4,54,42.5z"/>
<linearGradient id="SVGID_00000132783287499638982440000005718771736462607795_" gradientUnits="userSpaceOnUse" x1="16.007" y1="15.2905" x2="16.007" y2="17.0054">
	<stop  offset="0" style="stop-color:#67DD0A"/>
	<stop  offset="0.9937" style="stop-color:#CAEAA4"/>
</linearGradient>
<path style="fill:url(#SVGID_00000132783287499638982440000005718771736462607795_);" d="M24.8,15.3c-5.9,0-11.7,0-17.6,0
	c-0.2,0-0.3,0-0.5,0C6.2,15.4,6,15.8,6,16.2C6,16.7,6.4,17,7,17c3,0,6,0,9.1,0c2.9,0,5.8,0,8.8,0c0.8,0,1.2-0.3,1.2-0.8
	C26,15.6,25.6,15.3,24.8,15.3z"/>
<linearGradient id="SVGID_00000075144757291246748320000005737817820550112677_" gradientUnits="userSpaceOnUse" x1="32.3746" y1="13.4284" x2="32.3746" y2="42.4636">
	<stop  offset="0" style="stop-color:#67DD0A"/>
	<stop  offset="0.9937" style="stop-color:#CAEAA4"/>
</linearGradient>
<path style="fill:url(#SVGID_00000075144757291246748320000005737817820550112677_);" d="M37.2,13.5c-0.8-0.3-1.3,0.1-1.7,1.2
	c0,0.1-0.1,0.2-0.1,0.3c-2.3,7-4.6,14-6.9,21c-0.5,1.6-1,3.1-1.6,4.7c-0.3,1,0.2,1.8,1.2,1.8c0.6,0,0.9-0.4,1.1-1
	c0.8-2.5,1.7-5.1,2.5-7.6c2-6.1,4-12.2,6.1-18.3C38.1,14.5,37.9,13.8,37.2,13.5z"/>
<linearGradient id="SVGID_00000151539446163666156610000010272503553209303943_" gradientUnits="userSpaceOnUse" x1="17.6974" y1="21.0238" x2="17.6974" y2="37.4446">
	<stop  offset="0" style="stop-color:#67DD0A"/>
	<stop  offset="0.9937" style="stop-color:#CAEAA4"/>
</linearGradient>
<path style="fill:url(#SVGID_00000151539446163666156610000010272503553209303943_);" d="M25.7,26.3c0.6-1.6,0.3-2.9-0.8-4.1
	c-1-1.1-2.4-1.4-3.8-0.8c-3.2,1.4-6.3,2.8-9.5,4.3c-1.5,0.7-2.3,1.9-2.2,3.5c0,1.7,0.7,3,2.3,3.7c3.1,1.4,6.2,2.9,9.4,4.2
	c0.7,0.3,1.5,0.4,2.2,0.3c1.4-0.2,2.5-1.5,2.7-3c0.2-1.6-0.6-3.2-2-3.9c-0.9-0.4-1.9-0.8-3-1.3c1.1-0.5,2.1-0.9,3.1-1.3
	C24.8,27.6,25.4,27.1,25.7,26.3z M22.9,25.7c-1.8,0.8-3.5,1.5-5.3,2.2c-0.6,0.2-1,0.6-1,1.3c0,0.7,0.4,1,1,1.2
	c1.7,0.7,3.4,1.4,5.1,2.2c0.4,0.2,0.8,0.7,0.9,1.1c0.2,0.8-0.6,1.4-1.5,1c-1.5-0.6-2.9-1.3-4.4-2c-1.6-0.7-3.2-1.5-4.9-2.2
	c-0.7-0.3-1-0.8-1-1.8c0.2-0.2,0.4-0.7,0.8-0.9c3.2-1.5,6.3-2.9,9.5-4.3c0.7-0.3,1.2,0,1.4,0.7C23.7,25,23.5,25.5,22.9,25.7z"/>
<linearGradient id="SVGID_00000072269615528373667780000002768189617403941802_" gradientUnits="userSpaceOnUse" x1="43.9765" y1="42.4484" x2="43.9765" y2="44.141">
	<stop  offset="0" style="stop-color:#67DD0A"/>
	<stop  offset="0.9937" style="stop-color:#CAEAA4"/>
</linearGradient>
<path style="fill:url(#SVGID_00000072269615528373667780000002768189617403941802_);" d="M50.3,42.4c-2,0-4,0-6,0
	c-2.3,0-4.5,0-6.8,0c-0.6,0-0.9,0.3-0.9,0.8c-0.1,0.6,0.3,0.9,0.9,0.9c2.1,0,4.2,0,6.3,0c0.1,0,0.2,0,0.3,0c2,0,4.1,0,6.1,0
	c0.6,0,1-0.5,0.9-1.1C51.1,42.6,50.8,42.4,50.3,42.4z"/>
<linearGradient id="SVGID_00000020389338193047271560000007581093754365236912_" gradientUnits="userSpaceOnUse" x1="45.2961" y1="21.0711" x2="45.2961" y2="37.4785">
	<stop  offset="0" style="stop-color:#67DD0A"/>
	<stop  offset="0.9937" style="stop-color:#CAEAA4"/>
</linearGradient>
<path style="fill:url(#SVGID_00000020389338193047271560000007581093754365236912_);" d="M51.3,25.6c-3.1-1.4-6.2-2.9-9.3-4.2
	c-0.6-0.3-1.3-0.4-2-0.3c-1.5,0.2-2.8,1.6-3,3.2c-0.2,1.8,0.4,3,2.1,3.7c0.9,0.4,1.8,0.8,2.9,1.3c-1.1,0.5-2,0.8-2.8,1.3
	c-1.3,0.6-2.1,1.7-2.1,3.1c-0.2,2.9,2.3,4.6,5,3.5c3.1-1.4,6.2-2.8,9.3-4.2c1.6-0.7,2.3-2,2.3-3.7C53.6,27.5,52.8,26.3,51.3,25.6z
	 M50.4,30.5c-3.1,1.5-6.2,2.9-9.4,4.3c-0.8,0.4-1.2,0.2-1.5-0.4c-0.3-0.6,0-1.3,0.7-1.6c1.7-0.8,3.4-1.5,5.1-2.2
	c0.6-0.2,1-0.6,1-1.3c0-0.7-0.4-1-1-1.3c-1.8-0.7-3.6-1.5-5.3-2.3c-0.6-0.3-0.8-0.6-0.5-1.3c0.2-0.6,0.7-1,1.2-0.8
	c0.4,0.1,0.9,0.3,1.3,0.5c2.7,1.2,5.5,2.5,8.2,3.7c0.6,0.3,1.1,0.6,1,1.4c0.1,0,0.1,0.1,0.2,0.1C51,29.8,50.8,30.3,50.4,30.5z"/>
<linearGradient id="SVGID_00000005982350826753016820000008641211637053043343_" gradientUnits="userSpaceOnUse" x1="31.5" y1="1.6148" x2="31.5" y2="47.4899">
	<stop  offset="0" style="stop-color:#67DD0A"/>
	<stop  offset="0.9937" style="stop-color:#CAEAA4"/>
</linearGradient>
<path style="fill:url(#SVGID_00000005982350826753016820000008641211637053043343_);" d="M61.4,4.5c0-1.8-1-2.9-2.8-2.9
	c-8.6,0-51.4,0-54.3,0c-1.7,0-2.7,1.1-2.7,2.8c0,11.4,0,28.8,0,40.2c0,1.7,1.1,2.8,2.7,2.8c1.3,0,9,0,10.2,0c0.6,0,1-0.3,1-0.9
	c0-0.5-0.4-0.8-1-0.8c-1.2,0-8.8,0-10,0c-1,0-1.3-0.3-1.3-1.3c0-8.6,0-23.3,0-31.9c0-0.2,0-0.4,0-0.6c14.6,0,42,0,56.5,0
	c0,0.2,0,0.4,0,0.6c0,3.2,0,6.3,0,9.5c0,5.5,0,16.9,0,22.4c0,1.1-0.3,1.3-1.3,1.3c-1.2,0-8.8,0-10,0c-0.7,0-1,0.3-1,0.9
	c0,0.5,0.4,0.9,1,0.9c1.2,0,8.9,0,10.1,0c1.8,0,2.9-1.1,2.9-2.9C61.4,33.2,61.4,15.9,61.4,4.5z M37.2,7c0-0.4,0.4-0.8,0.8-0.8
	c0.4,0,0.7,0.3,0.7,0.7c0,0.4-0.4,0.8-0.8,0.8C37.6,7.7,37.3,7.4,37.2,7z M42.5,6.9c0-0.4,0.3-0.7,0.7-0.7C43.6,6.2,44,6.6,44,7
	c0,0.4-0.3,0.7-0.7,0.8C42.9,7.7,42.5,7.4,42.5,6.9z M47.8,6.9c0-0.4,0.4-0.7,0.7-0.7c0.4,0,0.7,0.4,0.7,0.8c0,0.4-0.4,0.7-0.7,0.7
	C48.1,7.7,47.7,7.3,47.8,6.9z"/>
</svg>
