<?xml version="1.0" encoding="utf-8"?>
<!-- Generator: Adobe Illustrator 27.8.1, SVG Export Plug-In . SVG Version: 6.00 Build 0)  -->
<svg version="1.1" id="Layer_1" xmlns="http://www.w3.org/2000/svg" xmlns:xlink="http://www.w3.org/1999/xlink" x="0px" y="0px"
	 viewBox="0 0 63 49" style="enable-background:new 0 0 63 49;" xml:space="preserve">
<style type="text/css">
	.st0{fill:url(#SVGID_1_);}
</style>
<linearGradient id="SVGID_1_" gradientUnits="userSpaceOnUse" x1="31.0984" y1="50" x2="31.0984" y2="17.6224" gradientTransform="matrix(1 0 0 -1 0 50)">
	<stop  offset="0" style="stop-color:#67DD0A"/>
	<stop  offset="0.9937" style="stop-color:#CAEAA4"/>
</linearGradient>
<path class="st0" d="M0,45.1C0,31.2,0,17.3,0,3.4c0.6-1.8,1.8-3,3.7-3.4c18.2,0,36.4,0,54.6,0c3.1,1,3.9,2.1,3.9,5.4
	c0,12.6,0,25.1,0,37.7c0,3.8-1.5,5.3-5.3,5.3c-17.2,0-34.3,0-51.5,0C2.8,48.5,0.9,47.6,0,45.1z M59.7,11.9c-19.1,0-38,0-57.1,0
	c0,0.4,0,0.8,0,1.2c0,10.3,0,20.6,0,30.8c0,1.8,0.2,1.9,2,1.9c17.7,0,35.4,0,53.1,0c1.7,0,2-0.3,2-2c0-8.5,0-17,0-25.5
	C59.7,16.2,59.7,14.1,59.7,11.9z M42,6.9c0-1.1-1-2.1-2.1-2.2c-1.1,0-2.2,1-2.2,2.2C37.8,8,38.8,9,39.9,9C41,9,42,8,42,6.9z M49,6.9
	c0-1.2-0.9-2.1-2-2.1c-1.1,0-2.1,0.9-2.1,2.1c0,1.2,1,2.2,2.1,2.2C48.1,9,49,8,49,6.9z M51.9,6.8C51.9,8,52.8,9,54,9
	c1.1,0,2.1-1,2.1-2.1c0-1.1-0.9-2.1-2-2.2C52.9,4.7,51.9,5.6,51.9,6.8z M55.3,15.5c0,6.4,0,12.6,0,19c-16.3,0-32.5,0-48.8,0
	c0-6.3,0-12.6,0-19C22.7,15.5,38.9,15.5,55.3,15.5z M29.9,19.3c0,2.4,0,4.7,0,7c0,1.6-0.8,2.3-2.4,2.1c-1-0.1-1.6-0.9-1.6-2.2
	c0-2.3,0-4.5,0-6.9c-1.3,0-2.4,0-3.7,0c0,2.4,0,4.8,0,7.2c0,2.7,1.6,4.4,4.3,4.8c1,0.1,2,0.1,2.9,0c1.9-0.2,3.6-1.3,3.9-3.2
	c0.4-2.9,0.3-5.8,0.5-8.7C32.4,19.3,31.2,19.3,29.9,19.3z M39.8,31.1c0-3.9,0-7.8,0-11.8c-1.2,0-2.4,0-3.5,0c0,4,0,7.9,0,11.8
	C37.5,31.1,38.6,31.1,39.8,31.1z M53.4,42.4c1.3,0,2.1-0.6,2.1-1.7c0-1.1-0.8-1.8-2.1-1.8c-6.4,0-12.7,0-19.1,0
	c-1.4,0-2,0.5-2.1,1.7c0,1.2,0.6,1.8,2.1,1.8c3.2,0,6.4,0,9.5,0C47.1,42.4,50.2,42.4,53.4,42.4z M25.7,42.4c1.4,0,2-0.6,2-1.7
	c0-1.2-0.6-1.7-2-1.7c-5.9,0-11.7,0-17.6,0c-1.4,0-2,0.5-2.1,1.7c0,1.2,0.6,1.8,2.1,1.8c2.9,0,5.8,0,8.7,0
	C19.8,42.4,22.8,42.4,25.7,42.4z"/>
</svg>
