<?xml version="1.0" encoding="utf-8"?>
<!-- Generator: Adobe Illustrator 27.9.0, SVG Export Plug-In . SVG Version: 6.00 Build 0)  -->
<svg version="1.1" id="Layer_1" xmlns="http://www.w3.org/2000/svg" xmlns:xlink="http://www.w3.org/1999/xlink" x="0px" y="0px"
	 viewBox="0 0 21.2 50" style="enable-background:new 0 0 21.2 50;" xml:space="preserve">
<style type="text/css">
	.st0{fill:#575757;}
	.st1{fill:#404140;}
	.st2{fill:#DADADA;}
</style>
<g>
	<path class="st0" d="M0,45.3l0.4-2.1h0.2l-0.4,2.1H0z M2.2,45.3c-0.1,0-0.2,0-0.3-0.1c-0.1,0-0.2-0.1-0.2-0.2
		c0-0.1-0.1-0.2-0.1-0.3c0-0.1,0-0.2,0-0.3c0-0.1,0.1-0.2,0.1-0.3c0-0.1,0.1-0.2,0.2-0.2c0.1-0.1,0.1-0.1,0.2-0.2
		c0.1,0,0.2-0.1,0.3-0.1c0.1,0,0.1,0,0.2,0c0.1,0,0.1,0,0.2,0.1l-0.1,0.2c0,0-0.1,0-0.1-0.1c-0.1,0-0.1,0-0.2,0
		c-0.1,0-0.2,0-0.2,0.1C2.1,44,2.1,44,2,44.1c-0.1,0.1-0.1,0.2-0.1,0.3c0,0.1,0,0.2,0,0.3c0,0.1,0,0.2,0,0.2C1.9,45,2,45,2,45
		c0.1,0,0.1,0,0.2,0c0.1,0,0.1,0,0.2,0c0.1,0,0.1,0,0.2-0.1v0.2c-0.1,0-0.1,0-0.2,0.1C2.3,45.3,2.3,45.3,2.2,45.3z M3.4,45.3
		c-0.1,0-0.2,0-0.2-0.1C3.1,45.2,3,45.1,3,45c0-0.1-0.1-0.2-0.1-0.3c0-0.1,0-0.2,0-0.3c0-0.1,0.1-0.2,0.1-0.3c0-0.1,0.1-0.2,0.2-0.2
		c0.1-0.1,0.1-0.1,0.2-0.2c0.1,0,0.2-0.1,0.3-0.1c0.1,0,0.1,0,0.2,0C4,43.7,4,43.7,4,43.8c0,0,0.1,0.1,0.1,0.1h0l0.1-0.3h0.2
		l-0.3,1.6H3.9l0-0.3h0c0,0.1-0.1,0.1-0.1,0.2c-0.1,0.1-0.1,0.1-0.2,0.1C3.5,45.3,3.4,45.3,3.4,45.3z M3.4,45.1c0.1,0,0.1,0,0.2-0.1
		c0.1-0.1,0.1-0.1,0.2-0.2C3.9,44.7,4,44.6,4,44.5c0-0.1,0-0.1,0-0.2c0,0,0-0.1,0-0.1C4,44.1,4,44,4,43.9c-0.1-0.1-0.1-0.1-0.2-0.1
		c-0.1,0-0.1,0-0.2,0c-0.1,0-0.1,0.1-0.2,0.1c0,0.1-0.1,0.1-0.1,0.2c0,0.1-0.1,0.2-0.1,0.2c0,0.1,0,0.2,0,0.3c0,0.1,0,0.2,0.1,0.3
		C3.3,45.1,3.4,45.1,3.4,45.1z M4.5,45.3l0.3-1.6h0.2l0,0.3h0c0-0.1,0.1-0.1,0.1-0.2c0.1-0.1,0.1-0.1,0.2-0.1c0.1,0,0.1-0.1,0.2-0.1
		c0.1,0,0.2,0,0.2,0c0.1,0,0.1,0.1,0.1,0.1c0,0.1,0,0.1,0,0.2c0,0,0,0.1,0,0.1c0,0,0,0.1,0,0.1l-0.2,1H5.5l0.2-1c0,0,0-0.1,0-0.1
		c0,0,0-0.1,0-0.1c0-0.1,0-0.1-0.1-0.2c0,0-0.1-0.1-0.2-0.1c-0.1,0-0.1,0-0.2,0.1c-0.1,0-0.2,0.1-0.2,0.2C5,44.3,5,44.4,4.9,44.6
		l-0.1,0.7H4.5z M7.5,45.3c-0.1,0-0.2,0-0.3-0.1c-0.1-0.1-0.1-0.1-0.1-0.3c0,0,0-0.1,0-0.1c0,0,0-0.1,0-0.1l0.2-0.9H7.1l0-0.1
		l0.3-0.1l0.2-0.3h0.1l-0.1,0.4H8l0,0.2H7.6l-0.2,0.9c0,0,0,0.1,0,0.1c0,0,0,0.1,0,0.1c0,0,0,0.1,0,0.1c0,0,0.1,0,0.1,0
		c0,0,0.1,0,0.1,0c0,0,0.1,0,0.1,0v0.2c0,0-0.1,0-0.1,0C7.6,45.3,7.5,45.3,7.5,45.3z M8.5,45.3c-0.1,0-0.2,0-0.2-0.1
		c-0.1,0-0.1-0.1-0.2-0.2c0-0.1-0.1-0.2-0.1-0.3c0-0.1,0-0.2,0-0.3c0-0.1,0.1-0.2,0.1-0.3s0.1-0.2,0.2-0.2c0.1-0.1,0.1-0.1,0.2-0.2
		c0.1,0,0.2-0.1,0.3-0.1c0.1,0,0.1,0,0.2,0c0.1,0,0.1,0.1,0.1,0.1c0,0,0.1,0.1,0.1,0.1h0l0.1-0.3h0.2l-0.3,1.6H9l0-0.3h0
		c0,0.1-0.1,0.1-0.1,0.2c-0.1,0.1-0.1,0.1-0.2,0.1C8.6,45.3,8.6,45.3,8.5,45.3z M8.6,45.1c0.1,0,0.1,0,0.2-0.1
		C8.9,45,8.9,44.9,9,44.8c0.1-0.1,0.1-0.2,0.1-0.3c0-0.1,0-0.1,0-0.2c0,0,0-0.1,0-0.1c0-0.1,0-0.2-0.1-0.2C9,43.9,9,43.8,8.9,43.8
		c-0.1,0-0.1,0-0.2,0c-0.1,0-0.1,0.1-0.2,0.1c0,0.1-0.1,0.1-0.1,0.2c0,0.1-0.1,0.2-0.1,0.2c0,0.1,0,0.2,0,0.3c0,0.1,0,0.2,0.1,0.3
		C8.4,45.1,8.5,45.1,8.6,45.1z M9.7,45.3l0.5-2.3h0.2l-0.5,2.3H9.7z M10.4,45.3l0.5-2.3h0.2l-0.2,0.9c0,0.1,0,0.2-0.1,0.3
		c0,0.1,0,0.1,0,0.2c0,0,0,0.1,0,0.1h0l0.8-0.8h0.3l-0.7,0.7l0.4,0.9h-0.3L11,44.5l-0.2,0.2l-0.1,0.6H10.4z M11.7,45.6
		c0-0.1,0.1-0.2,0.1-0.2c0-0.1,0.1-0.2,0.1-0.3c0-0.1,0.1-0.2,0.1-0.2h0.3l0,0c0,0.1-0.1,0.1-0.1,0.2c0,0.1-0.1,0.2-0.1,0.2
		c0,0.1-0.1,0.2-0.1,0.2H11.7z M13.4,45.3l0.3-1.6h0.2l0,0.3h0c0-0.1,0.1-0.1,0.1-0.2c0.1-0.1,0.1-0.1,0.2-0.1
		c0.1,0,0.1-0.1,0.2-0.1c0.1,0,0.2,0,0.2,0c0.1,0,0.1,0.1,0.1,0.1c0,0.1,0,0.1,0,0.2c0,0,0,0.1,0,0.1c0,0,0,0.1,0,0.1l-0.2,1h-0.3
		l0.2-1c0,0,0-0.1,0-0.1c0,0,0-0.1,0-0.1c0-0.1,0-0.1-0.1-0.2c0,0-0.1-0.1-0.2-0.1c-0.1,0-0.1,0-0.2,0.1c-0.1,0-0.2,0.1-0.2,0.2
		c-0.1,0.1-0.1,0.2-0.2,0.4l-0.1,0.7H13.4z M15.7,45.3c-0.1,0-0.2,0-0.3-0.1c-0.1-0.1-0.2-0.1-0.2-0.2c0-0.1-0.1-0.2-0.1-0.3
		c0-0.1,0-0.2,0-0.3c0-0.1,0.1-0.2,0.1-0.3c0-0.1,0.1-0.2,0.2-0.2c0.1-0.1,0.1-0.1,0.2-0.2c0.1,0,0.2-0.1,0.3-0.1
		c0.1,0,0.2,0,0.3,0.1c0.1,0,0.2,0.1,0.2,0.2c0,0.1,0.1,0.2,0.1,0.3c0,0.1,0,0.2,0,0.3c0,0.1-0.1,0.2-0.1,0.3c0,0.1-0.1,0.2-0.2,0.2
		c-0.1,0.1-0.1,0.1-0.2,0.2C15.9,45.3,15.8,45.3,15.7,45.3z M15.7,45.1c0.1,0,0.1,0,0.2,0c0.1,0,0.1-0.1,0.1-0.1
		c0,0,0.1-0.1,0.1-0.2c0-0.1,0.1-0.1,0.1-0.2c0-0.1,0-0.2,0-0.3c0-0.1,0-0.1,0-0.2c0-0.1-0.1-0.1-0.1-0.1c0,0-0.1-0.1-0.2-0.1
		c-0.1,0-0.1,0-0.2,0c-0.1,0-0.1,0.1-0.2,0.1c0,0.1-0.1,0.1-0.1,0.2c0,0.1-0.1,0.1-0.1,0.2c0,0.1,0,0.2,0,0.3c0,0.1,0,0.2,0.1,0.3
		C15.5,45,15.6,45.1,15.7,45.1z M17.2,45.3c-0.1,0-0.2,0-0.3-0.1c-0.1-0.1-0.1-0.1-0.1-0.3c0,0,0-0.1,0-0.1c0,0,0-0.1,0-0.1l0.2-0.9
		h-0.2l0-0.1l0.3-0.1l0.2-0.3h0.1l-0.1,0.4h0.4l0,0.2h-0.4l-0.2,0.9c0,0,0,0.1,0,0.1c0,0,0,0.1,0,0.1c0,0,0,0.1,0,0.1
		c0,0,0.1,0,0.1,0c0,0,0.1,0,0.1,0c0,0,0.1,0,0.1,0v0.2c0,0-0.1,0-0.1,0C17.3,45.3,17.3,45.3,17.2,45.3z M18.9,45.3
		c-0.1,0-0.2,0-0.3,0c-0.1,0-0.1,0-0.2-0.1V45c0.1,0,0.1,0.1,0.2,0.1c0.1,0,0.2,0,0.2,0c0.1,0,0.1,0,0.2,0c0.1,0,0.1-0.1,0.1-0.1
		c0,0,0-0.1,0-0.1c0,0,0-0.1,0-0.1c0,0,0-0.1-0.1-0.1c0,0-0.1-0.1-0.2-0.1c-0.1,0-0.1-0.1-0.2-0.1c-0.1,0-0.1-0.1-0.1-0.1
		c0-0.1,0-0.1,0-0.2c0-0.1,0-0.2,0.1-0.2c0-0.1,0.1-0.1,0.2-0.2c0.1,0,0.2-0.1,0.3-0.1c0.1,0,0.2,0,0.3,0c0.1,0,0.2,0,0.2,0.1
		l-0.1,0.2c-0.1,0-0.1,0-0.2-0.1c-0.1,0-0.1,0-0.2,0c-0.1,0-0.2,0-0.2,0.1c-0.1,0-0.1,0.1-0.1,0.2c0,0,0,0.1,0,0.1
		c0,0,0,0.1,0.1,0.1c0,0,0.1,0.1,0.2,0.1c0.1,0,0.1,0.1,0.2,0.1c0.1,0,0.1,0.1,0.1,0.1c0,0.1,0,0.1,0,0.2c0,0.1,0,0.2-0.1,0.3
		c0,0.1-0.1,0.1-0.2,0.2C19.1,45.3,19,45.3,18.9,45.3z M20.4,45.3c-0.1,0-0.2,0-0.3-0.1C20,45.2,20,45.1,19.9,45
		c0-0.1-0.1-0.2-0.1-0.3c0-0.1,0-0.2,0-0.3c0-0.1,0.1-0.2,0.1-0.3c0-0.1,0.1-0.2,0.2-0.2c0.1-0.1,0.1-0.1,0.2-0.2
		c0.1,0,0.2-0.1,0.3-0.1c0.1,0,0.2,0,0.3,0.1c0.1,0,0.2,0.1,0.2,0.2c0,0.1,0.1,0.2,0.1,0.3c0,0.1,0,0.2,0,0.3c0,0.1-0.1,0.2-0.1,0.3
		c0,0.1-0.1,0.2-0.2,0.2c-0.1,0.1-0.1,0.1-0.2,0.2C20.6,45.3,20.5,45.3,20.4,45.3z M20.4,45.1c0.1,0,0.1,0,0.2,0
		c0.1,0,0.1-0.1,0.1-0.1c0,0,0.1-0.1,0.1-0.2c0-0.1,0.1-0.1,0.1-0.2c0-0.1,0-0.2,0-0.3c0-0.1,0-0.1,0-0.2c0-0.1-0.1-0.1-0.1-0.1
		c0,0-0.1-0.1-0.2-0.1c-0.1,0-0.1,0-0.2,0c-0.1,0-0.1,0.1-0.2,0.1c0,0.1-0.1,0.1-0.1,0.2c0,0.1-0.1,0.1-0.1,0.2c0,0.1,0,0.2,0,0.3
		c0,0.1,0,0.2,0.1,0.3C20.2,45,20.3,45.1,20.4,45.1z M0.6,49.3c-0.1,0-0.2,0-0.3-0.1c-0.1,0-0.2-0.1-0.2-0.2C0,49,0,48.8,0,48.7
		c0-0.1,0-0.3,0.1-0.4c0-0.1,0.1-0.2,0.2-0.3c0.1-0.1,0.2-0.2,0.3-0.2c0.1-0.1,0.2-0.1,0.3-0.1c0.1,0,0.3,0,0.3,0.1
		c0.1,0.1,0.1,0.2,0.1,0.3c0,0.1,0,0.2-0.1,0.2c0,0.1-0.1,0.1-0.2,0.2c-0.1,0-0.2,0.1-0.3,0.1c-0.1,0-0.3,0-0.4,0H0.3c0,0,0,0,0,0.1
		c0,0,0,0,0,0.1c0,0.1,0,0.2,0.1,0.3c0.1,0.1,0.2,0.1,0.3,0.1c0.1,0,0.1,0,0.2,0C0.9,49.1,1,49,1.1,49v0.2c-0.1,0-0.1,0.1-0.2,0.1
		C0.8,49.3,0.7,49.3,0.6,49.3z M0.3,48.4L0.3,48.4c0.2,0,0.3,0,0.4,0c0.1,0,0.2-0.1,0.2-0.1C1,48.2,1,48.1,1,48.1C1,48,1,48,1,47.9
		c0,0-0.1-0.1-0.2-0.1c-0.1,0-0.1,0-0.2,0.1c-0.1,0-0.1,0.1-0.2,0.2C0.4,48.2,0.3,48.3,0.3,48.4z M1.9,49.3c-0.1,0-0.2,0-0.2-0.1
		c-0.1,0-0.1-0.1-0.2-0.2s-0.1-0.2-0.1-0.3c0-0.1,0-0.2,0-0.3c0-0.1,0.1-0.2,0.1-0.3c0-0.1,0.1-0.2,0.2-0.2c0.1-0.1,0.1-0.1,0.2-0.2
		c0.1,0,0.2-0.1,0.3-0.1c0.1,0,0.1,0,0.2,0c0.1,0,0.1,0.1,0.1,0.1c0,0,0.1,0.1,0.1,0.1h0l0.1-0.3H3l-0.3,1.6H2.4l0-0.3h0
		c0,0.1-0.1,0.1-0.1,0.2c-0.1,0.1-0.1,0.1-0.2,0.1C2.1,49.3,2,49.3,1.9,49.3z M2,49.1c0.1,0,0.1,0,0.2-0.1c0.1-0.1,0.1-0.1,0.2-0.2
		c0.1-0.1,0.1-0.2,0.1-0.3c0-0.1,0-0.1,0-0.2c0,0,0-0.1,0-0.1c0-0.1,0-0.2-0.1-0.2c-0.1-0.1-0.1-0.1-0.2-0.1c-0.1,0-0.1,0-0.2,0
		C2.1,48,2,48,2,48.1c0,0.1-0.1,0.1-0.1,0.2c0,0.1-0.1,0.2-0.1,0.2c0,0.1,0,0.2,0,0.3c0,0.1,0,0.2,0.1,0.3C1.9,49.1,1.9,49.1,2,49.1
		z M3.5,49.3c-0.1,0-0.2,0-0.3,0c-0.1,0-0.1,0-0.2-0.1V49c0.1,0,0.1,0.1,0.2,0.1c0.1,0,0.2,0,0.2,0c0.1,0,0.1,0,0.2,0
		c0.1,0,0.1-0.1,0.1-0.1c0,0,0-0.1,0-0.1c0,0,0-0.1,0-0.1c0,0,0-0.1-0.1-0.1c0,0-0.1-0.1-0.2-0.1c-0.1,0-0.1-0.1-0.2-0.1
		c-0.1,0-0.1-0.1-0.1-0.1c0-0.1,0-0.1,0-0.2c0-0.1,0-0.2,0.1-0.2c0-0.1,0.1-0.1,0.2-0.2c0.1,0,0.2-0.1,0.3-0.1c0.1,0,0.2,0,0.3,0
		c0.1,0,0.2,0,0.2,0.1L4.2,48c-0.1,0-0.1,0-0.2-0.1c-0.1,0-0.1,0-0.2,0c-0.1,0-0.2,0-0.2,0.1c-0.1,0-0.1,0.1-0.1,0.2
		c0,0,0,0.1,0,0.1c0,0,0,0.1,0.1,0.1c0,0,0.1,0.1,0.2,0.1c0.1,0,0.1,0.1,0.2,0.1C4,48.5,4,48.6,4,48.6c0,0.1,0,0.1,0,0.2
		c0,0.1,0,0.2-0.1,0.3c0,0.1-0.1,0.1-0.2,0.2C3.7,49.3,3.6,49.3,3.5,49.3z M4.4,49.3l0.3-1.6H5l-0.3,1.6H4.4z M4.9,47.4
		C4.9,47.4,4.9,47.4,4.9,47.4c-0.1-0.1-0.1-0.1-0.1-0.1c0,0,0-0.1,0-0.1c0,0,0-0.1,0.1-0.1c0,0,0.1,0,0.1,0c0,0,0.1,0,0.1,0
		c0,0,0,0.1,0,0.1c0,0.1,0,0.1,0,0.1C5,47.4,5,47.4,4.9,47.4z M5.1,49.3L5.6,47h0.2l-0.5,2.3H5.1z M5.9,49.3L6.4,47h0.2l-0.5,2.3
		H5.9z M6.5,50c0,0-0.1,0-0.1,0c0,0-0.1,0-0.1,0v-0.2c0,0,0.1,0,0.1,0c0,0,0.1,0,0.1,0c0.1,0,0.1,0,0.2-0.1c0.1-0.1,0.1-0.1,0.2-0.2
		l0.1-0.2l-0.2-1.6h0.2L7,48.5c0,0.1,0,0.1,0,0.2c0,0.1,0,0.1,0,0.2c0,0.1,0,0.1,0,0.2h0c0,0,0-0.1,0.1-0.1c0-0.1,0.1-0.1,0.1-0.2
		c0-0.1,0.1-0.1,0.1-0.2l0.5-0.9h0.3l-1,1.9c-0.1,0.1-0.1,0.2-0.2,0.2c-0.1,0.1-0.1,0.1-0.2,0.1S6.6,50,6.5,50z M7.8,49.7
		c0-0.1,0.1-0.2,0.1-0.2c0-0.1,0.1-0.2,0.1-0.3c0-0.1,0.1-0.2,0.1-0.2h0.3l0,0c0,0.1-0.1,0.1-0.1,0.2c0,0.1-0.1,0.2-0.1,0.2
		c0,0.1-0.1,0.2-0.1,0.2H7.8z M10.2,49.3c-0.1,0-0.1,0-0.2,0c-0.1,0-0.1-0.1-0.1-0.1c0,0-0.1-0.1-0.1-0.1h0l-0.1,0.3H9.5L10,47h0.2
		l-0.1,0.5c0,0.1,0,0.1,0,0.2c0,0.1,0,0.1,0,0.2c0,0,0,0.1,0,0.1h0c0-0.1,0.1-0.1,0.1-0.2c0.1-0.1,0.1-0.1,0.2-0.1
		c0.1,0,0.1,0,0.2,0c0.1,0,0.2,0,0.2,0.1c0.1,0,0.1,0.1,0.2,0.2c0,0.1,0.1,0.2,0.1,0.3c0,0.1,0,0.2,0,0.3c0,0.1-0.1,0.2-0.1,0.3
		c0,0.1-0.1,0.2-0.2,0.2c-0.1,0.1-0.1,0.1-0.2,0.2C10.4,49.3,10.3,49.3,10.2,49.3z M10.2,49.1c0.1,0,0.1,0,0.2-0.1
		c0.1,0,0.1-0.1,0.2-0.1c0-0.1,0.1-0.1,0.1-0.2c0-0.1,0.1-0.2,0.1-0.2c0-0.1,0-0.2,0-0.3c0-0.1,0-0.2-0.1-0.3c0-0.1-0.1-0.1-0.2-0.1
		c0,0-0.1,0-0.1,0c0,0-0.1,0.1-0.1,0.1c0,0-0.1,0.1-0.1,0.1c0,0.1-0.1,0.1-0.1,0.2c0,0.1-0.1,0.1-0.1,0.2c0,0.1,0,0.2,0,0.2
		c0,0.1,0,0.2,0.1,0.2C10,49.1,10.1,49.1,10.2,49.1z M11.7,49.3c-0.1,0-0.1,0-0.2,0c-0.1,0-0.1-0.1-0.1-0.1c0-0.1,0-0.1,0-0.2
		c0,0,0-0.1,0-0.1c0,0,0-0.1,0-0.1l0.2-1h0.2l-0.2,1c0,0,0,0.1,0,0.1c0,0,0,0.1,0,0.1c0,0.1,0,0.1,0.1,0.2c0,0,0.1,0.1,0.2,0.1
		c0.1,0,0.1,0,0.2-0.1c0.1,0,0.2-0.1,0.2-0.2c0.1-0.1,0.1-0.2,0.2-0.4l0.1-0.7h0.2l-0.3,1.6h-0.2l0-0.3h0c0,0.1-0.1,0.1-0.1,0.2
		c-0.1,0.1-0.1,0.1-0.2,0.1C11.9,49.3,11.8,49.3,11.7,49.3z M13.4,49.3c-0.1,0-0.2,0-0.3-0.1C13,49.2,13,49.1,13,49c0,0,0-0.1,0-0.1
		c0,0,0-0.1,0-0.1l0.2-0.9H13l0-0.1l0.3-0.1l0.2-0.3h0.1l-0.1,0.4h0.4l0,0.2h-0.4l-0.2,0.9c0,0,0,0.1,0,0.1c0,0,0,0.1,0,0.1
		c0,0,0,0.1,0,0.1c0,0,0.1,0,0.1,0c0,0,0.1,0,0.1,0c0,0,0.1,0,0.1,0v0.2c0,0-0.1,0-0.1,0C13.5,49.3,13.4,49.3,13.4,49.3z M14.7,49.3
		l0.4-2.1h0.2L15,49.3H14.7z M16.9,49.3c-0.1,0-0.2,0-0.3-0.1c-0.1,0-0.2-0.1-0.2-0.2c0-0.1-0.1-0.2-0.1-0.3c0-0.1,0-0.2,0-0.3
		c0-0.1,0.1-0.2,0.1-0.3c0-0.1,0.1-0.2,0.2-0.2c0.1-0.1,0.1-0.1,0.2-0.2c0.1,0,0.2-0.1,0.3-0.1c0.1,0,0.1,0,0.2,0
		c0.1,0,0.1,0,0.2,0.1L17.5,48c0,0-0.1,0-0.1-0.1c-0.1,0-0.1,0-0.2,0c-0.1,0-0.2,0-0.2,0.1c-0.1,0-0.1,0.1-0.2,0.2
		c-0.1,0.1-0.1,0.2-0.1,0.3c0,0.1,0,0.2,0,0.3c0,0.1,0,0.2,0,0.2c0,0.1,0.1,0.1,0.1,0.1c0.1,0,0.1,0,0.2,0c0.1,0,0.1,0,0.2,0
		c0.1,0,0.1,0,0.2-0.1v0.2c-0.1,0-0.1,0-0.2,0.1C17,49.3,17,49.3,16.9,49.3z M18.1,49.3c-0.1,0-0.2,0-0.2-0.1
		c-0.1,0-0.1-0.1-0.2-0.2c0-0.1-0.1-0.2-0.1-0.3c0-0.1,0-0.2,0-0.3c0-0.1,0.1-0.2,0.1-0.3c0-0.1,0.1-0.2,0.2-0.2
		c0.1-0.1,0.1-0.1,0.2-0.2c0.1,0,0.2-0.1,0.3-0.1c0.1,0,0.1,0,0.2,0c0.1,0,0.1,0.1,0.1,0.1c0,0,0.1,0.1,0.1,0.1h0l0.1-0.3h0.2
		l-0.3,1.6h-0.2l0-0.3h0c0,0.1-0.1,0.1-0.1,0.2c-0.1,0.1-0.1,0.1-0.2,0.1C18.2,49.3,18.2,49.3,18.1,49.3z M18.2,49.1
		c0.1,0,0.1,0,0.2-0.1c0.1-0.1,0.1-0.1,0.2-0.2c0.1-0.1,0.1-0.2,0.1-0.3c0-0.1,0-0.1,0-0.2c0,0,0-0.1,0-0.1c0-0.1,0-0.2-0.1-0.2
		c-0.1-0.1-0.1-0.1-0.2-0.1c-0.1,0-0.1,0-0.2,0c-0.1,0-0.1,0.1-0.2,0.1c0,0.1-0.1,0.1-0.1,0.2c0,0.1-0.1,0.2-0.1,0.2
		c0,0.1,0,0.2,0,0.3c0,0.1,0,0.2,0.1,0.3C18,49.1,18.1,49.1,18.2,49.1z M19.3,49.3l0.3-1.6h0.2l0,0.3h0c0-0.1,0.1-0.1,0.1-0.2
		c0.1-0.1,0.1-0.1,0.2-0.1c0.1,0,0.1-0.1,0.2-0.1c0.1,0,0.2,0,0.2,0c0.1,0,0.1,0.1,0.1,0.1c0,0.1,0,0.1,0,0.2c0,0,0,0.1,0,0.1
		c0,0,0,0.1,0,0.1l-0.2,1h-0.3l0.2-1c0,0,0-0.1,0-0.1c0,0,0-0.1,0-0.1c0-0.1,0-0.1-0.1-0.2c0,0-0.1-0.1-0.2-0.1
		c-0.1,0-0.1,0-0.2,0.1s-0.2,0.1-0.2,0.2c-0.1,0.1-0.1,0.2-0.2,0.4l-0.1,0.7H19.3z"/>
	<path d="M5.8,2.7V0.2h0.5v2.5H5.8z M8,0.7c0.2,0,0.4,0.1,0.5,0.2C8.6,1,8.7,1.2,8.7,1.5v1.3H8.2V1.6c0-0.1,0-0.2-0.1-0.3
		C8,1.2,8,1.2,7.8,1.2c-0.2,0-0.3,0.1-0.3,0.2C7.5,1.4,7.4,1.6,7.4,1.8v0.9H6.9V0.8h0.4L7.4,1h0c0-0.1,0.1-0.1,0.2-0.2
		c0.1,0,0.1-0.1,0.2-0.1C7.8,0.8,7.9,0.7,8,0.7z M9.8,3.6c-0.3,0-0.5,0-0.6-0.1C9,3.3,9,3.2,9,3c0-0.1,0-0.2,0.1-0.3
		c0.1-0.1,0.2-0.1,0.3-0.2c-0.1,0-0.1-0.1-0.1-0.1c0-0.1-0.1-0.1-0.1-0.2c0-0.1,0-0.1,0.1-0.2c0,0,0.1-0.1,0.2-0.1
		c-0.1,0-0.2-0.1-0.2-0.2C9.1,1.7,9.1,1.5,9.1,1.4c0-0.1,0-0.3,0.1-0.4C9.3,1,9.4,0.9,9.5,0.8c0.1-0.1,0.3-0.1,0.4-0.1
		c0,0,0.1,0,0.1,0c0,0,0.1,0,0.1,0c0,0,0.1,0,0.1,0h0.7v0.3l-0.3,0.1c0,0,0,0.1,0.1,0.1c0,0,0,0.1,0,0.2c0,0.2-0.1,0.4-0.2,0.5
		C10.3,2,10.1,2.1,9.9,2.1c-0.1,0-0.1,0-0.2,0c0,0,0,0-0.1,0.1c0,0,0,0,0,0.1c0,0,0,0,0,0.1c0,0,0.1,0,0.1,0c0,0,0.1,0,0.2,0h0.3
		c0.2,0,0.4,0,0.5,0.1c0.1,0.1,0.2,0.2,0.2,0.4c0,0.2-0.1,0.4-0.3,0.5C10.4,3.5,10.2,3.6,9.8,3.6z M9.8,3.2c0.1,0,0.2,0,0.3,0
		c0.1,0,0.2-0.1,0.2-0.1c0,0,0.1-0.1,0.1-0.2c0,0,0-0.1,0-0.1c0,0-0.1,0-0.1-0.1c-0.1,0-0.1,0-0.2,0H9.8c-0.1,0-0.1,0-0.2,0
		c-0.1,0-0.1,0-0.1,0.1c0,0,0,0.1,0,0.1c0,0.1,0,0.1,0.1,0.2C9.6,3.2,9.7,3.2,9.8,3.2z M9.9,1.8c0.1,0,0.2,0,0.2-0.1
		c0-0.1,0.1-0.1,0.1-0.2c0-0.1,0-0.2-0.1-0.3c0-0.1-0.1-0.1-0.2-0.1c-0.1,0-0.2,0-0.2,0.1c0,0.1-0.1,0.1-0.1,0.3
		c0,0.1,0,0.2,0.1,0.2C9.7,1.7,9.8,1.8,9.9,1.8z M11.8,2.7h-0.5V0h0.5V2.7z M13.1,0.7c0.2,0,0.3,0,0.5,0.1c0.1,0.1,0.2,0.2,0.3,0.3
		C14,1.3,14,1.4,14,1.6v0.3h-1.3c0,0.1,0.1,0.3,0.1,0.4c0.1,0.1,0.2,0.1,0.4,0.1c0.1,0,0.2,0,0.3,0c0.1,0,0.2-0.1,0.3-0.1v0.4
		c-0.1,0-0.2,0.1-0.3,0.1c-0.1,0-0.2,0-0.4,0c-0.2,0-0.4,0-0.5-0.1c-0.1-0.1-0.3-0.2-0.4-0.3c-0.1-0.1-0.1-0.3-0.1-0.6
		c0-0.2,0-0.4,0.1-0.6c0.1-0.2,0.2-0.3,0.3-0.3C12.8,0.8,12.9,0.7,13.1,0.7z M13.1,1.1c-0.1,0-0.2,0-0.3,0.1
		c-0.1,0.1-0.1,0.2-0.1,0.3h0.7c0-0.1,0-0.1,0-0.2c0-0.1-0.1-0.1-0.1-0.1C13.3,1.1,13.2,1.1,13.1,1.1z M13.4,0
		c0,0.1,0.1,0.1,0.1,0.2c0.1,0.1,0.1,0.1,0.2,0.2c0.1,0.1,0.1,0.1,0.1,0.2v0h-0.4c-0.1,0-0.1-0.1-0.2-0.1c-0.1-0.1-0.1-0.1-0.2-0.2
		C13,0.3,13,0.4,12.9,0.4c-0.1,0-0.1,0.1-0.2,0.1h-0.4v0c0,0,0.1-0.1,0.2-0.2c0.1-0.1,0.1-0.1,0.2-0.2c0.1-0.1,0.1-0.1,0.1-0.2H13.4
		z M15.8,2.1c0,0.1,0,0.2-0.1,0.3c-0.1,0.1-0.2,0.2-0.3,0.2c-0.1,0-0.3,0.1-0.5,0.1c-0.1,0-0.3,0-0.3,0c-0.1,0-0.2,0-0.3-0.1V2.2
		c0.1,0,0.2,0.1,0.3,0.1c0.1,0,0.2,0,0.3,0c0.1,0,0.2,0,0.2,0c0,0,0.1-0.1,0.1-0.1c0,0,0-0.1,0-0.1c0,0-0.1-0.1-0.1-0.1
		C15.1,2,15,2,14.8,1.9c-0.1-0.1-0.2-0.1-0.3-0.2c-0.1-0.1-0.1-0.1-0.2-0.2c0-0.1-0.1-0.2-0.1-0.3c0-0.2,0.1-0.3,0.2-0.4
		c0.1-0.1,0.3-0.1,0.6-0.1c0.1,0,0.2,0,0.3,0c0.1,0,0.2,0.1,0.3,0.1l-0.2,0.4c-0.1,0-0.2-0.1-0.3-0.1c-0.1,0-0.2,0-0.3,0
		c-0.1,0-0.1,0-0.2,0c0,0-0.1,0.1-0.1,0.1c0,0,0,0.1,0,0.1c0,0,0.1,0.1,0.1,0.1c0.1,0,0.1,0.1,0.3,0.1c0.1,0,0.2,0.1,0.3,0.1
		c0.1,0,0.1,0.1,0.2,0.2C15.8,1.9,15.8,2,15.8,2.1z"/>
	<rect x="10.1" y="12.3" class="st1" width="0.6" height="27.4"/>
	<path class="st1" d="M15.9,20.4c0,2-1.7,3.7-3.7,3.7H9c-2,0-3.7-1.7-3.7-3.7v-0.1c0-2,1.7-3.7,3.7-3.7h3.2
		C14.3,16.6,15.9,18.2,15.9,20.4L15.9,20.4z M12.2,21.6c0.7,0,1.3-0.6,1.3-1.3v-0.1c0-0.7-0.6-1.3-1.3-1.3H9c-0.7,0-1.3,0.6-1.3,1.3
		v0.1c0,0.7,0.6,1.3,1.3,1.3H12.2z"/>
	<path class="st2" d="M15.1,18.5C13,17,8.5,18.4,8.4,18.6c0.5,0.1,0.8,0,0.8,0h3c0.9,0,1.7,0.7,1.7,1.6v0.1c0,0.9-0.8,1.6-1.7,1.6H9
		c-0.9,0-1.7-0.7-1.7-1.6l0-0.1c0-0.5-0.4-0.7-0.8-0.7c-0.8,0-0.8,0.7-0.8,0.7c0,0,0,0.1,0,0.1c0,1.9,1.5,3.4,3.4,3.4h3.2
		c1.9,0,3.4-1.5,3.4-3.4v-0.1C15.6,19.6,15.4,19,15.1,18.5z"/>
</g>
</svg>
