<?xml version="1.0" encoding="utf-8"?>
<!-- Generator: Adobe Illustrator 27.9.0, SVG Export Plug-In . SVG Version: 6.00 Build 0)  -->
<svg version="1.1" id="Layer_1" xmlns="http://www.w3.org/2000/svg" xmlns:xlink="http://www.w3.org/1999/xlink" x="0px" y="0px"
	 viewBox="0 0 51 51" style="enable-background:new 0 0 51 51;" xml:space="preserve">
<style type="text/css">
	.st0{fill:url(#SVGID_1_);}
</style>
<linearGradient id="SVGID_1_" gradientUnits="userSpaceOnUse" x1="25.5" y1="-5.712536e-09" x2="25.5" y2="34.0817">
	<stop  offset="0" style="stop-color:#76BF43"/>
	<stop  offset="0.9939" style="stop-color:#CAE1A3"/>
</linearGradient>
<path class="st0" d="M51,25.4c0,3.8,0,7.5,0,11.3c0,7.9-6,14.1-14,14.2c-7.7,0.1-15.3,0.1-23,0C6,50.8,0,44.7,0,36.7
	c0-7.4,0-14.9,0-22.3C0,6.1,6.1,0,14.4,0c7.5,0,15,0,22.4,0C44.8,0,51,6.2,51,14.1C51,17.9,51,21.7,51,25.4z M46.5,25.5
	c0-3.7,0-7.3,0-11c0-6-4-10-10-10c-7.3,0-14.6,0-21.9,0c-5.9,0-10,4.1-10,10c0,7.3,0,14.6,0,22c0,5.9,4.1,10,10,10
	c7.3,0,14.7,0,22,0c5.9,0,9.9-4.1,9.9-9.9C46.5,32.9,46.5,29.2,46.5,25.5z M12.4,25.3c0.1-7.2,6-13,13.2-13
	c7.2,0.1,13.2,6.1,13.1,13.2c-0.1,7.4-6,13.1-13.5,13.1C18.1,38.5,12.3,32.5,12.4,25.3z M16.9,25.5c0,4.8,3.8,8.6,8.6,8.6
	c4.7,0,8.6-3.9,8.7-8.6c0-4.7-3.9-8.6-8.7-8.6C20.7,16.9,16.9,20.7,16.9,25.5z M39.1,8.5c1.8,0,3.4,1.5,3.4,3.2
	c0,1.8-1.4,3.3-3.2,3.3c-1.9,0-3.4-1.4-3.4-3.2C35.9,10.1,37.3,8.6,39.1,8.5z"/>
</svg>
