<?xml version="1.0" encoding="utf-8"?>
<!-- Generator: Adobe Illustrator 27.9.0, SVG Export Plug-In . SVG Version: 6.00 Build 0)  -->
<svg version="1.1" id="Layer_1" xmlns="http://www.w3.org/2000/svg" xmlns:xlink="http://www.w3.org/1999/xlink" x="0px" y="0px"
	 viewBox="0 0 85 85" style="enable-background:new 0 0 85 85;" xml:space="preserve">
<style type="text/css">
	.st0{fill:#5C5C5C;}
</style>
<g>
	<path class="st0" d="M-0.2,27.1c0-9,0-18,0-27c12.3,0,24.7,0,37,0c0,1.3,0,2.7,0,4C36.7,4.8,37.3,6,36,6c-0.7,0-1.4-0.7-1.9-1.2
		C33.5,4.2,33.9,3,32.3,3C22.6,3.2,12.8,3.1,3,3.1c0,7.5,0,14.8,0,22c1.9,0,3.6,0.2,5.2,0c3.6-0.5,6.4,0.6,8.6,3.6
		c0.1,0.2,0.4,0.2,0.7,0.3c0.7-3.2,1-3.9,2.8-3.7c2.5,0.3,3.2-1.6,3.4-3c0.2-1.5,1-2.3,1.8-3.3c2.2-2.6,5-3.2,8.1-2.8
		c0.9-2.6-1.2-6.1,3.2-7.2c0,2.5,0,4.8,0,7.2c2.2,0,4,0,5.8,0c1.8,0,3.5-0.1,5.3-0.1c0-5.5,0-10.7,0-15.9c12.3,0,24.7,0,37,0
		c0,9,0,18,0,27c-1.3,1.2-3,1-4.6,1c-2.5,0-5.2-0.7-7.4,0.2c-2.1,0.8-3.8,3.1-5.5,4.8c-1.1,1.1-2.1,1.4-3.6,0.5c0-1.7,0-3.5,0-5.6
		c-1.1,0.1-2,0.1-2.9,0.1c0,1.7,0.1,3,0,4.3c0,0.5-0.4,1.1-0.7,1.6c-0.5-0.3-1.3-0.4-1.6-0.9c-0.4-0.6-0.9-1.8-0.6-2.1
		c2.1-2.3-1-3.9,0-6.4c-3.5,2.6-3.1,5.8-3.1,8.9c0,4.1,0,4.1,3,8.5c0-1.6-0.1-2.9,0-4.2c0.1-0.9,1.1-1.1,1.8-0.4
		c0.7,0.6,1.7,1.2,0.9,2.4c-0.3,0.5-1.2,0.8,0,1.2c0.9,0.3,1.7,0.7,2.6,0.9c2.4,0.3,2.5,1.9,2.7,3.8c0.3,4.4-1.5,7.4-5.5,9.1
		c-1,0.4-1.4,0.6-1.7,1.8c-1,4.1-1.2,4.1-3.9,6.9c-0.3,0.4-0.7,0.7-1.1,1.1c-2.1,2.4-1.1,7.5,1.9,8.8c1.7,0.7,3.5,1.2,5.3,1.7
		c4.8,1.2,9.6,2,12.9,6.4c0.9,1.3,0.9,2.3,1,3.6c-21.7,0-43.3,0-65,0c-0.2-2.4,0.8-4.4,2.5-5.9c1.2-1.1,8.5-3.9,9.9-3.8
		c0.5,0,1,0.6,1.4,1.1c0.1,0.1-0.3,0.8-0.6,1c-0.9,0.6-2,1.7-2.8,1.6c-2.8-0.5-4.2,1.8-6.3,2.7c0.3,0.1,0.5,0.4,0.8,0.4
		c18.5,0,37,0,55.5,0c0.1,0,0.3-0.1,0.4-0.2c0.1-0.1,0.1-0.2,0.2-0.3c-1.5-0.8-2.9-1.8-4.5-2.3c-1.8-0.6-4-0.3-5.5-1.2
		c-1.6-1-3.4-0.2-4.5-1.1c-1.8-1.4-3-0.9-4.2,0.6c-2.6,3.2-6.7,2.4-10,3.7c-2.9-1.6-6.5-0.9-9.2-3.3c-1.1-1-2.9-3.1-4.8-0.7
		c-0.4-0.3-1.1-0.7-1.2-1.1c-0.2-0.9-0.2-1.6,1.2-2.1c2.5-0.8,3.8-2.7,3.8-5.7c0-2-0.6-3.4-2-4.7c-2.2-1.9-4.3-4-4.1-7.3
		c0-0.4-0.6-0.8-1.1-1.2c-0.5-0.4-1-0.8-1.6-1c-4.3-1.7-4.6-5.4-4.3-9.2c0.2-3.1,2.7-3.4,5.1-3.8c1.3-0.2,0.4-0.6,0.2-1.2
		c-0.3-1.1-0.3-2.2-0.4-3.4c0-2.8,0-5.6,0-8.3c-1.2,0-2,0-3.1,0c0,2,0,3.9,0,5.7c-1.8,0.4-2.8,0-3.8-1.2c-1.4-1.6-2.8-3.7-4.6-4.4
		c-2-0.8-4.6-0.2-6.9-0.2C3.5,28.1,1.5,28.5-0.2,27.1z M32.7,32.4c0.7,4.1-1.7,7.5-2.9,11.2c-2.6,1.4-2,3.9-2,6.2c0,1.2,0,2.3,0,3.5
		c-0.2,4.2,2.4,7,4.8,9.8c2.2,2.6,5.8,2.8,8.8,3.9c1.1,0.4,2.7-0.9,4-0.8c3.1,0.2,4.5-2.7,7.1-3.4c1.4-2.8,3.6-5.4,4-8.3
		c0.5-3.8,1.1-8-1.8-11.7c-2.9-3.6-3.4-8.1-3-12.9c-3.5,0.4-6.5,0.8-9.5,1.2C39.4,31.5,36.4,31.9,32.7,32.4z M50.8,3.1
		c0,4,0.1,7.5,0,11c0,1.8,0.7,2.7,2.4,3c2.5,0.5,3.9,2.1,4.6,4.4c0.2,0.7,0.2,1.2,1.1,1.7c1.7,0.8,3,2.3,5.2,1.9
		c1.8-0.3,2.7,0.8,2.7,2.6c0,0.4,0.2,0.9,0.5,1.8c2.3-4.3,5.8-5,9.8-4.5c1.5,0.2,2.9,0,4.5,0c0-7.4,0-14.6,0-22c-1.8,0-3.5,0-5.1,0
		C68.1,3.1,59.6,3.1,50.8,3.1z M27.1,42.6c1.8-3.4,3.1-6.3,2.7-9.6c-0.2-2.4,1.1-3.7,3.5-3.8c2-0.1,4.4,0.7,5.9-0.2
		c2-1.2,3.8-0.5,5.7-0.8c1.8-0.4,3.7-0.9,5.6-0.9c1.5,0,2.4-0.6,3.4-1.5c0.8-0.8,1-1.6,1-2.6c-0.1-2.3-1.8-3.9-4.5-3.9
		c-6.1,0-12.3,0-18.4,0c-4.3,0-6.1,1.7-6,5.9c0.1,2.7,0.7,5.4,0.9,8.1C27,36,27,39,27.1,42.6z M32.7,74.7c0.4,0.2,0.9,0.2,1.3,0.5
		c5.4,3.4,7.6,3.8,13.8,1.9c1.4-0.4,3-1.4,3.8-2.5c0.4-0.5-0.8-2.2-1.2-3.3c-0.3-0.7-0.3-1.5-0.7-2.2c-0.2-0.4-1-1-1.3-0.9
		c-5.7,1.3-9.3,1.3-13.1,0C34.5,70.1,33.7,72.1,32.7,74.7z M24.6,53c0-3.6,0-6.2,0-8.7c-4,0.3-4.6,1.1-3,4.2
		C22.3,49.7,23.3,50.9,24.6,53z M60,44.2c0,2.8,0,5.3,0,8.7c1.3-2,2-3.5,3.1-4.5c1.6-1.4,0-2.2-0.2-3.3C62.5,43.2,61.1,44.3,60,44.2
		z"/>
	<path class="st0" d="M22.8,11.1c-0.1,0.2-0.4,0.6-0.6,1c-0.8,1.5-1.5,3.1-2.5,4.4c-0.4,0.5-1.7,0.3-2.6,0.4
		c-0.1-0.8-0.5-1.7-0.2-2.3c0.4-0.8,1.4-1.4,2-2.2c0.4-0.6,0.5-1.3,0.7-2c-1-0.3-2.4-1-2.7,0.6c-0.3,1.6-1.4,1-2.2,1.1
		c-0.3,0-0.9-0.7-0.8-0.9c0.5-1.1,0.9-2.4,1.7-3.2c0.6-0.6,1.7-0.8,2.6-0.8C20.5,7,22.6,8.7,22.8,11.1z"/>
	<path class="st0" d="M20,19.7c-0.9,0.5-1.7,1-2.5,1.3c-0.1,0-0.7-0.8-0.7-0.9c0.5-0.7,1.1-1.3,1.6-1.9C18.9,18.7,19.4,19.1,20,19.7
		z"/>
	<path class="st0" d="M42.6,55.1c2.7,0,5.3-0.1,8,0.1c0.7,0,1.4,0.7,1.9,1.2c0.1,0.1-0.5,0.9-0.7,1.4C51,60,50,62,47.6,63.2
		c-6.3,3.1-13.2,0.4-15.4-6.2c-0.1-0.4,0.5-1.5,0.9-1.7c0.9-0.3,1.9-0.2,2.9-0.2C38.3,55.1,40.4,55.1,42.6,55.1z M35.6,58.2
		c2,2.3,3.8,4.3,6.6,3.8c2.4-0.4,5.2-0.8,6.6-3.8C44.4,58.2,40.3,58.2,35.6,58.2z"/>
	<path class="st0" d="M44.8,44.3c0,2.1-0.2,3.2,0,4.3c0.4,2.2-1.2,3.3-2.5,4.4c-0.4,0.4-1.8,0.2-2.2-0.2c-0.4-0.4-0.2-2.2-0.1-2.2
		c2.4-0.4,1.5-2.3,1.9-3.7C42.2,46,43.3,45.5,44.8,44.3z"/>
	<path class="st0" d="M67.8,16c-1.1,0-1.9,0-2.8,0c0-2.9,0-5.8,0-8.7c2.8,0,2.8,0,2.8,1.8C67.8,11.4,67.8,13.6,67.8,16z"/>
	<path class="st0" d="M68.6,20.3c-1.1,0.4-1.6,0.8-2,0.8c-0.7,0-1.9,0.3-1.7-0.9c0.1-0.7,0.8-1.2,1.3-1.9
		C66.8,18.8,67.4,19.3,68.6,20.3z"/>
</g>
</svg>
