<?xml version="1.0" encoding="utf-8"?>
<!-- Generator: Adobe Illustrator 27.8.1, SVG Export Plug-In . SVG Version: 6.00 Build 0)  -->
<svg version="1.1" id="Layer_1" xmlns="http://www.w3.org/2000/svg" xmlns:xlink="http://www.w3.org/1999/xlink" x="0px" y="0px"
	 viewBox="0 0 34 49" style="enable-background:new 0 0 34 49;" xml:space="preserve">
<style type="text/css">
	.st0{fill-rule:evenodd;clip-rule:evenodd;fill:url(#SVGID_1_);}
	.st1{fill-rule:evenodd;clip-rule:evenodd;fill:url(#SVGID_00000009549508067459624730000014632731200275064754_);}
	.st2{fill-rule:evenodd;clip-rule:evenodd;fill:url(#SVGID_00000106848974480688405830000011174926108042054531_);}
	.st3{fill-rule:evenodd;clip-rule:evenodd;fill:url(#SVGID_00000103230829020392878000000018180635484424431787_);}
	.st4{fill-rule:evenodd;clip-rule:evenodd;fill:url(#SVGID_00000045596134204691853060000004648876678705545897_);}
</style>
<linearGradient id="SVGID_1_" gradientUnits="userSpaceOnUse" x1="13.8155" y1="7.8535" x2="13.8155" y2="3.6417" gradientTransform="matrix(1 0 0 -1 0 50)">
	<stop  offset="0" style="stop-color:#67DD0A"/>
	<stop  offset="0.9937" style="stop-color:#CAEAA4"/>
</linearGradient>
<path class="st0" d="M0,48.4c-0.1-3,2.4-6,5.4-6.2c0.4,0,0.8-0.1,1.2-0.1c6.8,0,13.6,0,20.3,0c0.2,0,0.4,0,0.6,0c0,0.4,0,0.8,0,1.1
	c0,1.1,0,2.1,0,3.2c0,0.9-0.2,1.6-1.1,2C17.7,48.4,8.8,48.4,0,48.4z"/>
<linearGradient id="SVGID_00000107557899625486419180000015912962648260797114_" gradientUnits="userSpaceOnUse" x1="17.9401" y1="50" x2="17.9401" y2="22.9885" gradientTransform="matrix(1 0 0 -1 0 50)">
	<stop  offset="0" style="stop-color:#67DD0A"/>
	<stop  offset="0.9937" style="stop-color:#CAEAA4"/>
</linearGradient>
<path style="fill-rule:evenodd;clip-rule:evenodd;fill:url(#SVGID_00000107557899625486419180000015912962648260797114_);" d="
	M29.5,33.9c0.4,0.6,0.8,1.2,1,1.7c0.9,2.6-1.3,4.8-3.4,4.8c-7,0-14,0-21,0c-0.1,0-0.2,0-0.4,0c0-2.2,0-4.4,0-6.7c2.4,0,4.7,0,7.1,0
	c0,0.1,0,0.3,0,0.4c0.1,0.8,0.6,1.3,1.4,1.4c1.7,0,3.4,0.1,5.1,0c0.6,0,1.2-0.3,1.8-0.6c5.2-2.3,8.1-7.7,7.3-13.4
	c-0.6-3.9-2.7-6.9-6-8.9c-0.1,0-0.2-0.1-0.3-0.2c0.3,1.1,0.2,2.2-0.3,3.1c-0.6,1-1.4,1.6-2.5,1.8c-1.7,0.3-3.7-0.4-4.5-2.8
	c-0.1,0.2-0.2,0.3-0.3,0.4c-1.1,1.8-2.2,3.5-3.4,5.3c-0.7,1.1-1.5,1.3-2.6,0.6c-0.2-0.1-0.4-0.3-0.7-0.4c-0.4,0.6-0.7,1.1-1.1,1.6
	c-0.7,1.1-1.4,1.2-2.5,0.6c-1.4-0.8-1.7-1.7-0.7-3.1c0.3-0.4,0.5-0.8,0.8-1.3c-0.3-0.2-0.6-0.4-0.9-0.6c-0.8-0.6-1-1.4-0.5-2.2
	c3.1-4.9,6.2-9.7,9.4-14.6c0.6-0.9,1.4-1,2.2-0.5c1.8,1.1,3.5,2.2,5.2,3.4c0.8,0.5,1,1.4,0.5,2.2c-0.8,1.2-1.5,2.4-2.3,3.6
	c-0.1,0.1-0.2,0.3-0.2,0.4C18.4,9.9,19,10,19.6,10c0.1,0,0.2-0.1,0.3-0.2c0.3-0.5,0.6-1,0.9-1.4c0.5-0.7,1.2-0.9,2.1-0.6
	c4.1,1.8,7,4.8,8.8,8.9c1.4,3.1,1.7,6.4,1.1,9.7c-0.5,2.6-1.5,5-3.1,7.2C29.7,33.7,29.6,33.8,29.5,33.9C29.5,34,29.5,34,29.5,33.9z
	 M19.9,13.7c0-0.7-0.6-1.4-1.4-1.3c-0.7,0-1.4,0.6-1.3,1.4c0,0.7,0.6,1.3,1.4,1.3C19.3,15,19.9,14.4,19.9,13.7z M27.1,38.1
	c0.7,0,1.2-0.6,1.2-1.3c0-0.7-0.6-1.2-1.3-1.2c-0.7,0-1.3,0.6-1.3,1.3C25.8,37.5,26.4,38.1,27.1,38.1z"/>
<linearGradient id="SVGID_00000123403439894375377140000011451723178136163230_" gradientUnits="userSpaceOnUse" x1="9.3652" y1="20.5139" x2="9.3652" y2="18.8628" gradientTransform="matrix(1 0 0 -1 0 50)">
	<stop  offset="0" style="stop-color:#67DD0A"/>
	<stop  offset="0.9937" style="stop-color:#CAEAA4"/>
</linearGradient>
<path style="fill-rule:evenodd;clip-rule:evenodd;fill:url(#SVGID_00000123403439894375377140000011451723178136163230_);" d="
	M9.4,29.5c2.7,0,5.3,0,8,0c1.2,0,1.4,0.7,1.3,1.6c-0.1,0.5-0.4,0.8-0.9,0.9c-0.2,0-0.3,0-0.5,0C12,32,6.7,32,1.4,32
	c-1.1,0-1.5-0.6-1.3-1.6c0.1-0.5,0.4-0.7,0.9-0.8c0.3,0,0.6,0,0.9,0C4.4,29.5,6.9,29.5,9.4,29.5z"/>
<linearGradient id="SVGID_00000150099537878883697480000018202620002706859650_" gradientUnits="userSpaceOnUse" x1="18.5431" y1="37.6794" x2="18.5431" y2="35.8579" gradientTransform="matrix(1 0 0 -1 0 50)">
	<stop  offset="0" style="stop-color:#67DD0A"/>
	<stop  offset="0.9937" style="stop-color:#CAEAA4"/>
</linearGradient>
<path style="fill-rule:evenodd;clip-rule:evenodd;fill:url(#SVGID_00000150099537878883697480000018202620002706859650_);" d="
	M19.9,13.7c0,0.7-0.6,1.4-1.3,1.4c-0.8,0-1.4-0.6-1.4-1.3c0-0.8,0.6-1.4,1.3-1.4C19.3,12.3,19.9,12.9,19.9,13.7z"/>
<linearGradient id="SVGID_00000044872524731883756690000010844837755350392743_" gradientUnits="userSpaceOnUse" x1="27.093" y1="14.459" x2="27.093" y2="12.7679" gradientTransform="matrix(1 0 0 -1 0 50)">
	<stop  offset="0" style="stop-color:#67DD0A"/>
	<stop  offset="0.9937" style="stop-color:#CAEAA4"/>
</linearGradient>
<path style="fill-rule:evenodd;clip-rule:evenodd;fill:url(#SVGID_00000044872524731883756690000010844837755350392743_);" d="
	M27.1,38.1c-0.7,0-1.3-0.5-1.3-1.3c0-0.7,0.6-1.3,1.3-1.3c0.7,0,1.3,0.6,1.3,1.2C28.4,37.5,27.8,38.1,27.1,38.1z"/>
</svg>
