<?xml version="1.0" encoding="utf-8"?>
<!-- Generator: Adobe Illustrator 27.9.0, SVG Export Plug-In . SVG Version: 6.00 Build 0)  -->
<svg version="1.1" id="Layer_1" xmlns="http://www.w3.org/2000/svg" xmlns:xlink="http://www.w3.org/1999/xlink" x="0px" y="0px"
	 viewBox="0 0 17.7 50" style="enable-background:new 0 0 17.7 50;" xml:space="preserve">
<style type="text/css">
	.st0{fill:#575757;}
	.st1{fill:#404140;}
	.st2{fill:#DADADA;}
</style>
<g>
	<path d="M0.8,0.2c0.3,0,0.6,0.1,0.7,0.2C1.7,0.5,1.8,0.7,1.8,1c0,0.1,0,0.2-0.1,0.3c0,0.1-0.1,0.2-0.2,0.3C1.5,1.6,1.4,1.7,1.2,1.8
		C1.1,1.8,1,1.8,0.8,1.8H0.5v0.9H0V0.2H0.8z M0.8,0.6H0.5v0.8h0.2c0.1,0,0.2,0,0.3,0c0.1,0,0.1-0.1,0.2-0.1c0-0.1,0.1-0.1,0.1-0.2
		c0-0.1,0-0.2-0.1-0.3C1,0.7,0.9,0.6,0.8,0.6z M4,1.7c0,0.2,0,0.3-0.1,0.4c0,0.1-0.1,0.2-0.2,0.3C3.6,2.6,3.5,2.6,3.4,2.7
		C3.3,2.7,3.2,2.8,3,2.8c-0.1,0-0.3,0-0.4-0.1c-0.1,0-0.2-0.1-0.3-0.2C2.3,2.4,2.2,2.3,2.1,2.2c0-0.1-0.1-0.3-0.1-0.4
		c0-0.2,0-0.4,0.1-0.5c0.1-0.1,0.2-0.3,0.3-0.3C2.7,0.8,2.8,0.7,3,0.7c0.2,0,0.3,0,0.5,0.1c0.1,0.1,0.3,0.2,0.3,0.3
		C3.9,1.4,4,1.5,4,1.7z M2.6,1.7c0,0.1,0,0.2,0,0.3c0,0.1,0.1,0.2,0.1,0.2c0.1,0,0.1,0.1,0.2,0.1c0.1,0,0.2,0,0.2-0.1
		c0.1,0,0.1-0.1,0.1-0.2c0-0.1,0-0.2,0-0.3c0-0.1,0-0.2,0-0.3c0-0.1-0.1-0.1-0.1-0.2C3.2,1.2,3.1,1.2,3,1.2c-0.1,0-0.2,0-0.3,0.1
		C2.6,1.4,2.6,1.6,2.6,1.7z M5.5,0.7C5.5,0.7,5.5,0.7,5.5,0.7c0.1,0,0.2,0,0.2,0l0,0.5c0,0,0,0-0.1,0c0,0-0.1,0-0.1,0
		c-0.1,0-0.1,0-0.2,0c-0.1,0-0.1,0-0.2,0.1C5,1.4,5,1.4,5,1.5c0,0.1,0,0.1,0,0.2v1H4.4V0.8h0.4l0.1,0.3h0C4.9,1,5,1,5,0.9
		c0.1-0.1,0.1-0.1,0.2-0.1C5.3,0.8,5.4,0.7,5.5,0.7z M6.8,2.3c0.1,0,0.1,0,0.2,0c0.1,0,0.1,0,0.2,0v0.4c-0.1,0-0.1,0-0.2,0.1
		c-0.1,0-0.2,0-0.3,0c-0.1,0-0.2,0-0.3-0.1c-0.1,0-0.2-0.1-0.2-0.2C6.1,2.4,6.1,2.3,6.1,2.1V1.2H5.8V1l0.3-0.2l0.2-0.4h0.3v0.4h0.5
		v0.4H6.6v0.9c0,0.1,0,0.1,0.1,0.2C6.7,2.3,6.8,2.3,6.8,2.3z M9.3,0.8v1.9H8.9L8.8,2.5h0c0,0.1-0.1,0.1-0.2,0.2
		c-0.1,0-0.1,0.1-0.2,0.1c-0.1,0-0.2,0-0.2,0c-0.1,0-0.3,0-0.4-0.1c-0.1,0-0.2-0.1-0.2-0.2C7.6,2.3,7.5,2.2,7.5,2V0.8h0.5v1.1
		c0,0.1,0,0.2,0.1,0.3c0,0.1,0.1,0.1,0.2,0.1c0.1,0,0.2,0,0.3-0.1c0.1,0,0.1-0.1,0.1-0.2c0-0.1,0-0.2,0-0.4V0.8H9.3z M10.4,3.6
		c-0.3,0-0.5,0-0.6-0.1C9.7,3.3,9.6,3.2,9.6,3c0-0.1,0-0.2,0.1-0.3C9.8,2.7,9.9,2.6,10,2.6c-0.1,0-0.1-0.1-0.1-0.1
		c0-0.1-0.1-0.1-0.1-0.2c0-0.1,0-0.1,0.1-0.2c0,0,0.1-0.1,0.2-0.1c-0.1,0-0.2-0.1-0.2-0.2C9.8,1.7,9.8,1.5,9.8,1.4
		c0-0.1,0-0.3,0.1-0.4C9.9,1,10,0.9,10.1,0.8c0.1-0.1,0.3-0.1,0.4-0.1c0,0,0.1,0,0.1,0c0,0,0.1,0,0.1,0c0,0,0.1,0,0.1,0h0.7v0.3
		l-0.3,0.1c0,0,0,0.1,0.1,0.1c0,0,0,0.1,0,0.2c0,0.2-0.1,0.4-0.2,0.5C11,2,10.8,2.1,10.5,2.1c-0.1,0-0.1,0-0.2,0c0,0,0,0-0.1,0.1
		c0,0,0,0,0,0.1c0,0,0,0,0,0.1c0,0,0.1,0,0.1,0c0,0,0.1,0,0.2,0h0.3c0.2,0,0.4,0,0.5,0.1c0.1,0.1,0.2,0.2,0.2,0.4
		c0,0.2-0.1,0.4-0.3,0.5C11.1,3.5,10.8,3.6,10.4,3.6z M10.5,3.2c0.1,0,0.2,0,0.3,0c0.1,0,0.2-0.1,0.2-0.1c0,0,0.1-0.1,0.1-0.2
		c0,0,0-0.1,0-0.1c0,0-0.1,0-0.1-0.1c-0.1,0-0.1,0-0.2,0h-0.3c-0.1,0-0.1,0-0.2,0c-0.1,0-0.1,0-0.1,0.1c0,0,0,0.1,0,0.1
		c0,0.1,0,0.1,0.1,0.2C10.2,3.2,10.3,3.2,10.5,3.2z M10.6,1.8c0.1,0,0.2,0,0.2-0.1c0-0.1,0.1-0.1,0.1-0.2c0-0.1,0-0.2-0.1-0.3
		c0-0.1-0.1-0.1-0.2-0.1c-0.1,0-0.2,0-0.2,0.1c0,0.1-0.1,0.1-0.1,0.3c0,0.1,0,0.2,0.1,0.2C10.4,1.7,10.5,1.8,10.6,1.8z M13.7,0.8
		v1.9h-0.4l-0.1-0.2h0c0,0.1-0.1,0.1-0.2,0.2c-0.1,0-0.1,0.1-0.2,0.1c-0.1,0-0.2,0-0.2,0c-0.1,0-0.3,0-0.4-0.1
		c-0.1,0-0.2-0.1-0.2-0.2c-0.1-0.1-0.1-0.2-0.1-0.4V0.8h0.5v1.1c0,0.1,0,0.2,0.1,0.3c0,0.1,0.1,0.1,0.2,0.1c0.1,0,0.2,0,0.3-0.1
		c0.1,0,0.1-0.1,0.1-0.2c0-0.1,0-0.2,0-0.4V0.8H13.7z M15,0.7c0.2,0,0.3,0,0.5,0.1c0.1,0.1,0.2,0.2,0.3,0.3c0.1,0.1,0.1,0.3,0.1,0.5
		v0.3h-1.3c0,0.1,0.1,0.3,0.1,0.4c0.1,0.1,0.2,0.1,0.4,0.1c0.1,0,0.2,0,0.3,0c0.1,0,0.2-0.1,0.3-0.1v0.4c-0.1,0-0.2,0.1-0.3,0.1
		c-0.1,0-0.2,0-0.4,0c-0.2,0-0.4,0-0.5-0.1c-0.1-0.1-0.3-0.2-0.4-0.3c-0.1-0.1-0.1-0.3-0.1-0.6c0-0.2,0-0.4,0.1-0.6
		c0.1-0.2,0.2-0.3,0.3-0.3C14.7,0.8,14.8,0.7,15,0.7z M15,1.1c-0.1,0-0.2,0-0.3,0.1c-0.1,0.1-0.1,0.2-0.1,0.3h0.7c0-0.1,0-0.1,0-0.2
		c0-0.1-0.1-0.1-0.1-0.1C15.2,1.1,15.1,1.1,15,1.1z M15.3,0c0,0.1,0.1,0.1,0.1,0.2c0.1,0.1,0.1,0.1,0.2,0.2c0.1,0.1,0.1,0.1,0.1,0.2
		v0h-0.4c-0.1,0-0.1-0.1-0.2-0.1c-0.1-0.1-0.1-0.1-0.2-0.2c-0.1,0.1-0.1,0.1-0.2,0.2c-0.1,0-0.1,0.1-0.2,0.1h-0.4v0
		c0,0,0.1-0.1,0.2-0.2c0.1-0.1,0.1-0.1,0.2-0.2c0.1-0.1,0.1-0.1,0.1-0.2H15.3z M17.7,2.1c0,0.1,0,0.2-0.1,0.3
		c-0.1,0.1-0.2,0.2-0.3,0.2c-0.1,0-0.3,0.1-0.5,0.1c-0.1,0-0.3,0-0.3,0c-0.1,0-0.2,0-0.3-0.1V2.2c0.1,0,0.2,0.1,0.3,0.1
		c0.1,0,0.2,0,0.3,0c0.1,0,0.2,0,0.2,0c0,0,0.1-0.1,0.1-0.1c0,0,0-0.1,0-0.1c0,0-0.1-0.1-0.1-0.1C17,2,16.9,2,16.7,1.9
		c-0.1-0.1-0.2-0.1-0.3-0.2c-0.1-0.1-0.1-0.1-0.2-0.2c0-0.1-0.1-0.2-0.1-0.3c0-0.2,0.1-0.3,0.2-0.4c0.1-0.1,0.3-0.1,0.6-0.1
		c0.1,0,0.2,0,0.3,0c0.1,0,0.2,0.1,0.3,0.1l-0.2,0.4c-0.1,0-0.2-0.1-0.3-0.1c-0.1,0-0.2,0-0.3,0c-0.1,0-0.1,0-0.2,0
		c0,0-0.1,0.1-0.1,0.1c0,0,0,0.1,0,0.1c0,0,0.1,0.1,0.1,0.1c0.1,0,0.1,0.1,0.3,0.1c0.1,0,0.2,0.1,0.3,0.1c0.1,0,0.1,0.1,0.2,0.2
		C17.7,1.9,17.7,2,17.7,2.1z"/>
	<path class="st0" d="M3.2,45.2l0.4-2.1h0.5c0.1,0,0.3,0,0.4,0.1c0.1,0,0.2,0.1,0.2,0.2c0,0.1,0.1,0.2,0.1,0.3c0,0.1,0,0.2-0.1,0.3
		c0,0.1-0.1,0.2-0.2,0.2c-0.1,0.1-0.2,0.1-0.3,0.1c-0.1,0-0.2,0-0.4,0H3.7l-0.2,0.8H3.2z M3.7,44.2h0.2c0.1,0,0.2,0,0.3-0.1
		c0.1,0,0.2-0.1,0.2-0.2c0.1-0.1,0.1-0.2,0.1-0.3c0-0.1,0-0.2-0.1-0.3c-0.1-0.1-0.2-0.1-0.3-0.1H3.9L3.7,44.2z M5.5,45.3
		c-0.1,0-0.2,0-0.3-0.1c-0.1,0-0.2-0.1-0.2-0.2c0-0.1-0.1-0.2-0.1-0.3c0-0.1,0-0.3,0.1-0.4c0-0.1,0.1-0.2,0.2-0.3
		c0.1-0.1,0.2-0.2,0.3-0.2c0.1-0.1,0.2-0.1,0.3-0.1c0.1,0,0.3,0,0.3,0.1c0.1,0.1,0.1,0.2,0.1,0.3c0,0.1,0,0.2-0.1,0.2
		c0,0.1-0.1,0.1-0.2,0.2c-0.1,0-0.2,0.1-0.3,0.1c-0.1,0-0.3,0-0.4,0H5.2c0,0,0,0,0,0.1c0,0,0,0,0,0.1c0,0.1,0,0.2,0.1,0.3
		c0.1,0.1,0.2,0.1,0.3,0.1c0.1,0,0.1,0,0.2,0C5.8,45,5.9,45,6,45v0.2c-0.1,0-0.1,0.1-0.2,0.1C5.7,45.3,5.6,45.3,5.5,45.3z M5.2,44.3
		L5.2,44.3c0.2,0,0.3,0,0.4,0c0.1,0,0.2-0.1,0.2-0.1c0.1-0.1,0.1-0.1,0.1-0.2c0-0.1,0-0.1-0.1-0.1c0,0-0.1-0.1-0.2-0.1
		c-0.1,0-0.1,0-0.2,0.1c-0.1,0-0.1,0.1-0.2,0.2C5.3,44.1,5.3,44.2,5.2,44.3z M6.4,45.2l0.3-1.6h0.2l0,0.3h0c0-0.1,0.1-0.1,0.1-0.2
		c0-0.1,0.1-0.1,0.2-0.1c0.1,0,0.1,0,0.2,0c0,0,0.1,0,0.1,0c0,0,0.1,0,0.1,0l-0.1,0.2c0,0-0.1,0-0.1,0c0,0,0,0-0.1,0
		c-0.1,0-0.1,0-0.2,0.1c-0.1,0-0.1,0.1-0.2,0.2c0,0.1-0.1,0.1-0.1,0.2c0,0.1-0.1,0.2-0.1,0.2l-0.2,0.7H6.4z M7.3,46c0,0-0.1,0-0.1,0
		c0,0-0.1,0-0.1,0v-0.2c0,0,0.1,0,0.1,0c0,0,0.1,0,0.1,0c0.1,0,0.1,0,0.2-0.1c0-0.1,0.1-0.1,0.1-0.2l0.3-1.6H7.6l0-0.1l0.3-0.1
		l0-0.2c0-0.1,0-0.2,0.1-0.2c0-0.1,0.1-0.1,0.1-0.2c0,0,0.1-0.1,0.1-0.1c0.1,0,0.1,0,0.2,0c0,0,0.1,0,0.1,0c0.1,0,0.1,0,0.1,0
		l-0.1,0.2c0,0-0.1,0-0.1,0c0,0-0.1,0-0.1,0c-0.1,0-0.1,0-0.2,0.1c0,0-0.1,0.1-0.1,0.3l0,0.2h0.3l0,0.2H8.1l-0.3,1.6
		c0,0.1-0.1,0.2-0.1,0.3c0,0.1-0.1,0.1-0.2,0.2C7.5,45.9,7.4,46,7.3,46z M9.1,45.3c-0.1,0-0.2,0-0.3-0.1c-0.1,0-0.2-0.1-0.2-0.2
		c0-0.1-0.1-0.2-0.1-0.3c0-0.1,0-0.3,0.1-0.4c0-0.1,0.1-0.2,0.2-0.3c0.1-0.1,0.2-0.2,0.3-0.2c0.1-0.1,0.2-0.1,0.3-0.1
		c0.1,0,0.3,0,0.3,0.1c0.1,0.1,0.1,0.2,0.1,0.3c0,0.1,0,0.2-0.1,0.2c0,0.1-0.1,0.1-0.2,0.2c-0.1,0-0.2,0.1-0.3,0.1
		c-0.1,0-0.3,0-0.4,0H8.8c0,0,0,0,0,0.1c0,0,0,0,0,0.1c0,0.1,0,0.2,0.1,0.3C8.9,45,9,45.1,9.1,45.1c0.1,0,0.1,0,0.2,0
		C9.4,45,9.5,45,9.6,45v0.2c-0.1,0-0.1,0.1-0.2,0.1C9.3,45.3,9.2,45.3,9.1,45.3z M8.8,44.3L8.8,44.3c0.2,0,0.3,0,0.4,0
		c0.1,0,0.2-0.1,0.2-0.1c0.1-0.1,0.1-0.1,0.1-0.2c0-0.1,0-0.1-0.1-0.1c0,0-0.1-0.1-0.2-0.1c-0.1,0-0.1,0-0.2,0.1
		C9,43.9,9,44,8.9,44.1C8.9,44.1,8.8,44.2,8.8,44.3z M9.9,45.2l0.3-1.6h0.2l-0.3,1.6H9.9z M10.5,43.4C10.4,43.4,10.4,43.4,10.5,43.4
		c-0.1-0.1-0.1-0.1-0.1-0.1c0,0,0-0.1,0-0.1c0,0,0-0.1,0.1-0.1c0,0,0.1,0,0.1,0c0,0,0.1,0,0.1,0c0,0,0,0.1,0,0.1c0,0.1,0,0.1,0,0.1
		C10.5,43.4,10.5,43.4,10.5,43.4z M11.1,45.3c-0.1,0-0.2,0-0.3-0.1c-0.1-0.1-0.1-0.1-0.1-0.3c0,0,0-0.1,0-0.1c0,0,0-0.1,0-0.1
		l0.2-0.9h-0.2l0-0.1l0.3-0.1l0.2-0.3h0.1l-0.1,0.4h0.4l0,0.2h-0.4L11,44.7c0,0,0,0.1,0,0.1c0,0,0,0.1,0,0.1c0,0,0,0.1,0,0.1
		c0,0,0.1,0,0.1,0c0,0,0.1,0,0.1,0c0,0,0.1,0,0.1,0v0.2c0,0-0.1,0-0.1,0C11.2,45.3,11.2,45.3,11.1,45.3z M12.3,45.3
		c-0.1,0-0.2,0-0.3-0.1c-0.1-0.1-0.2-0.1-0.2-0.2c0-0.1-0.1-0.2-0.1-0.3c0-0.1,0-0.2,0-0.3c0-0.1,0.1-0.2,0.1-0.3
		c0-0.1,0.1-0.2,0.2-0.2c0.1-0.1,0.1-0.1,0.2-0.2c0.1,0,0.2-0.1,0.3-0.1c0.1,0,0.2,0,0.3,0.1c0.1,0,0.2,0.1,0.2,0.2
		c0,0.1,0.1,0.2,0.1,0.3c0,0.1,0,0.2,0,0.3c0,0.1-0.1,0.2-0.1,0.3c0,0.1-0.1,0.2-0.2,0.2c-0.1,0.1-0.1,0.1-0.2,0.2
		C12.5,45.2,12.4,45.3,12.3,45.3z M12.3,45.1c0.1,0,0.1,0,0.2,0c0.1,0,0.1-0.1,0.1-0.1c0,0,0.1-0.1,0.1-0.2c0-0.1,0.1-0.1,0.1-0.2
		c0-0.1,0-0.2,0-0.3c0-0.1,0-0.1,0-0.2c0-0.1-0.1-0.1-0.1-0.1c0,0-0.1-0.1-0.2-0.1c-0.1,0-0.1,0-0.2,0c-0.1,0-0.1,0.1-0.2,0.1
		c0,0.1-0.1,0.1-0.1,0.2c0,0.1-0.1,0.1-0.1,0.2c0,0.1,0,0.2,0,0.3c0,0.1,0,0.2,0.1,0.3C12.1,45,12.2,45.1,12.3,45.1z"/>
	<path class="st0" d="M3.2,49.3l0.4-2.1h0.5c0.1,0,0.3,0,0.4,0.1c0.1,0,0.2,0.1,0.2,0.2c0,0.1,0.1,0.2,0.1,0.3c0,0.1,0,0.2-0.1,0.3
		c0,0.1-0.1,0.2-0.2,0.2c-0.1,0.1-0.2,0.1-0.3,0.1c-0.1,0-0.2,0-0.4,0H3.7l-0.2,0.8H3.2z M3.7,48.2h0.2c0.1,0,0.2,0,0.3-0.1
		c0.1,0,0.2-0.1,0.2-0.2c0.1-0.1,0.1-0.2,0.1-0.3c0-0.1,0-0.2-0.1-0.3c-0.1-0.1-0.2-0.1-0.3-0.1H3.9L3.7,48.2z M5.5,49.3
		c-0.1,0-0.2,0-0.3-0.1c-0.1,0-0.2-0.1-0.2-0.2c0-0.1-0.1-0.2-0.1-0.3c0-0.1,0-0.3,0.1-0.4c0-0.1,0.1-0.2,0.2-0.3
		c0.1-0.1,0.2-0.2,0.3-0.2c0.1-0.1,0.2-0.1,0.3-0.1c0.1,0,0.3,0,0.3,0.1c0.1,0.1,0.1,0.2,0.1,0.3c0,0.1,0,0.2-0.1,0.2
		c0,0.1-0.1,0.1-0.2,0.2c-0.1,0-0.2,0.1-0.3,0.1c-0.1,0-0.3,0-0.4,0H5.2c0,0,0,0,0,0.1c0,0,0,0,0,0.1c0,0.1,0,0.2,0.1,0.3
		c0.1,0.1,0.2,0.1,0.3,0.1c0.1,0,0.1,0,0.2,0C5.8,49.1,5.9,49,6,49v0.2c-0.1,0-0.1,0.1-0.2,0.1C5.7,49.3,5.6,49.3,5.5,49.3z
		 M5.2,48.4L5.2,48.4c0.2,0,0.3,0,0.4,0c0.1,0,0.2-0.1,0.2-0.1c0.1-0.1,0.1-0.1,0.1-0.2c0-0.1,0-0.1-0.1-0.1c0,0-0.1-0.1-0.2-0.1
		c-0.1,0-0.1,0-0.2,0.1c-0.1,0-0.1,0.1-0.2,0.2C5.3,48.2,5.3,48.3,5.2,48.4z M6.4,49.3l0.3-1.6h0.2l0,0.3h0c0-0.1,0.1-0.1,0.1-0.2
		c0-0.1,0.1-0.1,0.2-0.1c0.1,0,0.1,0,0.2,0c0,0,0.1,0,0.1,0c0,0,0.1,0,0.1,0l-0.1,0.2c0,0-0.1,0-0.1,0c0,0,0,0-0.1,0
		c-0.1,0-0.1,0-0.2,0.1C7.1,48,7,48,6.9,48.1c0,0.1-0.1,0.1-0.1,0.2c0,0.1-0.1,0.2-0.1,0.2l-0.2,0.7H6.4z M7.3,50c0,0-0.1,0-0.1,0
		c0,0-0.1,0-0.1,0v-0.2c0,0,0.1,0,0.1,0c0,0,0.1,0,0.1,0c0.1,0,0.1,0,0.2-0.1c0-0.1,0.1-0.1,0.1-0.2l0.3-1.6H7.6l0-0.1l0.3-0.1
		l0-0.2c0-0.1,0-0.2,0.1-0.2c0-0.1,0.1-0.1,0.1-0.2c0,0,0.1-0.1,0.1-0.1c0.1,0,0.1,0,0.2,0c0,0,0.1,0,0.1,0c0.1,0,0.1,0,0.1,0
		l-0.1,0.2c0,0-0.1,0-0.1,0c0,0-0.1,0-0.1,0c-0.1,0-0.1,0-0.2,0.1c0,0-0.1,0.1-0.1,0.3l0,0.2h0.3l0,0.2H8.1l-0.3,1.6
		c0,0.1-0.1,0.2-0.1,0.3c0,0.1-0.1,0.1-0.2,0.2C7.5,50,7.4,50,7.3,50z M9.1,49.3c-0.1,0-0.2,0-0.3-0.1c-0.1,0-0.2-0.1-0.2-0.2
		c0-0.1-0.1-0.2-0.1-0.3c0-0.1,0-0.3,0.1-0.4c0-0.1,0.1-0.2,0.2-0.3c0.1-0.1,0.2-0.2,0.3-0.2c0.1-0.1,0.2-0.1,0.3-0.1
		c0.1,0,0.3,0,0.3,0.1c0.1,0.1,0.1,0.2,0.1,0.3c0,0.1,0,0.2-0.1,0.2c0,0.1-0.1,0.1-0.2,0.2c-0.1,0-0.2,0.1-0.3,0.1
		c-0.1,0-0.3,0-0.4,0H8.8c0,0,0,0,0,0.1c0,0,0,0,0,0.1c0,0.1,0,0.2,0.1,0.3c0.1,0.1,0.2,0.1,0.3,0.1c0.1,0,0.1,0,0.2,0
		c0.1,0,0.1-0.1,0.2-0.1v0.2c-0.1,0-0.1,0.1-0.2,0.1C9.3,49.3,9.2,49.3,9.1,49.3z M8.8,48.4L8.8,48.4c0.2,0,0.3,0,0.4,0
		c0.1,0,0.2-0.1,0.2-0.1c0.1-0.1,0.1-0.1,0.1-0.2c0-0.1,0-0.1-0.1-0.1c0,0-0.1-0.1-0.2-0.1c-0.1,0-0.1,0-0.2,0.1C9,48,9,48,8.9,48.1
		C8.9,48.2,8.8,48.3,8.8,48.4z M9.9,49.3l0.3-1.6h0.2l-0.3,1.6H9.9z M10.5,47.4C10.4,47.4,10.4,47.4,10.5,47.4
		c-0.1-0.1-0.1-0.1-0.1-0.1c0,0,0-0.1,0-0.1c0,0,0-0.1,0.1-0.1c0,0,0.1,0,0.1,0c0,0,0.1,0,0.1,0c0,0,0,0.1,0,0.1c0,0.1,0,0.1,0,0.1
		C10.5,47.4,10.5,47.4,10.5,47.4z M11.1,49.3c-0.1,0-0.2,0-0.3-0.1c-0.1-0.1-0.1-0.1-0.1-0.3c0,0,0-0.1,0-0.1c0,0,0-0.1,0-0.1
		l0.2-0.9h-0.2l0-0.1l0.3-0.1l0.2-0.3h0.1l-0.1,0.4h0.4l0,0.2h-0.4L11,48.8c0,0,0,0.1,0,0.1c0,0,0,0.1,0,0.1c0,0,0,0.1,0,0.1
		c0,0,0.1,0,0.1,0c0,0,0.1,0,0.1,0c0,0,0.1,0,0.1,0v0.2c0,0-0.1,0-0.1,0C11.2,49.3,11.2,49.3,11.1,49.3z M12.3,49.3
		c-0.1,0-0.2,0-0.3-0.1c-0.1-0.1-0.2-0.1-0.2-0.2c0-0.1-0.1-0.2-0.1-0.3c0-0.1,0-0.2,0-0.3c0-0.1,0.1-0.2,0.1-0.3
		c0-0.1,0.1-0.2,0.2-0.2c0.1-0.1,0.1-0.1,0.2-0.2c0.1,0,0.2-0.1,0.3-0.1c0.1,0,0.2,0,0.3,0.1c0.1,0,0.2,0.1,0.2,0.2
		c0,0.1,0.1,0.2,0.1,0.3c0,0.1,0,0.2,0,0.3c0,0.1-0.1,0.2-0.1,0.3c0,0.1-0.1,0.2-0.2,0.2c-0.1,0.1-0.1,0.1-0.2,0.2
		C12.5,49.3,12.4,49.3,12.3,49.3z M12.3,49.1c0.1,0,0.1,0,0.2,0c0.1,0,0.1-0.1,0.1-0.1c0,0,0.1-0.1,0.1-0.2c0-0.1,0.1-0.1,0.1-0.2
		c0-0.1,0-0.2,0-0.3c0-0.1,0-0.1,0-0.2c0-0.1-0.1-0.1-0.1-0.1c0,0-0.1-0.1-0.2-0.1c-0.1,0-0.1,0-0.2,0c-0.1,0-0.1,0.1-0.2,0.1
		c0,0.1-0.1,0.1-0.1,0.2c0,0.1-0.1,0.1-0.1,0.2c0,0.1,0,0.2,0,0.3c0,0.1,0,0.2,0.1,0.3C12.1,49.1,12.2,49.1,12.3,49.1z"/>
	<rect x="8.2" y="12.3" class="st1" width="0.6" height="27.4"/>
	<path class="st1" d="M14.1,16.1c0,2-1.7,3.7-3.7,3.7H7.2c-2,0-3.7-1.7-3.7-3.7V16c0-2,1.7-3.7,3.7-3.7h3.2
		C12.4,12.4,14.1,14,14.1,16.1L14.1,16.1z M10.4,17.4c0.7,0,1.3-0.6,1.3-1.3V16c0-0.7-0.6-1.3-1.3-1.3H7.2c-0.7,0-1.3,0.6-1.3,1.3
		v0.1c0,0.7,0.6,1.3,1.3,1.3H10.4z"/>
	<path class="st2" d="M13.2,14.3c-2.1-1.5-6.6-0.1-6.6,0.1c0.5,0.1,0.8,0,0.8,0h3c0.9,0,1.7,0.7,1.7,1.6v0.1c0,0.9-0.8,1.6-1.7,1.6
		H7.2c-0.9,0-1.7-0.7-1.7-1.6l0-0.1c0-0.5-0.4-0.7-0.8-0.7c-0.8,0-0.8,0.7-0.8,0.7c0,0,0,0.1,0,0.1c0,1.9,1.5,3.4,3.4,3.4h3.2
		c1.9,0,3.4-1.5,3.4-3.4V16C13.7,15.4,13.6,14.8,13.2,14.3z"/>
</g>
</svg>
