<?xml version="1.0" encoding="utf-8"?>
<!-- Generator: Adobe Illustrator 27.8.1, SVG Export Plug-In . SVG Version: 6.00 Build 0)  -->
<svg version="1.1" id="Layer_1" xmlns="http://www.w3.org/2000/svg" xmlns:xlink="http://www.w3.org/1999/xlink" x="0px" y="0px"
	 viewBox="0 0 138.9 84.3" style="enable-background:new 0 0 138.9 84.3;" xml:space="preserve">
<style type="text/css">
	.st0{fill:#151816;}
	.st1{fill:#A5D49E;}
	.st2{fill:#D0E5CD;}
	.st3{fill:#090809;}
	.st4{fill:#8E8391;}
	.st5{fill:#B3ADB7;}
</style>
<g id="ZetmXK_00000053509800027763965310000004289734084754592401_">
	<g>
		<path class="st0" d="M135.4,47.1c0,1.3,0,2.5,0,3.8c-0.6,1.1-1,2.2-1.7,3.3c-0.5,0.8-0.6,1.4-0.4,2.3c1.6,6.1-1.7,11.8-7.8,13.8
			c-2.2,0.7-4.4,0.5-6.7,0c0,1.9,0.1,3.7,0,5.5c-0.1,1.2,0.4,1.4,1.4,1.4c4.3,0,8.5,0,12.8,0c1,0,1.8,0.2,2.4,1
			c0.4,1.8-0.3,2.1-2.1,2.1c-24.5-0.1-49-0.1-73.5,0c-1.8,0-2.4-0.4-2.1-2.1c0.6-0.8,1.4-1,2.4-1c3.9,0.1,7.8,0,11.7,0
			c0.6,0,1.4,0.2,1.4-0.9c-0.1-2.1-0.1-4.1,0-6.2c0-0.9-0.4-0.9-1-0.9c-1.1,0-2.3,0.1-3.4-0.1c-5.7-1.2-9.2-7.4-6.6-13.1
			c0.2-0.4,0.7-0.9,0-1.3c-2.3-1.3-3.3-3.6-4.4-5.9c0-1.3,0-2.5,0-3.8c1-2.7,2.3-5.2,5.1-6.5c1-0.4,1.2-0.9,1.2-1.9
			c-0.2-3.1,1-5.7,3.5-7.7c0.8-0.7,1.1-1.3,1.1-2.3c0-7.1,0-14.2,0-21.3c0-1,0-2.1,1-2.7c18.2,0,36.3,0,54.5,0
			c1.2,2.2,0.5,4.6,0.6,6.9c0,0.9-0.7,1.5-1.7,1.4c-0.8-0.1-1.3-0.6-1.3-1.5c0-0.9-0.1-1.7,0-2.6c0.1-0.9-0.3-1.1-1.2-1.1
			c-15.8,0-31.7,0-47.5,0c-1.1,0-1.3,0.3-1.3,1.3c0.1,6.1,0.1,12.3,0,18.4c0,1.2,0.3,1.5,1.5,1.5c6.1-0.1,12.2,0,18.3,0
			c1.1,0,1.8,0.4,2.3,1.3c0.9,1.6,1.9,3.1,2.9,4.8c0.9-1.5,1.8-2.7,2.4-4.1c0.7-1.5,1.8-2,3.4-2c5.2,0.1,10.3,0,15.5,0
			c1.1,0,2.6,0.4,3.3-0.2c0.8-0.6,0.2-2.1,0.3-3.3c0.1-1,0.4-1.8,1.6-1.9c1.1,0,1.5,0.8,1.5,1.7c0,1.6,0,3.2,0,4.8
			c0,1.2-0.6,1.9-2,1.8c-0.4,0-0.8,0-1.3,0c3.1,1.5,5.4,3.7,5.9,7.1c0.3,1.9,0.8,3,2.8,3.6C133.1,41.6,134.3,44.4,135.4,47.1z
			 M106.8,37.6c0.4-2.4-0.9-4.3-2-6.2c-1.1-1.8-2.8-1.7-3.9,0.1c-1,1.8-2.1,3.6-3.2,5.3c-0.7,1.1-1.8,1.1-2.5-0.1
			c-1-1.5-1.9-3.1-2.8-4.7c-1.4-2.4-2.4-2.6-4.7-1.1c-0.5,0.4-0.9,0.8-1.4,1.3c-1.8,1.6-1.2,3.8-1,5.7c0.1,1.7-0.4,2.4-2.1,2.9
			c-2.8,0.7-4.4,3-4.6,5.7c-0.2,3.4,1,5.3,3.8,6.5c2.4,1,2.6,2.1,0.8,4c-2.3,2.3-2.7,5.6-0.6,8.6c1.2,1.8,3.6,3,6.9,1.4
			c1-0.5,1.6-1.4,2.7-1.6c3.2-0.5,6.2-0.1,9.1,1.6c1.5,0.9,3.1,1,4.8,0.5c0.8-0.2,1.8-0.1,2.1-1.4c0.1-0.3,1.5-0.3,2.1-1
			c2.4-2.7,3-5.7,1.8-9.1c-0.3-0.8-0.8-1.7,0.1-2.5c2.1-1.8,2.7-4.3,1.9-6.7c-0.9-2.7-3-4.2-6-4.4c-1.4-0.1-1.9-0.9-1.7-2.2
			C106.6,39.5,106.7,38.5,106.8,37.6z M83.9,29.9c-3.5,0-6.9,0-10.3,0c-4.4,0-7.2,3.5-6.5,7.8c0.4,2.3,0.2,2.9-2,3.3
			c-2.6,0.6-3.7,2.3-4.2,4.6c-0.6,2.6,0.4,4.8,2.5,6.3c1.8,1.3,4.3,1,5.5-0.8c0.7-1.1,1.5-1.2,2.4-0.5c1.1,0.7,0.7,1.7,0,2.5
			c-1.2,1.4-2.8,2.2-4.5,2.6c-0.9,0.2-1.4,0.6-1.8,1.4c-1.1,2.1-1,4.3,0.3,6.2c1.3,2,3.3,3.1,5.8,2.9c2.4-0.2,4.7-1.2,7.1-0.9
			c0.8,0.1,0.5-0.6,0.4-1c-0.2-0.8-0.6-1.4-0.6-2.3c-0.1-1.7,0.5-3.2,1.2-4.7c0.3-0.7,0.8-1.9,0.1-2.1c-1.7-0.5-1.9-1.9-2.4-3.1
			c-0.8-1.8-1.7-3.7-1.3-5.9c0.5-2.8,0.3-2.9-2.2-4.2c-0.3-0.1-0.5-0.2-0.7-0.4c-0.8-0.6-1-1.3-0.5-2.2c0.5-0.9,1.3-0.7,1.9-0.4
			c0.8,0.4,1.6,0.8,2.5,1.1c2.2,0.6,5.4-1.8,5.2-4.1c-0.1-1.6,0.6-2.9,1.1-4.2C83.3,31.2,83.8,30.8,83.9,29.9z M114.3,65.2
			c0.9,0.3,1.6,0.6,2.4,0.8c1.8,0.4,3.1,1.8,5,1.9c5.8,0.4,10.8-5.8,8.2-11.8c-0.6-1.3-0.1-2.3,0.6-3.1c3.2-3.4,1.8-8.4-2.6-9.7
			c-0.8-0.2-1.5-0.6-2.3-0.7c-0.8-0.1-1.3-0.6-1.3-1.5c0-0.7,0-1.5,0-2.2c0-4.3-3-5.9-5.7-6.1c-0.5-0.1-1-0.1-1.4-0.5
			c-2.1-1.9-4.7-2.6-7.5-2.4c-1.3,0.1-1.5,0.7-1.1,1.6c1,2.4,1.3,4.8,1.2,7.4c0,0.7,0.3,1,1,1.2c2.1,0.7,4.2,1.8,5.3,3.8
			c2,3.6,2.1,7.3-0.4,10.8c-0.3,0.4-0.5,0.7-0.3,1.4C116.2,59.1,115.9,62.1,114.3,65.2z M91.6,69.7c-2.9,1.1-5.7,1.5-8.6,0.4
			c0,2.1,0,4,0,5.8c0,0.9,0.3,1.2,1.2,1.2c2.1,0,4.2-0.1,6.4,0c1,0,1.1-0.3,1.1-1.2C91.6,74,91.6,72,91.6,69.7z M105.2,77.2
			c0.7,0,1.5-0.1,2.2,0c1.2,0.1,1.6-0.3,1.5-1.5c-0.1-1.4-0.1-2.9,0-4.3c0-1-0.1-1.5-1.3-1.1c-1.2,0.4-2.5,0.6-3.7,0.5
			c-2.3-0.1-2.3-0.2-2.3,2.1c0,0.2,0,0.3,0,0.5C101.6,77.2,101.6,77.2,105.2,77.2z M76.2,72.6c0,0.7,0,1.4,0,2.1
			c0,2.7,0,2.7,2.8,2.5c0.6,0,0.9-0.1,0.9-0.8c0-2.3,0.1-4.6-0.1-6.9c-0.1-1.5-1.6-1-2.6-1.2c-0.9-0.2-1.1,0.5-1.1,1.3
			C76.2,70.6,76.2,71.6,76.2,72.6z M115.7,72.9c0-1.1,0.1-2.3,0-3.4c-0.2-1.6-1.6-1-2.6-1.3c-0.9-0.2-1.1,0.4-1.1,1.2c0,2,0.1,4,0,6
			c-0.1,1.4,0.5,1.6,1.7,1.7c1.6,0.1,2.3-0.3,2-2C115.6,74.4,115.7,73.7,115.7,72.9z M94.7,72.6C94.7,72.6,94.7,72.6,94.7,72.6
			c0,0.9,0.1,1.8,0,2.7c-0.1,1.4,0.3,1.8,1.8,1.8c1.7,0,2.2-0.4,2-2.1c-0.2-1.7,0-3.4,0-5.1c0-0.9-1.5-1.8-2.9-1.7
			c-1.3,0.1-0.7,1.1-0.8,1.7C94.7,70.8,94.7,71.7,94.7,72.6z"/>
		<path class="st1" d="M106.8,37.6c-0.1,0.9-0.2,1.8-0.3,2.7c-0.2,1.3,0.3,2.2,1.7,2.2c3,0.1,5.1,1.7,6,4.4c0.8,2.5,0.2,4.9-1.9,6.7
			c-0.9,0.8-0.4,1.6-0.1,2.5c1.2,3.4,0.6,6.4-1.8,9.1c-0.6,0.7-2,0.6-2.1,1c-0.4,1.2-1.3,1.1-2.1,1.4c-1.7,0.5-3.4,0.3-4.8-0.5
			c-2.9-1.7-5.9-2.1-9.1-1.6c-1.1,0.2-1.7,1.1-2.7,1.6c-3.3,1.6-5.7,0.4-6.9-1.4c-2-2.9-1.7-6.3,0.6-8.6c1.9-1.9,1.7-2.9-0.8-4
			c-2.8-1.2-3.9-3.2-3.8-6.5c0.1-2.8,1.8-5,4.6-5.7c1.7-0.4,2.2-1.1,2.1-2.9c-0.1-1.9-0.8-4.1,1-5.7c0.5-0.4,0.9-0.9,1.4-1.3
			c2.3-1.6,3.3-1.3,4.7,1.1c0.9,1.6,1.8,3.1,2.8,4.7c0.7,1.2,1.8,1.2,2.5,0.1c1.1-1.7,2.1-3.5,3.2-5.3c1.1-1.8,2.8-1.9,3.9-0.1
			C105.9,33.3,107.2,35.2,106.8,37.6z M104.3,61.9c0.4,0,0.6,0,0.8,0c1.1,0,2.2-0.3,2.2-1.6c0-1.3-1-1.6-2.2-1.5
			c-1.1,0.2-2.2-0.2-3-0.9c-0.9-0.8-1.9-1.2-2.6,0c-0.6,1-0.3,2,0.8,2.8C101.5,61.7,103.1,61.6,104.3,61.9z M88,48.3
			c-1,0.1-1.4,0.4-1.6,1c-0.2,0.6-0.1,1.2,0.4,1.7c1.6,1.6,3.6,2.1,5.8,2.1c0.9,0,1.6,0.1,2-0.7c0.5-0.9-0.1-2-0.8-2.1
			C91.6,49.9,89.5,49.8,88,48.3z M97.7,44.3c1-0.2,2.1-0.3,3.1-0.9c0.6-0.4,0.7-1,0.6-1.6c-0.2-0.7-0.7-1.1-1.2-1
			c-1.9,0.6-3.6,0.4-5.4-0.3c-0.6-0.2-1.3,0.1-1.5,0.8c-0.2,0.7-0.1,1.4,0.6,1.8C94.9,43.9,96.2,44.1,97.7,44.3z"/>
		<path class="st2" d="M83.9,29.9c-0.1,0.9-0.6,1.3-0.9,1.9c-0.6,1.3-1.3,2.6-1.1,4.2c0.2,2.2-3,4.6-5.2,4.1
			c-0.9-0.2-1.7-0.7-2.5-1.1c-0.6-0.3-1.4-0.5-1.9,0.4c-0.5,0.9-0.3,1.6,0.5,2.2c0.2,0.2,0.5,0.3,0.7,0.4c2.5,1.3,2.7,1.3,2.2,4.2
			c-0.4,2.3,0.5,4.1,1.3,5.9c0.5,1.1,0.7,2.6,2.4,3.1c0.7,0.2,0.2,1.4-0.1,2.1c-0.6,1.5-1.2,3-1.2,4.7c0,0.8,0.4,1.5,0.6,2.3
			c0.1,0.4,0.4,1.1-0.4,1c-2.5-0.3-4.7,0.7-7.1,0.9c-2.5,0.2-4.5-0.9-5.8-2.9c-1.3-1.9-1.4-4.1-0.3-6.2c0.4-0.8,0.9-1.2,1.8-1.4
			c1.8-0.4,3.4-1.2,4.5-2.6c0.7-0.8,1.1-1.8,0-2.5c-0.9-0.6-1.7-0.6-2.4,0.5c-1.2,1.8-3.7,2.1-5.5,0.8c-2.1-1.6-3.1-3.8-2.5-6.3
			c0.5-2.2,1.7-4,4.2-4.6c2.2-0.5,2.4-1.1,2-3.3c-0.8-4.3,2.1-7.8,6.5-7.8C77,29.8,80.4,29.9,83.9,29.9z"/>
		<path class="st2" d="M114.3,65.2c1.6-3,1.9-6.1,1-9.3c-0.2-0.6,0-0.9,0.3-1.4c2.5-3.5,2.5-7.2,0.4-10.8c-1.1-2-3.2-3-5.3-3.8
			c-0.7-0.3-1-0.5-1-1.2c0.1-2.5-0.2-5-1.2-7.4c-0.4-0.9-0.2-1.5,1.1-1.6c2.9-0.2,5.4,0.4,7.5,2.4c0.4,0.4,0.9,0.4,1.4,0.5
			c2.7,0.3,5.7,1.9,5.7,6.1c0,0.7,0,1.5,0,2.2c0,0.9,0.5,1.5,1.3,1.5c0.9,0.1,1.6,0.4,2.3,0.7c4.4,1.3,5.7,6.3,2.6,9.7
			c-0.7,0.8-1.2,1.7-0.6,3.1c2.6,6.1-2.5,12.2-8.2,11.8c-1.9-0.1-3.3-1.5-5-1.9C115.9,65.8,115.2,65.5,114.3,65.2z M125.5,50.2
			c0.4,0,0.8,0.1,1.2,0c1-0.3,2.2-0.5,2-1.8c-0.1-1.3-1.2-1.4-2.2-1.2c-1.3,0.2-2.5,0-3.6-0.8c-0.8-0.6-1.7-0.5-2.2,0.4
			c-0.5,0.8-0.2,1.6,0.6,2.2C122.6,49.7,123.9,50.3,125.5,50.2z M124,57.4c0.1-1.1-0.2-1.7-0.9-1.9c-0.7-0.2-1.4,0-1.7,0.7
			c-0.8,1.9-0.8,3.9-0.1,5.8c0.3,0.7,0.9,1.1,1.7,0.9c0.8-0.2,1.3-0.8,1.1-1.7C123.7,59.8,123.5,58.4,124,57.4z"/>
		<path class="st2" d="M76.2,72.6c0-1,0-2.1,0-3.1c0-0.8,0.1-1.5,1.1-1.3c1,0.2,2.5-0.4,2.6,1.2c0.2,2.3,0,4.6,0.1,6.9
			c0,0.7-0.3,0.8-0.9,0.8c-2.8,0.2-2.8,0.2-2.8-2.5C76.2,74,76.2,73.3,76.2,72.6z"/>
		<path class="st2" d="M115.7,72.9c0,0.7-0.1,1.5,0,2.2c0.3,1.7-0.4,2.1-2,2c-1.2-0.1-1.8-0.2-1.7-1.7c0.1-2,0.1-4,0-6
			c0-0.8,0.2-1.5,1.1-1.2c0.9,0.2,2.4-0.4,2.6,1.3C115.8,70.6,115.7,71.8,115.7,72.9z"/>
		<path class="st2" d="M94.7,72.6c0-0.9-0.1-1.8,0-2.7c0.1-0.6-0.5-1.6,0.8-1.7c1.4-0.1,2.9,0.8,2.9,1.7c0,1.7-0.1,3.4,0,5.1
			c0.2,1.7-0.3,2.1-2,2.1c-1.5,0-1.9-0.4-1.8-1.8C94.8,74.5,94.7,73.6,94.7,72.6C94.7,72.6,94.7,72.6,94.7,72.6z"/>
		<path class="st0" d="M74.7,16.2c0-1.8,0-3.7,0-5.5c0-1,0.2-1.9,1.4-1.9c1.4-0.1,1.5,0.9,1.5,2c0,0.9,0,1.7,0,2.6
			c-0.1,1.1,0.4,1.4,1.5,1.4c1.3,0,1.9-0.3,1.7-1.7c-0.1-1,0-2,0-2.9c0-0.9,0.5-1.4,1.4-1.4c0.9,0,1.5,0.4,1.5,1.5c0,4,0,8,0,12.1
			c0,0.9-0.5,1.4-1.4,1.5c-0.9,0.1-1.5-0.4-1.6-1.4c0-1.1-0.1-2.2,0-3.3c0.1-1.1-0.2-1.4-1.3-1.3c-0.9,0.1-2-0.3-1.8,1.3
			c0.1,0.9,0,1.8,0,2.8c0,1-0.1,1.9-1.4,1.9c-1.2,0-1.5-0.8-1.5-1.8C74.7,20,74.7,18.1,74.7,16.2z"/>
		<path class="st0" d="M87.9,23.8c-0.9-0.3-1.2-0.9-1.2-1.8c0-3.8,0-7.7,0-11.5c0-1.1,0.5-1.7,1.7-1.7c1.7,0,3.3,0,5,0
			c1.1,0,1.7,0.5,1.6,1.5c0,1.1-0.7,1.5-1.8,1.4c-0.6,0-1.2,0.1-1.7,0c-1.4-0.2-1.9,0.3-1.8,1.7c0,1.1,0.4,1.5,1.5,1.4
			c0.8-0.1,1.6-0.1,2.4,0c0.8,0.1,1.4,0.5,1.4,1.4c0,1-0.6,1.5-1.4,1.6c-0.7,0.1-1.4,0-2.1,0c-1.6,0-2.3,0.9-1.8,2.5
			c0.2,0.5,0.5,0.5,0.9,0.5c0.8,0,1.6,0,2.4,0c1,0,1.8,0.2,1.9,1.3c0.1,1.1-0.5,1.6-1.5,1.7C91.7,23.6,89.8,23.6,87.9,23.8z"/>
		<path class="st0" d="M109.5,16.3c0-1.9,0-3.8,0-5.7c0-1.3,0.6-1.9,1.9-1.8c1.5,0.1,3.1-0.3,4.6,0.3c2,0.9,3,3,2.5,5.1
			c-0.4,1.9-2.2,3.5-4.3,3.5c-1.6,0-1.8,0.6-1.7,1.9c0.1,0.7,0,1.5,0,2.2c0,1-0.2,1.9-1.5,1.9c-1.2,0-1.5-0.8-1.5-1.8
			C109.5,20,109.5,18.1,109.5,16.3z M112.5,13.4c-0.1,0.7-0.1,1.4,1.2,1.3c1.1-0.1,1.8-0.6,1.8-1.6c0-1.1-0.9-1.4-1.9-1.5
			C112.2,11.5,112.5,12.4,112.5,13.4z"/>
		<path class="st0" d="M101.1,15.6c-0.1,0.9,0.2,2.5-0.1,4.1c-0.1,0.7,0.1,1.3,1.1,1.2c1-0.1,1.9,0,2.9,0c0.9,0,1.4,0.5,1.4,1.4
			c0,1-0.5,1.5-1.5,1.5c-1.8,0-3.5,0-5.3-0.1c-1,0-1.5-0.5-1.5-1.5c0-4,0-8,0-12c0-1,0.6-1.4,1.5-1.5c1,0,1.4,0.5,1.4,1.4
			C101.1,11.8,101.1,13.4,101.1,15.6z"/>
		<path class="st0" d="M124.6,16.1c0.1,1.3-1,1.7-1.7,1.8c-0.8,0.1-1.1-0.9-1.2-1.7c-0.1-0.9,0.6-1.4,1.4-1.4
			C123.9,14.6,124.4,15.2,124.6,16.1z"/>
		<path class="st1" d="M87.9,23.8c1.9-0.2,3.7-0.2,5.6,0C91.6,24.1,89.8,24.1,87.9,23.8z"/>
		<path class="st0" d="M104.3,61.9c-1.2-0.3-2.8-0.2-4.1-1.2c-1.1-0.8-1.3-1.8-0.8-2.8c0.7-1.2,1.7-0.8,2.6,0c0.9,0.7,1.9,1.1,3,0.9
			c1.2-0.2,2.2,0.2,2.2,1.5c0,1.3-1.1,1.6-2.2,1.6C104.9,61.9,104.7,61.9,104.3,61.9z"/>
		<path class="st0" d="M88,48.3c1.4,1.5,3.6,1.6,5.7,2c0.7,0.1,1.3,1.2,0.8,2.1c-0.4,0.8-1.1,0.7-2,0.7c-2.2,0-4.2-0.5-5.8-2.1
			c-0.5-0.5-0.6-1.1-0.4-1.7C86.6,48.7,87.1,48.4,88,48.3z"/>
		<path class="st0" d="M97.7,44.3c-1.4-0.2-2.7-0.4-3.9-1.1c-0.7-0.4-0.7-1.1-0.6-1.8c0.2-0.8,0.9-1.1,1.5-0.8
			c1.8,0.6,3.5,0.9,5.4,0.3c0.5-0.2,1.1,0.3,1.2,1c0.2,0.7,0,1.2-0.6,1.6C99.8,44.1,98.6,44.1,97.7,44.3z"/>
		<path class="st0" d="M125.5,50.2c-1.6,0.1-2.9-0.5-4.1-1.4c-0.9-0.6-1.1-1.4-0.6-2.2c0.5-0.9,1.4-1,2.2-0.4c1.1,0.8,2.3,1,3.6,0.8
			c1.1-0.1,2.1-0.1,2.2,1.2c0.1,1.4-1,1.6-2,1.8C126.3,50.3,125.9,50.2,125.5,50.2z"/>
		<path class="st0" d="M124,57.4c-0.5,1-0.3,2.4,0,3.8c0.2,0.9-0.3,1.4-1.1,1.7c-0.8,0.2-1.4-0.2-1.7-0.9c-0.8-1.9-0.7-3.9,0.1-5.8
			c0.3-0.7,1-0.9,1.7-0.7C123.8,55.7,124.1,56.3,124,57.4z"/>
	</g>
</g>
<g id="KpR1oY.tif">
	<g>
		<path class="st3" d="M8.6,76.7c-0.1-1.7-0.4-3.4-0.7-5.1c-1.3-8.8-2.7-17.7-4.1-26.5c-0.3-2.1,0.3-3.8,2-5.2
			c2.9-2.4,5.8-4.9,8.7-7.4c0.8-0.6,1.1-1.4,1.1-2.4c0.1-4.5,0.1-9,0.2-13.5c0-0.9,0.1-1.8,0.7-2.6c0.4-0.7,1-1,1.7-0.7
			c0.7,0.6,0.8,1.1,0.3,1.8c-0.2,0.4-0.3,0.7-0.3,1.2c0,1.3,0,2.7-0.1,4c0,0.4,0.1,0.5,0.5,0.6c4.5,0.8,8.9,1.7,13.4,2.5
			c1.6,0.3,3.1-0.1,4.3-1.1c1.9-1.5,3.3-3.5,5-5.2c0.3-0.3,0-0.5-0.2-0.6c-4.6-3.5-9.3-6.9-13.9-10.4c-1-0.8-1.8-0.6-2.5,0.4
			c-1.1,1.5-2.1,3-3.2,4.6c-0.5,0.8-0.9,0.8-1.8,0.4c-0.6-0.6-0.5-1.2-0.1-1.8c1.1-1.5,2.2-3.1,3.2-4.6c1.4-2,3.7-2.4,5.7-0.9
			c7.3,5.4,14.5,10.8,21.8,16.3c0.6,0.4,1.2,0.7,1.9,0.7c2.9,0.2,5.9,0.4,8.8,0.5c2.3,0,3.9,1.1,5.1,3c2.3,3.5,4.7,7,7.1,10.5
			c0.6,0.9,0.6,1.2,0,2c-1,0.3-1.3,0.2-1.9-0.7c-2.5-3.7-5-7.3-7.4-11c-0.6-0.9-1.3-1.3-2.4-1.4c-2.4-0.1-4.9-0.3-7.3-0.4
			c-0.7,0-1.3-0.1-2-0.1c0.8,3.7,1.6,7.4,2.3,11c0.5,2.4,1.2,4.7,2.9,6.4c1.8,1.8,3.7,3.3,5.8,4.7c1.9,1.2,3.9,1.5,6,0.5
			c1.6-0.8,3.2-1.6,4.7-2.5c0.5-0.3,1.5-0.4,1.6-0.9c0-0.5-0.6-1.1-1-1.6c-0.6-0.7-0.7-1.4-0.2-2.2c1.1-0.3,1.3-0.2,2,0.7
			c1.4,2.1,2.9,4.2,4.3,6.3c1.1,1.7,0.6,4-1.2,5.1c-0.1,0-0.1,0-0.2,0.1c-6.9,3-13.7,5.9-20.6,8.9c-10.2,4.4-20.5,8.8-30.7,13.2
			c-0.6,0.1-1-0.2-1.3-0.6c-0.2-1,0-1.3,1-1.8c8.5-3.7,17-7.3,25.5-11c0.3-0.1,0.6-0.2,0.9-0.4c-0.2-0.2-0.3-0.4-0.4-0.6
			c-1.9-2.9-4.5-4.9-7.9-5.4c-4.8-0.8-9.7-1.5-14.5-2.2c-2.8-0.4-5.4,0.2-7.7,1.8c-4.7,3.3-9.3,6.7-13.9,10.1
			c-0.3,0.2-0.5,0.5-0.4,1c0.6,3.9,1.2,7.8,1.8,11.7c0.2,1.3,0.9,1.7,2.2,1.2c3.2-1.4,6.4-2.7,9.6-4.1c0.9-0.4,1.3-0.3,1.9,0.5
			c0.1,0.5,0.1,1-0.4,1.4c-3.5,1.5-7,3-10.5,4.5c-0.1,0.1-0.3,0.1-0.3,0.3c0,0-0.1,0-0.1,0.1c-1.5,0.2-2.8-0.3-3.9-1.3
			C9.1,77.8,8.8,77.3,8.6,76.7z M67.4,53.7c3.5-1.5,6.9-3,10.4-4.5c1.2-0.5,1.4-1.2,0.7-2.3c-0.4-0.5-0.8-1.1-1.1-1.6
			c-0.2-0.4-0.5-0.4-0.9-0.2c-1.6,0.9-3.3,1.6-4.9,2.6c-3.5,2.1-7,2-10.3-0.4c-1.7-1.2-3.4-2.6-5-4c-1.8-1.7-3.1-3.8-3.7-6.2
			c-1-4.6-1.9-9.1-2.9-13.7c-0.1-0.4-0.2-0.6-0.5-0.8c-1.7-1.3-3.5-2.6-5.2-3.9c-0.4-0.3-0.6-0.2-1,0.1c-1.3,1.4-2.6,2.8-3.9,4.3
			c-2.2,2.4-5,3.3-8.2,2.7c-4-0.8-8.1-1.5-12.1-2.3c-0.6-0.1-0.7,0-0.7,0.6c0,2-0.1,4.1-0.1,6.1c0,1.7-0.7,3.1-2,4.2
			c-2.9,2.5-5.8,5-8.8,7.4c-0.9,0.8-1.3,1.7-1.1,2.8C6.9,49.8,7.7,55,8.5,60.2c0.1,0.5,0.2,0.6,0.7,0.3c3.7-2.8,7.6-5.4,11.2-8.2
			c3.8-2.9,8-4,12.7-3.1c4,0.7,7.9,1.2,11.9,1.8c1,0.2,2.1,0.4,3,0.7c3.3,1.2,5.8,3.5,7.7,6.3c0.3,0.5,0.5,0.5,1,0.3
			C60.3,56.8,63.9,55.3,67.4,53.7z"/>
		<path class="st4" d="M27.9,73.3c10.2-4.4,20.5-8.8,30.7-13.2c6.9-3,13.7-5.9,20.6-8.9c0.1,0,0.1,0,0.2-0.1c0,0,0.1,0.1,0,0.1
			C62.3,58.6,45.1,66,28,73.4C27.9,73.3,27.9,73.3,27.9,73.3z"/>
		<path class="st4" d="M24.1,74.9c0,0,0,0.1,0,0.1c-3.6,1.6-7.2,3.1-10.8,4.7c0-0.2,0.2-0.2,0.3-0.3C17.1,77.9,20.6,76.4,24.1,74.9z
			"/>
		<path class="st4" d="M74.3,39c-0.6,0.8-0.4,1.5,0.2,2.2c0.4,0.5,1,1.1,1,1.6c0,0.5-1,0.6-1.6,0.9c-1.6,0.9-3.1,1.7-4.7,2.5
			c-2.1,1-4.2,0.8-6-0.5c-2.1-1.4-4-2.9-5.8-4.7c-1.7-1.8-2.5-4-2.9-6.4c-0.7-3.7-1.5-7.3-2.3-11c0.7,0,1.4,0.1,2,0.1
			c2.4,0.1,4.9,0.3,7.3,0.4c1.1,0,1.8,0.5,2.4,1.4c2.5,3.7,4.9,7.3,7.4,11c0.6,0.9,0.9,1,1.9,0.7C73.6,37.8,74.1,38.3,74.3,39z"/>
		<path class="st4" d="M19.7,11.6c0.9,0.4,1.3,0.3,1.8-0.4c1.1-1.5,2.1-3,3.2-4.6c0.7-1.1,1.5-1.2,2.5-0.4
			c4.7,3.5,9.3,6.9,13.9,10.4c0.2,0.2,0.5,0.3,0.2,0.6c-1.7,1.7-3.1,3.7-5,5.2c-1.2,1-2.7,1.4-4.3,1.1c-4.5-0.8-8.9-1.7-13.4-2.5
			c-0.4-0.1-0.5-0.2-0.5-0.6c0-1.3,0.1-2.7,0.1-4c0-0.4,0.1-0.8,0.3-1.2c0.5-0.8,0.4-1.2-0.3-1.8C18.9,12.9,19.2,12.2,19.7,11.6z"/>
		<path class="st5" d="M67.4,53.7c-3.5,1.5-7,3-10.5,4.5c-0.5,0.2-0.7,0.1-1-0.3c-1.9-2.9-4.3-5.2-7.7-6.3c-1-0.3-2-0.6-3-0.7
			c-4-0.6-8-1.1-11.9-1.8c-4.7-0.8-8.9,0.2-12.7,3.1c-3.7,2.8-7.5,5.5-11.2,8.2c-0.5,0.4-0.6,0.2-0.7-0.3C7.7,55,6.9,49.8,6.1,44.6
			c-0.2-1.2,0.2-2.1,1.1-2.8c2.9-2.5,5.9-4.9,8.8-7.4c1.3-1.1,2-2.5,2-4.2c0-2,0.1-4.1,0.1-6.1c0-0.6,0.1-0.7,0.7-0.6
			c4,0.8,8.1,1.5,12.1,2.3c3.2,0.6,6-0.3,8.2-2.7c1.3-1.4,2.6-2.8,3.9-4.3c0.3-0.4,0.5-0.5,1-0.1c1.7,1.3,3.5,2.6,5.2,3.9
			c0.3,0.2,0.4,0.4,0.5,0.8c0.9,4.6,1.9,9.2,2.9,13.7c0.5,2.4,1.8,4.5,3.7,6.2c1.6,1.4,3.3,2.8,5,4c3.3,2.4,6.8,2.5,10.3,0.4
			c1.6-0.9,3.3-1.7,4.9-2.6c0.4-0.2,0.6-0.2,0.9,0.2c0.3,0.6,0.7,1.1,1.1,1.6c0.7,1,0.5,1.8-0.7,2.3C74.3,50.8,70.8,52.2,67.4,53.7z
			"/>
		<path class="st4" d="M26.6,72.6c-0.7,0.3-1.4,0.6-2.1,0.9c-0.6-0.8-1-0.9-1.9-0.5c-3.2,1.4-6.4,2.7-9.6,4.1
			c-1.2,0.5-2,0.2-2.2-1.2c-0.6-3.9-1.2-7.8-1.8-11.7c-0.1-0.5,0-0.7,0.4-1c4.6-3.4,9.2-6.8,13.9-10.1c2.3-1.6,4.9-2.2,7.7-1.8
			c4.8,0.7,9.7,1.4,14.5,2.2c3.4,0.6,6,2.6,7.9,5.4c0.1,0.2,0.3,0.4,0.4,0.6c-0.3,0.1-0.6,0.3-0.9,0.4c-8.5,3.7-17,7.3-25.5,11
			C26.6,71.3,26.4,71.6,26.6,72.6z"/>
	</g>
</g>
</svg>
